G75*
%MOIN*%
%OFA0B0*%
%FSLAX25Y25*%
%IPPOS*%
%LPD*%
%AMOC8*
5,1,8,0,0,1.08239X$1,22.5*
%
%ADD10C,0.00000*%
%ADD11C,0.01000*%
%ADD12R,0.05512X0.06299*%
%ADD13R,0.07800X0.01400*%
%ADD14R,0.02400X0.08700*%
%ADD15R,0.04724X0.04724*%
%ADD16C,0.07400*%
%ADD17C,0.07874*%
%ADD18C,0.00600*%
%ADD19C,0.02700*%
D10*
X0006500Y0001500D02*
X0006500Y0110201D01*
X0116421Y0110201D01*
X0116421Y0001500D01*
X0006500Y0001500D01*
X0026150Y0025500D02*
X0026152Y0025631D01*
X0026158Y0025763D01*
X0026168Y0025894D01*
X0026182Y0026024D01*
X0026200Y0026155D01*
X0026221Y0026284D01*
X0026247Y0026413D01*
X0026276Y0026541D01*
X0026310Y0026668D01*
X0026347Y0026794D01*
X0026388Y0026919D01*
X0026433Y0027043D01*
X0026481Y0027165D01*
X0026533Y0027285D01*
X0026589Y0027404D01*
X0026648Y0027522D01*
X0026711Y0027637D01*
X0026777Y0027750D01*
X0026847Y0027862D01*
X0026920Y0027971D01*
X0026996Y0028078D01*
X0027076Y0028183D01*
X0027158Y0028285D01*
X0027244Y0028385D01*
X0027333Y0028482D01*
X0027424Y0028576D01*
X0027518Y0028667D01*
X0027615Y0028756D01*
X0027715Y0028842D01*
X0027817Y0028924D01*
X0027922Y0029004D01*
X0028029Y0029080D01*
X0028138Y0029153D01*
X0028250Y0029223D01*
X0028363Y0029289D01*
X0028478Y0029352D01*
X0028596Y0029411D01*
X0028715Y0029467D01*
X0028835Y0029519D01*
X0028957Y0029567D01*
X0029081Y0029612D01*
X0029206Y0029653D01*
X0029332Y0029690D01*
X0029459Y0029724D01*
X0029587Y0029753D01*
X0029716Y0029779D01*
X0029845Y0029800D01*
X0029976Y0029818D01*
X0030106Y0029832D01*
X0030237Y0029842D01*
X0030369Y0029848D01*
X0030500Y0029850D01*
X0030631Y0029848D01*
X0030763Y0029842D01*
X0030894Y0029832D01*
X0031024Y0029818D01*
X0031155Y0029800D01*
X0031284Y0029779D01*
X0031413Y0029753D01*
X0031541Y0029724D01*
X0031668Y0029690D01*
X0031794Y0029653D01*
X0031919Y0029612D01*
X0032043Y0029567D01*
X0032165Y0029519D01*
X0032285Y0029467D01*
X0032404Y0029411D01*
X0032522Y0029352D01*
X0032637Y0029289D01*
X0032750Y0029223D01*
X0032862Y0029153D01*
X0032971Y0029080D01*
X0033078Y0029004D01*
X0033183Y0028924D01*
X0033285Y0028842D01*
X0033385Y0028756D01*
X0033482Y0028667D01*
X0033576Y0028576D01*
X0033667Y0028482D01*
X0033756Y0028385D01*
X0033842Y0028285D01*
X0033924Y0028183D01*
X0034004Y0028078D01*
X0034080Y0027971D01*
X0034153Y0027862D01*
X0034223Y0027750D01*
X0034289Y0027637D01*
X0034352Y0027522D01*
X0034411Y0027404D01*
X0034467Y0027285D01*
X0034519Y0027165D01*
X0034567Y0027043D01*
X0034612Y0026919D01*
X0034653Y0026794D01*
X0034690Y0026668D01*
X0034724Y0026541D01*
X0034753Y0026413D01*
X0034779Y0026284D01*
X0034800Y0026155D01*
X0034818Y0026024D01*
X0034832Y0025894D01*
X0034842Y0025763D01*
X0034848Y0025631D01*
X0034850Y0025500D01*
X0034848Y0025369D01*
X0034842Y0025237D01*
X0034832Y0025106D01*
X0034818Y0024976D01*
X0034800Y0024845D01*
X0034779Y0024716D01*
X0034753Y0024587D01*
X0034724Y0024459D01*
X0034690Y0024332D01*
X0034653Y0024206D01*
X0034612Y0024081D01*
X0034567Y0023957D01*
X0034519Y0023835D01*
X0034467Y0023715D01*
X0034411Y0023596D01*
X0034352Y0023478D01*
X0034289Y0023363D01*
X0034223Y0023250D01*
X0034153Y0023138D01*
X0034080Y0023029D01*
X0034004Y0022922D01*
X0033924Y0022817D01*
X0033842Y0022715D01*
X0033756Y0022615D01*
X0033667Y0022518D01*
X0033576Y0022424D01*
X0033482Y0022333D01*
X0033385Y0022244D01*
X0033285Y0022158D01*
X0033183Y0022076D01*
X0033078Y0021996D01*
X0032971Y0021920D01*
X0032862Y0021847D01*
X0032750Y0021777D01*
X0032637Y0021711D01*
X0032522Y0021648D01*
X0032404Y0021589D01*
X0032285Y0021533D01*
X0032165Y0021481D01*
X0032043Y0021433D01*
X0031919Y0021388D01*
X0031794Y0021347D01*
X0031668Y0021310D01*
X0031541Y0021276D01*
X0031413Y0021247D01*
X0031284Y0021221D01*
X0031155Y0021200D01*
X0031024Y0021182D01*
X0030894Y0021168D01*
X0030763Y0021158D01*
X0030631Y0021152D01*
X0030500Y0021150D01*
X0030369Y0021152D01*
X0030237Y0021158D01*
X0030106Y0021168D01*
X0029976Y0021182D01*
X0029845Y0021200D01*
X0029716Y0021221D01*
X0029587Y0021247D01*
X0029459Y0021276D01*
X0029332Y0021310D01*
X0029206Y0021347D01*
X0029081Y0021388D01*
X0028957Y0021433D01*
X0028835Y0021481D01*
X0028715Y0021533D01*
X0028596Y0021589D01*
X0028478Y0021648D01*
X0028363Y0021711D01*
X0028250Y0021777D01*
X0028138Y0021847D01*
X0028029Y0021920D01*
X0027922Y0021996D01*
X0027817Y0022076D01*
X0027715Y0022158D01*
X0027615Y0022244D01*
X0027518Y0022333D01*
X0027424Y0022424D01*
X0027333Y0022518D01*
X0027244Y0022615D01*
X0027158Y0022715D01*
X0027076Y0022817D01*
X0026996Y0022922D01*
X0026920Y0023029D01*
X0026847Y0023138D01*
X0026777Y0023250D01*
X0026711Y0023363D01*
X0026648Y0023478D01*
X0026589Y0023596D01*
X0026533Y0023715D01*
X0026481Y0023835D01*
X0026433Y0023957D01*
X0026388Y0024081D01*
X0026347Y0024206D01*
X0026310Y0024332D01*
X0026276Y0024459D01*
X0026247Y0024587D01*
X0026221Y0024716D01*
X0026200Y0024845D01*
X0026182Y0024976D01*
X0026168Y0025106D01*
X0026158Y0025237D01*
X0026152Y0025369D01*
X0026150Y0025500D01*
X0088150Y0025500D02*
X0088152Y0025631D01*
X0088158Y0025763D01*
X0088168Y0025894D01*
X0088182Y0026024D01*
X0088200Y0026155D01*
X0088221Y0026284D01*
X0088247Y0026413D01*
X0088276Y0026541D01*
X0088310Y0026668D01*
X0088347Y0026794D01*
X0088388Y0026919D01*
X0088433Y0027043D01*
X0088481Y0027165D01*
X0088533Y0027285D01*
X0088589Y0027404D01*
X0088648Y0027522D01*
X0088711Y0027637D01*
X0088777Y0027750D01*
X0088847Y0027862D01*
X0088920Y0027971D01*
X0088996Y0028078D01*
X0089076Y0028183D01*
X0089158Y0028285D01*
X0089244Y0028385D01*
X0089333Y0028482D01*
X0089424Y0028576D01*
X0089518Y0028667D01*
X0089615Y0028756D01*
X0089715Y0028842D01*
X0089817Y0028924D01*
X0089922Y0029004D01*
X0090029Y0029080D01*
X0090138Y0029153D01*
X0090250Y0029223D01*
X0090363Y0029289D01*
X0090478Y0029352D01*
X0090596Y0029411D01*
X0090715Y0029467D01*
X0090835Y0029519D01*
X0090957Y0029567D01*
X0091081Y0029612D01*
X0091206Y0029653D01*
X0091332Y0029690D01*
X0091459Y0029724D01*
X0091587Y0029753D01*
X0091716Y0029779D01*
X0091845Y0029800D01*
X0091976Y0029818D01*
X0092106Y0029832D01*
X0092237Y0029842D01*
X0092369Y0029848D01*
X0092500Y0029850D01*
X0092631Y0029848D01*
X0092763Y0029842D01*
X0092894Y0029832D01*
X0093024Y0029818D01*
X0093155Y0029800D01*
X0093284Y0029779D01*
X0093413Y0029753D01*
X0093541Y0029724D01*
X0093668Y0029690D01*
X0093794Y0029653D01*
X0093919Y0029612D01*
X0094043Y0029567D01*
X0094165Y0029519D01*
X0094285Y0029467D01*
X0094404Y0029411D01*
X0094522Y0029352D01*
X0094637Y0029289D01*
X0094750Y0029223D01*
X0094862Y0029153D01*
X0094971Y0029080D01*
X0095078Y0029004D01*
X0095183Y0028924D01*
X0095285Y0028842D01*
X0095385Y0028756D01*
X0095482Y0028667D01*
X0095576Y0028576D01*
X0095667Y0028482D01*
X0095756Y0028385D01*
X0095842Y0028285D01*
X0095924Y0028183D01*
X0096004Y0028078D01*
X0096080Y0027971D01*
X0096153Y0027862D01*
X0096223Y0027750D01*
X0096289Y0027637D01*
X0096352Y0027522D01*
X0096411Y0027404D01*
X0096467Y0027285D01*
X0096519Y0027165D01*
X0096567Y0027043D01*
X0096612Y0026919D01*
X0096653Y0026794D01*
X0096690Y0026668D01*
X0096724Y0026541D01*
X0096753Y0026413D01*
X0096779Y0026284D01*
X0096800Y0026155D01*
X0096818Y0026024D01*
X0096832Y0025894D01*
X0096842Y0025763D01*
X0096848Y0025631D01*
X0096850Y0025500D01*
X0096848Y0025369D01*
X0096842Y0025237D01*
X0096832Y0025106D01*
X0096818Y0024976D01*
X0096800Y0024845D01*
X0096779Y0024716D01*
X0096753Y0024587D01*
X0096724Y0024459D01*
X0096690Y0024332D01*
X0096653Y0024206D01*
X0096612Y0024081D01*
X0096567Y0023957D01*
X0096519Y0023835D01*
X0096467Y0023715D01*
X0096411Y0023596D01*
X0096352Y0023478D01*
X0096289Y0023363D01*
X0096223Y0023250D01*
X0096153Y0023138D01*
X0096080Y0023029D01*
X0096004Y0022922D01*
X0095924Y0022817D01*
X0095842Y0022715D01*
X0095756Y0022615D01*
X0095667Y0022518D01*
X0095576Y0022424D01*
X0095482Y0022333D01*
X0095385Y0022244D01*
X0095285Y0022158D01*
X0095183Y0022076D01*
X0095078Y0021996D01*
X0094971Y0021920D01*
X0094862Y0021847D01*
X0094750Y0021777D01*
X0094637Y0021711D01*
X0094522Y0021648D01*
X0094404Y0021589D01*
X0094285Y0021533D01*
X0094165Y0021481D01*
X0094043Y0021433D01*
X0093919Y0021388D01*
X0093794Y0021347D01*
X0093668Y0021310D01*
X0093541Y0021276D01*
X0093413Y0021247D01*
X0093284Y0021221D01*
X0093155Y0021200D01*
X0093024Y0021182D01*
X0092894Y0021168D01*
X0092763Y0021158D01*
X0092631Y0021152D01*
X0092500Y0021150D01*
X0092369Y0021152D01*
X0092237Y0021158D01*
X0092106Y0021168D01*
X0091976Y0021182D01*
X0091845Y0021200D01*
X0091716Y0021221D01*
X0091587Y0021247D01*
X0091459Y0021276D01*
X0091332Y0021310D01*
X0091206Y0021347D01*
X0091081Y0021388D01*
X0090957Y0021433D01*
X0090835Y0021481D01*
X0090715Y0021533D01*
X0090596Y0021589D01*
X0090478Y0021648D01*
X0090363Y0021711D01*
X0090250Y0021777D01*
X0090138Y0021847D01*
X0090029Y0021920D01*
X0089922Y0021996D01*
X0089817Y0022076D01*
X0089715Y0022158D01*
X0089615Y0022244D01*
X0089518Y0022333D01*
X0089424Y0022424D01*
X0089333Y0022518D01*
X0089244Y0022615D01*
X0089158Y0022715D01*
X0089076Y0022817D01*
X0088996Y0022922D01*
X0088920Y0023029D01*
X0088847Y0023138D01*
X0088777Y0023250D01*
X0088711Y0023363D01*
X0088648Y0023478D01*
X0088589Y0023596D01*
X0088533Y0023715D01*
X0088481Y0023835D01*
X0088433Y0023957D01*
X0088388Y0024081D01*
X0088347Y0024206D01*
X0088310Y0024332D01*
X0088276Y0024459D01*
X0088247Y0024587D01*
X0088221Y0024716D01*
X0088200Y0024845D01*
X0088182Y0024976D01*
X0088168Y0025106D01*
X0088158Y0025237D01*
X0088152Y0025369D01*
X0088150Y0025500D01*
X0088150Y0087500D02*
X0088152Y0087631D01*
X0088158Y0087763D01*
X0088168Y0087894D01*
X0088182Y0088024D01*
X0088200Y0088155D01*
X0088221Y0088284D01*
X0088247Y0088413D01*
X0088276Y0088541D01*
X0088310Y0088668D01*
X0088347Y0088794D01*
X0088388Y0088919D01*
X0088433Y0089043D01*
X0088481Y0089165D01*
X0088533Y0089285D01*
X0088589Y0089404D01*
X0088648Y0089522D01*
X0088711Y0089637D01*
X0088777Y0089750D01*
X0088847Y0089862D01*
X0088920Y0089971D01*
X0088996Y0090078D01*
X0089076Y0090183D01*
X0089158Y0090285D01*
X0089244Y0090385D01*
X0089333Y0090482D01*
X0089424Y0090576D01*
X0089518Y0090667D01*
X0089615Y0090756D01*
X0089715Y0090842D01*
X0089817Y0090924D01*
X0089922Y0091004D01*
X0090029Y0091080D01*
X0090138Y0091153D01*
X0090250Y0091223D01*
X0090363Y0091289D01*
X0090478Y0091352D01*
X0090596Y0091411D01*
X0090715Y0091467D01*
X0090835Y0091519D01*
X0090957Y0091567D01*
X0091081Y0091612D01*
X0091206Y0091653D01*
X0091332Y0091690D01*
X0091459Y0091724D01*
X0091587Y0091753D01*
X0091716Y0091779D01*
X0091845Y0091800D01*
X0091976Y0091818D01*
X0092106Y0091832D01*
X0092237Y0091842D01*
X0092369Y0091848D01*
X0092500Y0091850D01*
X0092631Y0091848D01*
X0092763Y0091842D01*
X0092894Y0091832D01*
X0093024Y0091818D01*
X0093155Y0091800D01*
X0093284Y0091779D01*
X0093413Y0091753D01*
X0093541Y0091724D01*
X0093668Y0091690D01*
X0093794Y0091653D01*
X0093919Y0091612D01*
X0094043Y0091567D01*
X0094165Y0091519D01*
X0094285Y0091467D01*
X0094404Y0091411D01*
X0094522Y0091352D01*
X0094637Y0091289D01*
X0094750Y0091223D01*
X0094862Y0091153D01*
X0094971Y0091080D01*
X0095078Y0091004D01*
X0095183Y0090924D01*
X0095285Y0090842D01*
X0095385Y0090756D01*
X0095482Y0090667D01*
X0095576Y0090576D01*
X0095667Y0090482D01*
X0095756Y0090385D01*
X0095842Y0090285D01*
X0095924Y0090183D01*
X0096004Y0090078D01*
X0096080Y0089971D01*
X0096153Y0089862D01*
X0096223Y0089750D01*
X0096289Y0089637D01*
X0096352Y0089522D01*
X0096411Y0089404D01*
X0096467Y0089285D01*
X0096519Y0089165D01*
X0096567Y0089043D01*
X0096612Y0088919D01*
X0096653Y0088794D01*
X0096690Y0088668D01*
X0096724Y0088541D01*
X0096753Y0088413D01*
X0096779Y0088284D01*
X0096800Y0088155D01*
X0096818Y0088024D01*
X0096832Y0087894D01*
X0096842Y0087763D01*
X0096848Y0087631D01*
X0096850Y0087500D01*
X0096848Y0087369D01*
X0096842Y0087237D01*
X0096832Y0087106D01*
X0096818Y0086976D01*
X0096800Y0086845D01*
X0096779Y0086716D01*
X0096753Y0086587D01*
X0096724Y0086459D01*
X0096690Y0086332D01*
X0096653Y0086206D01*
X0096612Y0086081D01*
X0096567Y0085957D01*
X0096519Y0085835D01*
X0096467Y0085715D01*
X0096411Y0085596D01*
X0096352Y0085478D01*
X0096289Y0085363D01*
X0096223Y0085250D01*
X0096153Y0085138D01*
X0096080Y0085029D01*
X0096004Y0084922D01*
X0095924Y0084817D01*
X0095842Y0084715D01*
X0095756Y0084615D01*
X0095667Y0084518D01*
X0095576Y0084424D01*
X0095482Y0084333D01*
X0095385Y0084244D01*
X0095285Y0084158D01*
X0095183Y0084076D01*
X0095078Y0083996D01*
X0094971Y0083920D01*
X0094862Y0083847D01*
X0094750Y0083777D01*
X0094637Y0083711D01*
X0094522Y0083648D01*
X0094404Y0083589D01*
X0094285Y0083533D01*
X0094165Y0083481D01*
X0094043Y0083433D01*
X0093919Y0083388D01*
X0093794Y0083347D01*
X0093668Y0083310D01*
X0093541Y0083276D01*
X0093413Y0083247D01*
X0093284Y0083221D01*
X0093155Y0083200D01*
X0093024Y0083182D01*
X0092894Y0083168D01*
X0092763Y0083158D01*
X0092631Y0083152D01*
X0092500Y0083150D01*
X0092369Y0083152D01*
X0092237Y0083158D01*
X0092106Y0083168D01*
X0091976Y0083182D01*
X0091845Y0083200D01*
X0091716Y0083221D01*
X0091587Y0083247D01*
X0091459Y0083276D01*
X0091332Y0083310D01*
X0091206Y0083347D01*
X0091081Y0083388D01*
X0090957Y0083433D01*
X0090835Y0083481D01*
X0090715Y0083533D01*
X0090596Y0083589D01*
X0090478Y0083648D01*
X0090363Y0083711D01*
X0090250Y0083777D01*
X0090138Y0083847D01*
X0090029Y0083920D01*
X0089922Y0083996D01*
X0089817Y0084076D01*
X0089715Y0084158D01*
X0089615Y0084244D01*
X0089518Y0084333D01*
X0089424Y0084424D01*
X0089333Y0084518D01*
X0089244Y0084615D01*
X0089158Y0084715D01*
X0089076Y0084817D01*
X0088996Y0084922D01*
X0088920Y0085029D01*
X0088847Y0085138D01*
X0088777Y0085250D01*
X0088711Y0085363D01*
X0088648Y0085478D01*
X0088589Y0085596D01*
X0088533Y0085715D01*
X0088481Y0085835D01*
X0088433Y0085957D01*
X0088388Y0086081D01*
X0088347Y0086206D01*
X0088310Y0086332D01*
X0088276Y0086459D01*
X0088247Y0086587D01*
X0088221Y0086716D01*
X0088200Y0086845D01*
X0088182Y0086976D01*
X0088168Y0087106D01*
X0088158Y0087237D01*
X0088152Y0087369D01*
X0088150Y0087500D01*
X0026150Y0087500D02*
X0026152Y0087631D01*
X0026158Y0087763D01*
X0026168Y0087894D01*
X0026182Y0088024D01*
X0026200Y0088155D01*
X0026221Y0088284D01*
X0026247Y0088413D01*
X0026276Y0088541D01*
X0026310Y0088668D01*
X0026347Y0088794D01*
X0026388Y0088919D01*
X0026433Y0089043D01*
X0026481Y0089165D01*
X0026533Y0089285D01*
X0026589Y0089404D01*
X0026648Y0089522D01*
X0026711Y0089637D01*
X0026777Y0089750D01*
X0026847Y0089862D01*
X0026920Y0089971D01*
X0026996Y0090078D01*
X0027076Y0090183D01*
X0027158Y0090285D01*
X0027244Y0090385D01*
X0027333Y0090482D01*
X0027424Y0090576D01*
X0027518Y0090667D01*
X0027615Y0090756D01*
X0027715Y0090842D01*
X0027817Y0090924D01*
X0027922Y0091004D01*
X0028029Y0091080D01*
X0028138Y0091153D01*
X0028250Y0091223D01*
X0028363Y0091289D01*
X0028478Y0091352D01*
X0028596Y0091411D01*
X0028715Y0091467D01*
X0028835Y0091519D01*
X0028957Y0091567D01*
X0029081Y0091612D01*
X0029206Y0091653D01*
X0029332Y0091690D01*
X0029459Y0091724D01*
X0029587Y0091753D01*
X0029716Y0091779D01*
X0029845Y0091800D01*
X0029976Y0091818D01*
X0030106Y0091832D01*
X0030237Y0091842D01*
X0030369Y0091848D01*
X0030500Y0091850D01*
X0030631Y0091848D01*
X0030763Y0091842D01*
X0030894Y0091832D01*
X0031024Y0091818D01*
X0031155Y0091800D01*
X0031284Y0091779D01*
X0031413Y0091753D01*
X0031541Y0091724D01*
X0031668Y0091690D01*
X0031794Y0091653D01*
X0031919Y0091612D01*
X0032043Y0091567D01*
X0032165Y0091519D01*
X0032285Y0091467D01*
X0032404Y0091411D01*
X0032522Y0091352D01*
X0032637Y0091289D01*
X0032750Y0091223D01*
X0032862Y0091153D01*
X0032971Y0091080D01*
X0033078Y0091004D01*
X0033183Y0090924D01*
X0033285Y0090842D01*
X0033385Y0090756D01*
X0033482Y0090667D01*
X0033576Y0090576D01*
X0033667Y0090482D01*
X0033756Y0090385D01*
X0033842Y0090285D01*
X0033924Y0090183D01*
X0034004Y0090078D01*
X0034080Y0089971D01*
X0034153Y0089862D01*
X0034223Y0089750D01*
X0034289Y0089637D01*
X0034352Y0089522D01*
X0034411Y0089404D01*
X0034467Y0089285D01*
X0034519Y0089165D01*
X0034567Y0089043D01*
X0034612Y0088919D01*
X0034653Y0088794D01*
X0034690Y0088668D01*
X0034724Y0088541D01*
X0034753Y0088413D01*
X0034779Y0088284D01*
X0034800Y0088155D01*
X0034818Y0088024D01*
X0034832Y0087894D01*
X0034842Y0087763D01*
X0034848Y0087631D01*
X0034850Y0087500D01*
X0034848Y0087369D01*
X0034842Y0087237D01*
X0034832Y0087106D01*
X0034818Y0086976D01*
X0034800Y0086845D01*
X0034779Y0086716D01*
X0034753Y0086587D01*
X0034724Y0086459D01*
X0034690Y0086332D01*
X0034653Y0086206D01*
X0034612Y0086081D01*
X0034567Y0085957D01*
X0034519Y0085835D01*
X0034467Y0085715D01*
X0034411Y0085596D01*
X0034352Y0085478D01*
X0034289Y0085363D01*
X0034223Y0085250D01*
X0034153Y0085138D01*
X0034080Y0085029D01*
X0034004Y0084922D01*
X0033924Y0084817D01*
X0033842Y0084715D01*
X0033756Y0084615D01*
X0033667Y0084518D01*
X0033576Y0084424D01*
X0033482Y0084333D01*
X0033385Y0084244D01*
X0033285Y0084158D01*
X0033183Y0084076D01*
X0033078Y0083996D01*
X0032971Y0083920D01*
X0032862Y0083847D01*
X0032750Y0083777D01*
X0032637Y0083711D01*
X0032522Y0083648D01*
X0032404Y0083589D01*
X0032285Y0083533D01*
X0032165Y0083481D01*
X0032043Y0083433D01*
X0031919Y0083388D01*
X0031794Y0083347D01*
X0031668Y0083310D01*
X0031541Y0083276D01*
X0031413Y0083247D01*
X0031284Y0083221D01*
X0031155Y0083200D01*
X0031024Y0083182D01*
X0030894Y0083168D01*
X0030763Y0083158D01*
X0030631Y0083152D01*
X0030500Y0083150D01*
X0030369Y0083152D01*
X0030237Y0083158D01*
X0030106Y0083168D01*
X0029976Y0083182D01*
X0029845Y0083200D01*
X0029716Y0083221D01*
X0029587Y0083247D01*
X0029459Y0083276D01*
X0029332Y0083310D01*
X0029206Y0083347D01*
X0029081Y0083388D01*
X0028957Y0083433D01*
X0028835Y0083481D01*
X0028715Y0083533D01*
X0028596Y0083589D01*
X0028478Y0083648D01*
X0028363Y0083711D01*
X0028250Y0083777D01*
X0028138Y0083847D01*
X0028029Y0083920D01*
X0027922Y0083996D01*
X0027817Y0084076D01*
X0027715Y0084158D01*
X0027615Y0084244D01*
X0027518Y0084333D01*
X0027424Y0084424D01*
X0027333Y0084518D01*
X0027244Y0084615D01*
X0027158Y0084715D01*
X0027076Y0084817D01*
X0026996Y0084922D01*
X0026920Y0085029D01*
X0026847Y0085138D01*
X0026777Y0085250D01*
X0026711Y0085363D01*
X0026648Y0085478D01*
X0026589Y0085596D01*
X0026533Y0085715D01*
X0026481Y0085835D01*
X0026433Y0085957D01*
X0026388Y0086081D01*
X0026347Y0086206D01*
X0026310Y0086332D01*
X0026276Y0086459D01*
X0026247Y0086587D01*
X0026221Y0086716D01*
X0026200Y0086845D01*
X0026182Y0086976D01*
X0026168Y0087106D01*
X0026158Y0087237D01*
X0026152Y0087369D01*
X0026150Y0087500D01*
D11*
X0024150Y0087167D02*
X0024150Y0086237D01*
X0025117Y0083903D01*
X0026903Y0082117D01*
X0029237Y0081150D01*
X0031763Y0081150D01*
X0034097Y0082117D01*
X0035883Y0083903D01*
X0036850Y0086237D01*
X0036850Y0088763D01*
X0035883Y0091097D01*
X0034097Y0092883D01*
X0031763Y0093850D01*
X0030792Y0093850D01*
X0032660Y0095494D01*
X0039665Y0099807D01*
X0047298Y0102874D01*
X0055340Y0104607D01*
X0063558Y0104956D01*
X0071718Y0103911D01*
X0079584Y0101503D01*
X0086929Y0097799D01*
X0092269Y0093850D01*
X0091237Y0093850D01*
X0088903Y0092883D01*
X0087117Y0091097D01*
X0086150Y0088763D01*
X0086150Y0086237D01*
X0087117Y0083903D01*
X0088903Y0082117D01*
X0091237Y0081150D01*
X0093763Y0081150D01*
X0096097Y0082117D01*
X0097883Y0083903D01*
X0098850Y0086237D01*
X0098850Y0087370D01*
X0099235Y0086969D01*
X0103841Y0080153D01*
X0107230Y0072657D01*
X0109302Y0064697D01*
X0110000Y0056500D01*
X0109302Y0048303D01*
X0107230Y0040343D01*
X0103841Y0032847D01*
X0099235Y0026031D01*
X0098850Y0025630D01*
X0098850Y0026763D01*
X0097883Y0029097D01*
X0096097Y0030883D01*
X0093763Y0031850D01*
X0091237Y0031850D01*
X0088903Y0030883D01*
X0087117Y0029097D01*
X0086150Y0026763D01*
X0086150Y0024237D01*
X0087117Y0021903D01*
X0088903Y0020117D01*
X0091237Y0019150D01*
X0092269Y0019150D01*
X0086929Y0015201D01*
X0079584Y0011497D01*
X0071718Y0009089D01*
X0063558Y0008044D01*
X0055340Y0008393D01*
X0047298Y0010126D01*
X0039665Y0013193D01*
X0032660Y0017506D01*
X0030792Y0019150D01*
X0031763Y0019150D01*
X0034097Y0020117D01*
X0035883Y0021903D01*
X0036850Y0024237D01*
X0036850Y0026763D01*
X0035883Y0029097D01*
X0034097Y0030883D01*
X0031763Y0031850D01*
X0029237Y0031850D01*
X0026903Y0030883D01*
X0025117Y0029097D01*
X0024150Y0026763D01*
X0024150Y0025833D01*
X0021317Y0029341D01*
X0017305Y0036523D01*
X0014565Y0044279D01*
X0013175Y0052387D01*
X0013175Y0060613D01*
X0014565Y0068721D01*
X0017305Y0076477D01*
X0021317Y0083659D01*
X0024150Y0087167D01*
X0024150Y0086381D02*
X0023515Y0086381D01*
X0022709Y0085382D02*
X0024504Y0085382D01*
X0024918Y0084384D02*
X0021903Y0084384D01*
X0021165Y0083385D02*
X0025634Y0083385D01*
X0026633Y0082387D02*
X0020607Y0082387D01*
X0020049Y0081388D02*
X0028661Y0081388D01*
X0032339Y0081388D02*
X0054475Y0081388D01*
X0054475Y0081853D02*
X0054475Y0073250D01*
X0052777Y0073250D01*
X0052132Y0072605D01*
X0052132Y0067237D01*
X0051545Y0066650D01*
X0045048Y0066650D01*
X0041249Y0070449D01*
X0039397Y0071216D01*
X0037394Y0071216D01*
X0035542Y0070449D01*
X0034125Y0069033D01*
X0033358Y0067181D01*
X0033358Y0065177D01*
X0034125Y0063326D01*
X0038326Y0059125D01*
X0040177Y0058358D01*
X0042181Y0058358D01*
X0044033Y0059125D01*
X0045449Y0060542D01*
X0046216Y0062394D01*
X0046216Y0063850D01*
X0052705Y0063850D01*
X0053525Y0064670D01*
X0053605Y0064750D01*
X0059200Y0064750D01*
X0059844Y0065395D01*
X0059844Y0072605D01*
X0059200Y0073250D01*
X0057275Y0073250D01*
X0057275Y0081915D01*
X0058519Y0082431D01*
X0059869Y0083781D01*
X0060600Y0085545D01*
X0060600Y0087455D01*
X0059869Y0089219D01*
X0058519Y0090569D01*
X0056755Y0091300D01*
X0054845Y0091300D01*
X0053081Y0090569D01*
X0051731Y0089219D01*
X0051000Y0087455D01*
X0051000Y0085545D01*
X0051731Y0083781D01*
X0053081Y0082431D01*
X0054475Y0081853D01*
X0053187Y0082387D02*
X0034367Y0082387D01*
X0035366Y0083385D02*
X0052126Y0083385D01*
X0051481Y0084384D02*
X0036082Y0084384D01*
X0036496Y0085382D02*
X0051067Y0085382D01*
X0051000Y0086381D02*
X0036850Y0086381D01*
X0036850Y0087379D02*
X0051000Y0087379D01*
X0051382Y0088378D02*
X0036850Y0088378D01*
X0036596Y0089376D02*
X0051888Y0089376D01*
X0052887Y0090375D02*
X0036182Y0090375D01*
X0035607Y0091373D02*
X0065371Y0091373D01*
X0065204Y0091319D02*
X0064475Y0090947D01*
X0063812Y0090466D01*
X0063234Y0089888D01*
X0062753Y0089225D01*
X0062381Y0088496D01*
X0062128Y0087718D01*
X0062014Y0087000D01*
X0066700Y0087000D01*
X0066700Y0091686D01*
X0065982Y0091572D01*
X0065204Y0091319D01*
X0066700Y0091373D02*
X0067700Y0091373D01*
X0067700Y0091686D02*
X0067700Y0087000D01*
X0066700Y0087000D01*
X0066700Y0086000D01*
X0062014Y0086000D01*
X0062128Y0085282D01*
X0062381Y0084504D01*
X0062753Y0083775D01*
X0063234Y0083112D01*
X0063812Y0082534D01*
X0064475Y0082053D01*
X0065204Y0081681D01*
X0065982Y0081428D01*
X0066700Y0081314D01*
X0066700Y0086000D01*
X0067700Y0086000D01*
X0067700Y0087000D01*
X0072386Y0087000D01*
X0072272Y0087718D01*
X0072019Y0088496D01*
X0071647Y0089225D01*
X0071166Y0089888D01*
X0070588Y0090466D01*
X0069925Y0090947D01*
X0069196Y0091319D01*
X0068418Y0091572D01*
X0067700Y0091686D01*
X0069029Y0091373D02*
X0087393Y0091373D01*
X0086818Y0090375D02*
X0070679Y0090375D01*
X0071538Y0089376D02*
X0086404Y0089376D01*
X0086150Y0088378D02*
X0072057Y0088378D01*
X0072326Y0087379D02*
X0086150Y0087379D01*
X0086150Y0086381D02*
X0067700Y0086381D01*
X0067700Y0086000D02*
X0072386Y0086000D01*
X0072272Y0085282D01*
X0072019Y0084504D01*
X0071647Y0083775D01*
X0071166Y0083112D01*
X0070588Y0082534D01*
X0069925Y0082053D01*
X0069196Y0081681D01*
X0068418Y0081428D01*
X0067700Y0081314D01*
X0067700Y0086000D01*
X0067700Y0085382D02*
X0066700Y0085382D01*
X0066700Y0084384D02*
X0067700Y0084384D01*
X0067700Y0083385D02*
X0066700Y0083385D01*
X0066700Y0082387D02*
X0067700Y0082387D01*
X0067700Y0081388D02*
X0066700Y0081388D01*
X0066233Y0081388D02*
X0057275Y0081388D01*
X0057275Y0080390D02*
X0103681Y0080390D01*
X0104186Y0079391D02*
X0057275Y0079391D01*
X0057275Y0078393D02*
X0104637Y0078393D01*
X0105088Y0077394D02*
X0057275Y0077394D01*
X0057275Y0076396D02*
X0105540Y0076396D01*
X0105991Y0075397D02*
X0086040Y0075397D01*
X0086121Y0075350D02*
X0085779Y0075548D01*
X0085397Y0075650D01*
X0084100Y0075650D01*
X0084100Y0069900D01*
X0083900Y0069900D01*
X0083900Y0075650D01*
X0082603Y0075650D01*
X0082221Y0075548D01*
X0081879Y0075350D01*
X0081600Y0075071D01*
X0081402Y0074729D01*
X0081300Y0074347D01*
X0081300Y0069900D01*
X0083900Y0069900D01*
X0083900Y0069700D01*
X0081300Y0069700D01*
X0081300Y0065400D01*
X0072795Y0065400D01*
X0071975Y0064580D01*
X0071975Y0064580D01*
X0067357Y0059962D01*
X0062816Y0059962D01*
X0062172Y0059318D01*
X0062172Y0053682D01*
X0062816Y0053038D01*
X0068452Y0053038D01*
X0069096Y0053682D01*
X0069096Y0057741D01*
X0073955Y0062600D01*
X0095830Y0062600D01*
X0097580Y0064350D01*
X0100656Y0064350D01*
X0101300Y0064994D01*
X0101300Y0074606D01*
X0100656Y0075250D01*
X0097344Y0075250D01*
X0096700Y0074606D01*
X0096700Y0067430D01*
X0096300Y0067030D01*
X0096300Y0074606D01*
X0095656Y0075250D01*
X0092344Y0075250D01*
X0091700Y0074606D01*
X0091700Y0065400D01*
X0091300Y0065400D01*
X0091300Y0074606D01*
X0090656Y0075250D01*
X0087344Y0075250D01*
X0086700Y0074606D01*
X0086700Y0065400D01*
X0086700Y0069700D01*
X0084100Y0069700D01*
X0084100Y0069900D01*
X0086700Y0069900D01*
X0086700Y0074347D01*
X0086598Y0074729D01*
X0086400Y0075071D01*
X0086121Y0075350D01*
X0086686Y0074399D02*
X0086700Y0074399D01*
X0086700Y0073400D02*
X0086700Y0073400D01*
X0086700Y0072402D02*
X0086700Y0072402D01*
X0086700Y0071403D02*
X0086700Y0071403D01*
X0086700Y0070405D02*
X0086700Y0070405D01*
X0086700Y0069406D02*
X0086700Y0069406D01*
X0086700Y0068408D02*
X0086700Y0068408D01*
X0086700Y0067409D02*
X0086700Y0067409D01*
X0086700Y0066411D02*
X0086700Y0066411D01*
X0086700Y0065412D02*
X0086700Y0065412D01*
X0086700Y0065400D02*
X0086700Y0065400D01*
X0091300Y0065412D02*
X0091700Y0065412D01*
X0091700Y0066411D02*
X0091300Y0066411D01*
X0091300Y0067409D02*
X0091700Y0067409D01*
X0091700Y0068408D02*
X0091300Y0068408D01*
X0091300Y0069406D02*
X0091700Y0069406D01*
X0091700Y0070405D02*
X0091300Y0070405D01*
X0091300Y0071403D02*
X0091700Y0071403D01*
X0091700Y0072402D02*
X0091300Y0072402D01*
X0091300Y0073400D02*
X0091700Y0073400D01*
X0091700Y0074399D02*
X0091300Y0074399D01*
X0096300Y0074399D02*
X0096700Y0074399D01*
X0096700Y0073400D02*
X0096300Y0073400D01*
X0096300Y0072402D02*
X0096700Y0072402D01*
X0096700Y0071403D02*
X0096300Y0071403D01*
X0096300Y0070405D02*
X0096700Y0070405D01*
X0096700Y0069406D02*
X0096300Y0069406D01*
X0096300Y0068408D02*
X0096700Y0068408D01*
X0096679Y0067409D02*
X0096300Y0067409D01*
X0096645Y0063415D02*
X0109411Y0063415D01*
X0109496Y0062417D02*
X0073772Y0062417D01*
X0072773Y0061418D02*
X0109581Y0061418D01*
X0109666Y0060420D02*
X0071774Y0060420D01*
X0070776Y0059421D02*
X0109751Y0059421D01*
X0109836Y0058423D02*
X0069777Y0058423D01*
X0069096Y0057424D02*
X0086459Y0057424D01*
X0086310Y0057275D02*
X0085920Y0057275D01*
X0085100Y0056455D01*
X0085100Y0048750D01*
X0082344Y0048750D01*
X0081700Y0048106D01*
X0081700Y0038494D01*
X0082344Y0037850D01*
X0085100Y0037850D01*
X0085100Y0035205D01*
X0076200Y0026305D01*
X0076200Y0026356D01*
X0076056Y0026500D01*
X0076200Y0026644D01*
X0076200Y0028479D01*
X0076300Y0028579D01*
X0076498Y0028921D01*
X0076600Y0029303D01*
X0076600Y0030200D01*
X0076600Y0031097D01*
X0076498Y0031479D01*
X0076486Y0031500D01*
X0076498Y0031521D01*
X0076600Y0031903D01*
X0076600Y0032800D01*
X0076600Y0033697D01*
X0076498Y0034079D01*
X0076300Y0034421D01*
X0076021Y0034700D01*
X0075679Y0034898D01*
X0075297Y0035000D01*
X0071200Y0035000D01*
X0071200Y0032800D01*
X0071200Y0032800D01*
X0076600Y0032800D01*
X0071200Y0032800D01*
X0071200Y0032800D01*
X0071200Y0035000D01*
X0067103Y0035000D01*
X0066721Y0034898D01*
X0066379Y0034700D01*
X0066100Y0034421D01*
X0065902Y0034079D01*
X0065902Y0034078D01*
X0043955Y0056025D01*
X0038325Y0056025D01*
X0038325Y0056362D01*
X0037952Y0057263D01*
X0037263Y0057952D01*
X0036362Y0058325D01*
X0035388Y0058325D01*
X0034487Y0057952D01*
X0033798Y0057263D01*
X0033425Y0056362D01*
X0033425Y0055388D01*
X0033798Y0054487D01*
X0034487Y0053798D01*
X0035388Y0053425D01*
X0036345Y0053425D01*
X0036545Y0053225D01*
X0037676Y0053225D01*
X0034226Y0049775D01*
X0033330Y0049775D01*
X0030825Y0052280D01*
X0030825Y0053237D01*
X0030452Y0054138D01*
X0029763Y0054827D01*
X0028862Y0055200D01*
X0027888Y0055200D01*
X0026987Y0054827D01*
X0026298Y0054138D01*
X0025925Y0053237D01*
X0025925Y0053189D01*
X0025363Y0053752D01*
X0024670Y0054255D01*
X0023908Y0054643D01*
X0023094Y0054908D01*
X0022249Y0055042D01*
X0021393Y0055042D01*
X0020547Y0054908D01*
X0019734Y0054643D01*
X0018971Y0054255D01*
X0018338Y0053795D01*
X0023213Y0048920D01*
X0022505Y0048213D01*
X0017631Y0053087D01*
X0017171Y0052454D01*
X0016782Y0051692D01*
X0016518Y0050878D01*
X0016384Y0050032D01*
X0016384Y0049177D01*
X0016518Y0048331D01*
X0016782Y0047517D01*
X0017171Y0046755D01*
X0017674Y0046063D01*
X0019015Y0044722D01*
X0022505Y0048213D01*
X0023213Y0047505D01*
X0023920Y0048213D01*
X0028795Y0043338D01*
X0029255Y0043971D01*
X0029643Y0044734D01*
X0029908Y0045547D01*
X0030042Y0046393D01*
X0030042Y0047249D01*
X0029908Y0048094D01*
X0029643Y0048908D01*
X0029255Y0049670D01*
X0028797Y0050300D01*
X0028845Y0050300D01*
X0031350Y0047795D01*
X0032170Y0046975D01*
X0033358Y0046975D01*
X0033358Y0045819D01*
X0033615Y0045200D01*
X0033513Y0045200D01*
X0032612Y0044827D01*
X0031923Y0044138D01*
X0031550Y0043237D01*
X0031550Y0042263D01*
X0031923Y0041362D01*
X0032612Y0040673D01*
X0033513Y0040300D01*
X0034470Y0040300D01*
X0040725Y0034045D01*
X0041545Y0033225D01*
X0046400Y0033225D01*
X0046400Y0032800D01*
X0051800Y0032800D01*
X0057200Y0032800D01*
X0057200Y0033195D01*
X0065725Y0024670D01*
X0066200Y0024195D01*
X0066200Y0024044D01*
X0066244Y0024000D01*
X0066200Y0023956D01*
X0066200Y0023180D01*
X0065295Y0022275D01*
X0056800Y0022275D01*
X0056800Y0023956D01*
X0056756Y0024000D01*
X0056800Y0024044D01*
X0056800Y0026356D01*
X0056656Y0026500D01*
X0056800Y0026644D01*
X0056800Y0028956D01*
X0056756Y0029000D01*
X0056800Y0029044D01*
X0056800Y0031079D01*
X0056900Y0031179D01*
X0057098Y0031521D01*
X0057200Y0031903D01*
X0057200Y0032800D01*
X0051800Y0032800D01*
X0051800Y0032800D01*
X0051800Y0032800D01*
X0046400Y0032800D01*
X0046400Y0032275D01*
X0044045Y0032275D01*
X0042795Y0031025D01*
X0041975Y0030205D01*
X0041975Y0012795D01*
X0042795Y0011975D01*
X0061455Y0011975D01*
X0065881Y0016402D01*
X0065800Y0016097D01*
X0065800Y0015200D01*
X0071200Y0015200D01*
X0076600Y0015200D01*
X0076600Y0016097D01*
X0076498Y0016479D01*
X0076486Y0016500D01*
X0076498Y0016521D01*
X0076600Y0016903D01*
X0076600Y0017800D01*
X0076600Y0018697D01*
X0076498Y0019079D01*
X0076300Y0019421D01*
X0076200Y0019521D01*
X0076200Y0019845D01*
X0085848Y0029494D01*
X0085875Y0029494D01*
X0086256Y0029901D01*
X0086650Y0030295D01*
X0086650Y0030321D01*
X0090006Y0033901D01*
X0090400Y0034295D01*
X0090400Y0034321D01*
X0090418Y0034341D01*
X0090414Y0034450D01*
X0091077Y0035112D01*
X0091450Y0036013D01*
X0091450Y0036987D01*
X0091077Y0037888D01*
X0090885Y0038080D01*
X0091300Y0038494D01*
X0091300Y0048106D01*
X0090656Y0048750D01*
X0087900Y0048750D01*
X0087900Y0053425D01*
X0088845Y0053425D01*
X0093520Y0048750D01*
X0092344Y0048750D01*
X0091700Y0048106D01*
X0091700Y0038494D01*
X0092344Y0037850D01*
X0095656Y0037850D01*
X0096300Y0038494D01*
X0096300Y0045970D01*
X0096700Y0045570D01*
X0096700Y0038494D01*
X0097344Y0037850D01*
X0100656Y0037850D01*
X0101300Y0038494D01*
X0101300Y0048106D01*
X0100656Y0048750D01*
X0097480Y0048750D01*
X0090825Y0055405D01*
X0090825Y0056362D01*
X0090452Y0057263D01*
X0089763Y0057952D01*
X0088862Y0058325D01*
X0087888Y0058325D01*
X0086987Y0057952D01*
X0086310Y0057275D01*
X0085100Y0056426D02*
X0069096Y0056426D01*
X0069096Y0055427D02*
X0085100Y0055427D01*
X0085100Y0054429D02*
X0069096Y0054429D01*
X0068844Y0053430D02*
X0085100Y0053430D01*
X0085100Y0052432D02*
X0047548Y0052432D01*
X0046550Y0053430D02*
X0053681Y0053430D01*
X0053606Y0053559D02*
X0053804Y0053217D01*
X0054083Y0052937D01*
X0054425Y0052740D01*
X0054806Y0052638D01*
X0056866Y0052638D01*
X0056866Y0056000D01*
X0053504Y0056000D01*
X0053504Y0053940D01*
X0053606Y0053559D01*
X0053504Y0054429D02*
X0045551Y0054429D01*
X0044553Y0055427D02*
X0053504Y0055427D01*
X0053504Y0057000D02*
X0053504Y0059060D01*
X0053606Y0059441D01*
X0053804Y0059783D01*
X0054083Y0060062D01*
X0054425Y0060260D01*
X0054806Y0060362D01*
X0056866Y0060362D01*
X0056866Y0057000D01*
X0056866Y0056000D01*
X0057866Y0056000D01*
X0057866Y0052638D01*
X0059926Y0052638D01*
X0060307Y0052740D01*
X0060649Y0052937D01*
X0060929Y0053217D01*
X0061126Y0053559D01*
X0061228Y0053940D01*
X0061228Y0056000D01*
X0057866Y0056000D01*
X0057866Y0057000D01*
X0056866Y0057000D01*
X0053504Y0057000D01*
X0053504Y0057424D02*
X0037791Y0057424D01*
X0038299Y0056426D02*
X0056866Y0056426D01*
X0056866Y0057424D02*
X0057866Y0057424D01*
X0057866Y0057000D02*
X0057866Y0060362D01*
X0059926Y0060362D01*
X0060307Y0060260D01*
X0060649Y0060062D01*
X0060929Y0059783D01*
X0061126Y0059441D01*
X0061228Y0059060D01*
X0061228Y0057000D01*
X0057866Y0057000D01*
X0057866Y0056426D02*
X0062172Y0056426D01*
X0010500Y0056500D02*
X0010515Y0057752D01*
X0010561Y0059002D01*
X0010638Y0060252D01*
X0010746Y0061499D01*
X0010884Y0062743D01*
X0011052Y0063983D01*
X0011251Y0065219D01*
X0011480Y0066450D01*
X0011739Y0067674D01*
X0012028Y0068892D01*
X0012347Y0070102D01*
X0012696Y0071305D01*
X0013074Y0072498D01*
X0013481Y0073681D01*
X0013917Y0074855D01*
X0014382Y0076017D01*
X0014875Y0077167D01*
X0015397Y0078305D01*
X0015946Y0079430D01*
X0016522Y0080541D01*
X0017126Y0081638D01*
X0017756Y0082719D01*
X0018412Y0083785D01*
X0019095Y0084834D01*
X0019803Y0085866D01*
X0020536Y0086881D01*
X0021294Y0087877D01*
X0022076Y0088854D01*
X0022882Y0089812D01*
X0023711Y0090750D01*
X0024563Y0091667D01*
X0025438Y0092562D01*
X0026333Y0093437D01*
X0027250Y0094289D01*
X0028188Y0095118D01*
X0029146Y0095924D01*
X0030123Y0096706D01*
X0031119Y0097464D01*
X0032134Y0098197D01*
X0033166Y0098905D01*
X0034215Y0099588D01*
X0035281Y0100244D01*
X0036362Y0100874D01*
X0037459Y0101478D01*
X0038570Y0102054D01*
X0039695Y0102603D01*
X0040833Y0103125D01*
X0041983Y0103618D01*
X0043145Y0104083D01*
X0044319Y0104519D01*
X0045502Y0104926D01*
X0046695Y0105304D01*
X0047898Y0105653D01*
X0049108Y0105972D01*
X0050326Y0106261D01*
X0051550Y0106520D01*
X0052781Y0106749D01*
X0054017Y0106948D01*
X0055257Y0107116D01*
X0056501Y0107254D01*
X0057748Y0107362D01*
X0058998Y0107439D01*
X0060248Y0107485D01*
X0061500Y0107500D01*
X0062752Y0107485D01*
X0064002Y0107439D01*
X0065252Y0107362D01*
X0066499Y0107254D01*
X0067743Y0107116D01*
X0068983Y0106948D01*
X0070219Y0106749D01*
X0071450Y0106520D01*
X0072674Y0106261D01*
X0073892Y0105972D01*
X0075102Y0105653D01*
X0076305Y0105304D01*
X0077498Y0104926D01*
X0078681Y0104519D01*
X0079855Y0104083D01*
X0081017Y0103618D01*
X0082167Y0103125D01*
X0083305Y0102603D01*
X0084430Y0102054D01*
X0085541Y0101478D01*
X0086638Y0100874D01*
X0087719Y0100244D01*
X0088785Y0099588D01*
X0089834Y0098905D01*
X0090866Y0098197D01*
X0091881Y0097464D01*
X0092877Y0096706D01*
X0093854Y0095924D01*
X0094812Y0095118D01*
X0095750Y0094289D01*
X0096667Y0093437D01*
X0097562Y0092562D01*
X0098437Y0091667D01*
X0099289Y0090750D01*
X0100118Y0089812D01*
X0100924Y0088854D01*
X0101706Y0087877D01*
X0102464Y0086881D01*
X0103197Y0085866D01*
X0103905Y0084834D01*
X0104588Y0083785D01*
X0105244Y0082719D01*
X0105874Y0081638D01*
X0106478Y0080541D01*
X0107054Y0079430D01*
X0107603Y0078305D01*
X0108125Y0077167D01*
X0108618Y0076017D01*
X0109083Y0074855D01*
X0109519Y0073681D01*
X0109926Y0072498D01*
X0110304Y0071305D01*
X0110653Y0070102D01*
X0110972Y0068892D01*
X0111261Y0067674D01*
X0111520Y0066450D01*
X0111749Y0065219D01*
X0111948Y0063983D01*
X0112116Y0062743D01*
X0112254Y0061499D01*
X0112362Y0060252D01*
X0112439Y0059002D01*
X0112485Y0057752D01*
X0112500Y0056500D01*
X0112485Y0055248D01*
X0112439Y0053998D01*
X0112362Y0052748D01*
X0112254Y0051501D01*
X0112116Y0050257D01*
X0111948Y0049017D01*
X0111749Y0047781D01*
X0111520Y0046550D01*
X0111261Y0045326D01*
X0110972Y0044108D01*
X0110653Y0042898D01*
X0110304Y0041695D01*
X0109926Y0040502D01*
X0109519Y0039319D01*
X0109083Y0038145D01*
X0108618Y0036983D01*
X0108125Y0035833D01*
X0107603Y0034695D01*
X0107054Y0033570D01*
X0106478Y0032459D01*
X0105874Y0031362D01*
X0105244Y0030281D01*
X0104588Y0029215D01*
X0103905Y0028166D01*
X0103197Y0027134D01*
X0102464Y0026119D01*
X0101706Y0025123D01*
X0100924Y0024146D01*
X0100118Y0023188D01*
X0099289Y0022250D01*
X0098437Y0021333D01*
X0097562Y0020438D01*
X0096667Y0019563D01*
X0095750Y0018711D01*
X0094812Y0017882D01*
X0093854Y0017076D01*
X0092877Y0016294D01*
X0091881Y0015536D01*
X0090866Y0014803D01*
X0089834Y0014095D01*
X0088785Y0013412D01*
X0087719Y0012756D01*
X0086638Y0012126D01*
X0085541Y0011522D01*
X0084430Y0010946D01*
X0083305Y0010397D01*
X0082167Y0009875D01*
X0081017Y0009382D01*
X0079855Y0008917D01*
X0078681Y0008481D01*
X0077498Y0008074D01*
X0076305Y0007696D01*
X0075102Y0007347D01*
X0073892Y0007028D01*
X0072674Y0006739D01*
X0071450Y0006480D01*
X0070219Y0006251D01*
X0068983Y0006052D01*
X0067743Y0005884D01*
X0066499Y0005746D01*
X0065252Y0005638D01*
X0064002Y0005561D01*
X0062752Y0005515D01*
X0061500Y0005500D01*
X0060248Y0005515D01*
X0058998Y0005561D01*
X0057748Y0005638D01*
X0056501Y0005746D01*
X0055257Y0005884D01*
X0054017Y0006052D01*
X0052781Y0006251D01*
X0051550Y0006480D01*
X0050326Y0006739D01*
X0049108Y0007028D01*
X0047898Y0007347D01*
X0046695Y0007696D01*
X0045502Y0008074D01*
X0044319Y0008481D01*
X0043145Y0008917D01*
X0041983Y0009382D01*
X0040833Y0009875D01*
X0039695Y0010397D01*
X0038570Y0010946D01*
X0037459Y0011522D01*
X0036362Y0012126D01*
X0035281Y0012756D01*
X0034215Y0013412D01*
X0033166Y0014095D01*
X0032134Y0014803D01*
X0031119Y0015536D01*
X0030123Y0016294D01*
X0029146Y0017076D01*
X0028188Y0017882D01*
X0027250Y0018711D01*
X0026333Y0019563D01*
X0025438Y0020438D01*
X0024563Y0021333D01*
X0023711Y0022250D01*
X0022882Y0023188D01*
X0022076Y0024146D01*
X0021294Y0025123D01*
X0020536Y0026119D01*
X0019803Y0027134D01*
X0019095Y0028166D01*
X0018412Y0029215D01*
X0017756Y0030281D01*
X0017126Y0031362D01*
X0016522Y0032459D01*
X0015946Y0033570D01*
X0015397Y0034695D01*
X0014875Y0035833D01*
X0014382Y0036983D01*
X0013917Y0038145D01*
X0013481Y0039319D01*
X0013074Y0040502D01*
X0012696Y0041695D01*
X0012347Y0042898D01*
X0012028Y0044108D01*
X0011739Y0045326D01*
X0011480Y0046550D01*
X0011251Y0047781D01*
X0011052Y0049017D01*
X0010884Y0050257D01*
X0010746Y0051501D01*
X0010638Y0052748D01*
X0010561Y0053998D01*
X0010515Y0055248D01*
X0010500Y0056500D01*
X0013175Y0056426D02*
X0033451Y0056426D01*
X0033425Y0055427D02*
X0013175Y0055427D01*
X0013175Y0054429D02*
X0019312Y0054429D01*
X0018702Y0053430D02*
X0013175Y0053430D01*
X0013175Y0052432D02*
X0017159Y0052432D01*
X0016698Y0051433D02*
X0013338Y0051433D01*
X0013509Y0050434D02*
X0016447Y0050434D01*
X0016384Y0049436D02*
X0013681Y0049436D01*
X0013852Y0048437D02*
X0016501Y0048437D01*
X0016822Y0047439D02*
X0014023Y0047439D01*
X0014194Y0046440D02*
X0017399Y0046440D01*
X0018294Y0045442D02*
X0014366Y0045442D01*
X0014537Y0044443D02*
X0020151Y0044443D01*
X0019722Y0044015D02*
X0021063Y0042674D01*
X0021755Y0042171D01*
X0022517Y0041782D01*
X0023331Y0041518D01*
X0024177Y0041384D01*
X0025032Y0041384D01*
X0025878Y0041518D01*
X0026692Y0041782D01*
X0027454Y0042171D01*
X0028087Y0042631D01*
X0023213Y0047505D01*
X0019722Y0044015D01*
X0020291Y0043445D02*
X0014860Y0043445D01*
X0015212Y0042446D02*
X0021375Y0042446D01*
X0023771Y0041448D02*
X0015565Y0041448D01*
X0015918Y0040449D02*
X0033152Y0040449D01*
X0031887Y0041448D02*
X0025438Y0041448D01*
X0027834Y0042446D02*
X0031550Y0042446D01*
X0031636Y0043445D02*
X0028872Y0043445D01*
X0028687Y0043445D02*
X0027273Y0043445D01*
X0027689Y0044443D02*
X0026275Y0044443D01*
X0026690Y0045442D02*
X0025276Y0045442D01*
X0025692Y0046440D02*
X0024278Y0046440D01*
X0024693Y0047439D02*
X0023279Y0047439D01*
X0023146Y0047439D02*
X0021732Y0047439D01*
X0022148Y0046440D02*
X0020733Y0046440D01*
X0021149Y0045442D02*
X0019735Y0045442D01*
X0022281Y0048437D02*
X0022730Y0048437D01*
X0022696Y0049436D02*
X0021282Y0049436D01*
X0021698Y0050434D02*
X0020284Y0050434D01*
X0020699Y0051433D02*
X0019285Y0051433D01*
X0019701Y0052432D02*
X0018287Y0052432D01*
X0013175Y0057424D02*
X0033959Y0057424D01*
X0033857Y0054429D02*
X0030161Y0054429D01*
X0030745Y0053430D02*
X0035376Y0053430D01*
X0036883Y0052432D02*
X0030825Y0052432D01*
X0031672Y0051433D02*
X0035884Y0051433D01*
X0034886Y0050434D02*
X0032670Y0050434D01*
X0030708Y0048437D02*
X0029796Y0048437D01*
X0029709Y0049436D02*
X0029374Y0049436D01*
X0030011Y0047439D02*
X0031706Y0047439D01*
X0033358Y0046440D02*
X0030042Y0046440D01*
X0029873Y0045442D02*
X0033515Y0045442D01*
X0032229Y0044443D02*
X0029495Y0044443D01*
X0035319Y0039451D02*
X0016271Y0039451D01*
X0016624Y0038452D02*
X0036318Y0038452D01*
X0037316Y0037454D02*
X0016976Y0037454D01*
X0017343Y0036455D02*
X0038315Y0036455D01*
X0039313Y0035457D02*
X0017901Y0035457D01*
X0018459Y0034458D02*
X0040312Y0034458D01*
X0041310Y0033460D02*
X0019016Y0033460D01*
X0019574Y0032461D02*
X0046400Y0032461D01*
X0043233Y0031463D02*
X0032698Y0031463D01*
X0034516Y0030464D02*
X0042234Y0030464D01*
X0041975Y0029466D02*
X0035514Y0029466D01*
X0036144Y0028467D02*
X0041975Y0028467D01*
X0041975Y0027469D02*
X0036558Y0027469D01*
X0036850Y0026470D02*
X0041975Y0026470D01*
X0041975Y0025472D02*
X0036850Y0025472D01*
X0036850Y0024473D02*
X0041975Y0024473D01*
X0041975Y0023475D02*
X0036534Y0023475D01*
X0036121Y0022476D02*
X0041975Y0022476D01*
X0041975Y0021478D02*
X0035458Y0021478D01*
X0034459Y0020479D02*
X0041975Y0020479D01*
X0041975Y0019481D02*
X0032561Y0019481D01*
X0031551Y0018482D02*
X0041975Y0018482D01*
X0041975Y0017484D02*
X0032697Y0017484D01*
X0034319Y0016485D02*
X0041975Y0016485D01*
X0041975Y0015487D02*
X0035940Y0015487D01*
X0037562Y0014488D02*
X0041975Y0014488D01*
X0041975Y0013490D02*
X0039184Y0013490D01*
X0041412Y0012491D02*
X0042279Y0012491D01*
X0043897Y0011493D02*
X0079568Y0011493D01*
X0081554Y0012491D02*
X0061971Y0012491D01*
X0062969Y0013490D02*
X0066189Y0013490D01*
X0066100Y0013579D02*
X0066379Y0013300D01*
X0066721Y0013102D01*
X0067103Y0013000D01*
X0071200Y0013000D01*
X0075297Y0013000D01*
X0075679Y0013102D01*
X0076021Y0013300D01*
X0076300Y0013579D01*
X0076498Y0013921D01*
X0076600Y0014303D01*
X0076600Y0015200D01*
X0071200Y0015200D01*
X0071200Y0015200D01*
X0071200Y0015200D01*
X0071200Y0017400D01*
X0071200Y0017800D01*
X0076600Y0017800D01*
X0071200Y0017800D01*
X0071200Y0017800D01*
X0071200Y0017800D01*
X0071200Y0015200D01*
X0071200Y0013000D01*
X0071200Y0015200D01*
X0071200Y0015200D01*
X0071200Y0015200D01*
X0065800Y0015200D01*
X0065800Y0014303D01*
X0065902Y0013921D01*
X0066100Y0013579D01*
X0065800Y0014488D02*
X0063968Y0014488D01*
X0064966Y0015487D02*
X0065800Y0015487D01*
X0063004Y0017484D02*
X0056800Y0017484D01*
X0056800Y0016921D02*
X0056800Y0018956D01*
X0056756Y0019000D01*
X0056800Y0019044D01*
X0056800Y0019475D01*
X0064995Y0019475D01*
X0060295Y0014775D01*
X0057200Y0014775D01*
X0057200Y0015200D01*
X0057200Y0016097D01*
X0057098Y0016479D01*
X0056900Y0016821D01*
X0056800Y0016921D01*
X0057094Y0016485D02*
X0062005Y0016485D01*
X0061007Y0015487D02*
X0057200Y0015487D01*
X0057200Y0015200D02*
X0051800Y0015200D01*
X0051800Y0015200D01*
X0057200Y0015200D01*
X0056800Y0018482D02*
X0064002Y0018482D01*
X0065496Y0022476D02*
X0056800Y0022476D01*
X0056800Y0023475D02*
X0066200Y0023475D01*
X0065922Y0024473D02*
X0056800Y0024473D01*
X0056800Y0025472D02*
X0064923Y0025472D01*
X0063925Y0026470D02*
X0056685Y0026470D01*
X0056800Y0027469D02*
X0062926Y0027469D01*
X0061928Y0028467D02*
X0056800Y0028467D01*
X0056800Y0029466D02*
X0060929Y0029466D01*
X0059931Y0030464D02*
X0056800Y0030464D01*
X0057064Y0031463D02*
X0058932Y0031463D01*
X0057934Y0032461D02*
X0057200Y0032461D01*
X0062526Y0037454D02*
X0085100Y0037454D01*
X0085100Y0036455D02*
X0063525Y0036455D01*
X0064523Y0035457D02*
X0085100Y0035457D01*
X0084353Y0034458D02*
X0076263Y0034458D01*
X0076600Y0033460D02*
X0083355Y0033460D01*
X0082356Y0032461D02*
X0076600Y0032461D01*
X0076502Y0031463D02*
X0081358Y0031463D01*
X0080359Y0030464D02*
X0076600Y0030464D01*
X0076600Y0030200D02*
X0071200Y0030200D01*
X0071200Y0030200D01*
X0071200Y0030200D01*
X0071200Y0030600D01*
X0071200Y0032800D01*
X0071200Y0032800D01*
X0071200Y0030200D01*
X0076600Y0030200D01*
X0076600Y0029466D02*
X0079361Y0029466D01*
X0078362Y0028467D02*
X0076200Y0028467D01*
X0076200Y0027469D02*
X0077364Y0027469D01*
X0076365Y0026470D02*
X0076085Y0026470D01*
X0079830Y0023475D02*
X0086466Y0023475D01*
X0086150Y0024473D02*
X0080828Y0024473D01*
X0081827Y0025472D02*
X0086150Y0025472D01*
X0086150Y0026470D02*
X0082825Y0026470D01*
X0083824Y0027469D02*
X0086442Y0027469D01*
X0086856Y0028467D02*
X0084822Y0028467D01*
X0085821Y0029466D02*
X0087486Y0029466D01*
X0086784Y0030464D02*
X0088484Y0030464D01*
X0087720Y0031463D02*
X0090302Y0031463D01*
X0088656Y0032461D02*
X0103581Y0032461D01*
X0104118Y0033460D02*
X0089592Y0033460D01*
X0090423Y0034458D02*
X0104570Y0034458D01*
X0105021Y0035457D02*
X0091220Y0035457D01*
X0091450Y0036455D02*
X0105472Y0036455D01*
X0105924Y0037454D02*
X0091257Y0037454D01*
X0091258Y0038452D02*
X0091742Y0038452D01*
X0091700Y0039451D02*
X0091300Y0039451D01*
X0091300Y0040449D02*
X0091700Y0040449D01*
X0091700Y0041448D02*
X0091300Y0041448D01*
X0091300Y0042446D02*
X0091700Y0042446D01*
X0091700Y0043445D02*
X0091300Y0043445D01*
X0091300Y0044443D02*
X0091700Y0044443D01*
X0091700Y0045442D02*
X0091300Y0045442D01*
X0091300Y0046440D02*
X0091700Y0046440D01*
X0091700Y0047439D02*
X0091300Y0047439D01*
X0090968Y0048437D02*
X0092032Y0048437D01*
X0092834Y0049436D02*
X0087900Y0049436D01*
X0087900Y0050434D02*
X0091836Y0050434D01*
X0090837Y0051433D02*
X0087900Y0051433D01*
X0087900Y0052432D02*
X0089839Y0052432D01*
X0091801Y0054429D02*
X0109824Y0054429D01*
X0109909Y0055427D02*
X0090825Y0055427D01*
X0090799Y0056426D02*
X0109994Y0056426D01*
X0109921Y0057424D02*
X0090291Y0057424D01*
X0092800Y0053430D02*
X0109739Y0053430D01*
X0109654Y0052432D02*
X0093798Y0052432D01*
X0094797Y0051433D02*
X0109569Y0051433D01*
X0109484Y0050434D02*
X0095795Y0050434D01*
X0096794Y0049436D02*
X0109399Y0049436D01*
X0109314Y0048437D02*
X0100968Y0048437D01*
X0101300Y0047439D02*
X0109077Y0047439D01*
X0108817Y0046440D02*
X0101300Y0046440D01*
X0101300Y0045442D02*
X0108557Y0045442D01*
X0108297Y0044443D02*
X0101300Y0044443D01*
X0101300Y0043445D02*
X0108037Y0043445D01*
X0107777Y0042446D02*
X0101300Y0042446D01*
X0101300Y0041448D02*
X0107517Y0041448D01*
X0107257Y0040449D02*
X0101300Y0040449D01*
X0101300Y0039451D02*
X0106826Y0039451D01*
X0106375Y0038452D02*
X0101258Y0038452D01*
X0096742Y0038452D02*
X0096258Y0038452D01*
X0096300Y0039451D02*
X0096700Y0039451D01*
X0096700Y0040449D02*
X0096300Y0040449D01*
X0096300Y0041448D02*
X0096700Y0041448D01*
X0096700Y0042446D02*
X0096300Y0042446D01*
X0096300Y0043445D02*
X0096700Y0043445D01*
X0096700Y0044443D02*
X0096300Y0044443D01*
X0096300Y0045442D02*
X0096700Y0045442D01*
X0085100Y0049436D02*
X0050544Y0049436D01*
X0051542Y0048437D02*
X0082032Y0048437D01*
X0081700Y0047439D02*
X0052541Y0047439D01*
X0053539Y0046440D02*
X0081700Y0046440D01*
X0081700Y0045442D02*
X0054538Y0045442D01*
X0055536Y0044443D02*
X0081700Y0044443D01*
X0081700Y0043445D02*
X0056535Y0043445D01*
X0057533Y0042446D02*
X0081700Y0042446D01*
X0081700Y0041448D02*
X0058532Y0041448D01*
X0059530Y0040449D02*
X0081700Y0040449D01*
X0081700Y0039451D02*
X0060529Y0039451D01*
X0061528Y0038452D02*
X0081742Y0038452D01*
X0071200Y0034458D02*
X0071200Y0034458D01*
X0071200Y0033460D02*
X0071200Y0033460D01*
X0071200Y0032461D02*
X0071200Y0032461D01*
X0071200Y0031463D02*
X0071200Y0031463D01*
X0071200Y0030464D02*
X0071200Y0030464D01*
X0066137Y0034458D02*
X0065522Y0034458D01*
X0077833Y0021478D02*
X0087542Y0021478D01*
X0086879Y0022476D02*
X0078831Y0022476D01*
X0076834Y0020479D02*
X0088541Y0020479D01*
X0090439Y0019481D02*
X0076241Y0019481D01*
X0076600Y0018482D02*
X0091366Y0018482D01*
X0090015Y0017484D02*
X0076600Y0017484D01*
X0076494Y0016485D02*
X0088665Y0016485D01*
X0087315Y0015487D02*
X0076600Y0015487D01*
X0076600Y0014488D02*
X0085515Y0014488D01*
X0083535Y0013490D02*
X0076211Y0013490D01*
X0076307Y0010494D02*
X0046382Y0010494D01*
X0050223Y0009496D02*
X0073047Y0009496D01*
X0071200Y0013490D02*
X0071200Y0013490D01*
X0071200Y0014488D02*
X0071200Y0014488D01*
X0071200Y0015487D02*
X0071200Y0015487D01*
X0071200Y0016485D02*
X0071200Y0016485D01*
X0071200Y0017484D02*
X0071200Y0017484D01*
X0067099Y0008497D02*
X0054856Y0008497D01*
X0051800Y0015200D02*
X0046400Y0015200D01*
X0051800Y0015200D01*
X0051800Y0015200D01*
X0046800Y0016921D02*
X0046700Y0016821D01*
X0046502Y0016479D01*
X0046400Y0016097D01*
X0046400Y0015200D01*
X0046400Y0014775D01*
X0044775Y0014775D01*
X0044775Y0026179D01*
X0045388Y0025925D01*
X0046362Y0025925D01*
X0046800Y0026106D01*
X0046800Y0024044D01*
X0046844Y0024000D01*
X0046800Y0023956D01*
X0046800Y0021644D01*
X0046944Y0021500D01*
X0046800Y0021356D01*
X0046800Y0019044D01*
X0046844Y0019000D01*
X0046800Y0018956D01*
X0046800Y0016921D01*
X0046506Y0016485D02*
X0044775Y0016485D01*
X0044775Y0015487D02*
X0046400Y0015487D01*
X0046800Y0017484D02*
X0044775Y0017484D01*
X0044775Y0018482D02*
X0046800Y0018482D01*
X0046800Y0019481D02*
X0044775Y0019481D01*
X0044775Y0020479D02*
X0046800Y0020479D01*
X0046922Y0021478D02*
X0044775Y0021478D01*
X0044775Y0022476D02*
X0046800Y0022476D01*
X0046800Y0023475D02*
X0044775Y0023475D01*
X0044775Y0024473D02*
X0046800Y0024473D01*
X0046800Y0025472D02*
X0044775Y0025472D01*
X0028302Y0031463D02*
X0020132Y0031463D01*
X0020690Y0030464D02*
X0026484Y0030464D01*
X0025486Y0029466D02*
X0021248Y0029466D01*
X0022023Y0028467D02*
X0024856Y0028467D01*
X0024442Y0027469D02*
X0022829Y0027469D01*
X0023635Y0026470D02*
X0024150Y0026470D01*
X0049545Y0050434D02*
X0085100Y0050434D01*
X0085100Y0051433D02*
X0048547Y0051433D01*
X0053504Y0058423D02*
X0042336Y0058423D01*
X0044328Y0059421D02*
X0053601Y0059421D01*
X0056866Y0059421D02*
X0057866Y0059421D01*
X0057866Y0058423D02*
X0056866Y0058423D01*
X0056866Y0055427D02*
X0057866Y0055427D01*
X0057866Y0054429D02*
X0056866Y0054429D01*
X0056866Y0053430D02*
X0057866Y0053430D01*
X0061052Y0053430D02*
X0062424Y0053430D01*
X0062172Y0054429D02*
X0061228Y0054429D01*
X0061228Y0055427D02*
X0062172Y0055427D01*
X0062172Y0057424D02*
X0061228Y0057424D01*
X0061228Y0058423D02*
X0062172Y0058423D01*
X0062275Y0059421D02*
X0061131Y0059421D01*
X0063677Y0064453D02*
X0064058Y0064350D01*
X0066512Y0064350D01*
X0066512Y0068500D01*
X0067512Y0068500D01*
X0067512Y0069500D01*
X0071268Y0069500D01*
X0071268Y0072347D01*
X0071165Y0072729D01*
X0070968Y0073071D01*
X0070689Y0073350D01*
X0070347Y0073547D01*
X0069965Y0073650D01*
X0067512Y0073650D01*
X0067512Y0069500D01*
X0066512Y0069500D01*
X0066512Y0073650D01*
X0064058Y0073650D01*
X0063677Y0073547D01*
X0063335Y0073350D01*
X0063056Y0073071D01*
X0062858Y0072729D01*
X0062756Y0072347D01*
X0062756Y0069500D01*
X0066512Y0069500D01*
X0066512Y0068500D01*
X0062756Y0068500D01*
X0062756Y0065653D01*
X0062858Y0065271D01*
X0063056Y0064929D01*
X0063335Y0064650D01*
X0063677Y0064453D01*
X0063822Y0064414D02*
X0053269Y0064414D01*
X0052132Y0067409D02*
X0044289Y0067409D01*
X0043290Y0068408D02*
X0052132Y0068408D01*
X0052132Y0069406D02*
X0042292Y0069406D01*
X0041293Y0070405D02*
X0052132Y0070405D01*
X0052132Y0071403D02*
X0026122Y0071403D01*
X0025878Y0071482D02*
X0025032Y0071616D01*
X0024177Y0071616D01*
X0023331Y0071482D01*
X0022517Y0071218D01*
X0021755Y0070829D01*
X0021063Y0070326D01*
X0019722Y0068985D01*
X0023213Y0065495D01*
X0028087Y0070369D01*
X0027454Y0070829D01*
X0026692Y0071218D01*
X0025878Y0071482D01*
X0028039Y0070405D02*
X0035497Y0070405D01*
X0034499Y0069406D02*
X0028981Y0069406D01*
X0028795Y0069662D02*
X0029255Y0069029D01*
X0029643Y0068266D01*
X0029908Y0067453D01*
X0030042Y0066607D01*
X0030042Y0065751D01*
X0029908Y0064906D01*
X0029643Y0064092D01*
X0029255Y0063330D01*
X0028752Y0062637D01*
X0027411Y0061296D01*
X0023920Y0064787D01*
X0023213Y0064080D01*
X0026704Y0060589D01*
X0025363Y0059248D01*
X0024670Y0058745D01*
X0023908Y0058357D01*
X0023094Y0058092D01*
X0022249Y0057958D01*
X0021393Y0057958D01*
X0020547Y0058092D01*
X0019734Y0058357D01*
X0018971Y0058745D01*
X0018338Y0059205D01*
X0023213Y0064080D01*
X0022505Y0064787D01*
X0017631Y0059913D01*
X0017171Y0060546D01*
X0016782Y0061308D01*
X0016518Y0062122D01*
X0016384Y0062968D01*
X0016384Y0063823D01*
X0016518Y0064669D01*
X0016782Y0065483D01*
X0017171Y0066245D01*
X0017674Y0066937D01*
X0019015Y0068278D01*
X0022505Y0064787D01*
X0023213Y0065495D01*
X0023920Y0064787D01*
X0028795Y0069662D01*
X0028538Y0069406D02*
X0027124Y0069406D01*
X0027540Y0068408D02*
X0026126Y0068408D01*
X0026541Y0067409D02*
X0025127Y0067409D01*
X0025543Y0066411D02*
X0024129Y0066411D01*
X0024544Y0065412D02*
X0023295Y0065412D01*
X0023130Y0065412D02*
X0021881Y0065412D01*
X0022132Y0064414D02*
X0022879Y0064414D01*
X0023546Y0064414D02*
X0024293Y0064414D01*
X0023878Y0063415D02*
X0025292Y0063415D01*
X0024876Y0062417D02*
X0026290Y0062417D01*
X0025875Y0061418D02*
X0027289Y0061418D01*
X0027532Y0061418D02*
X0036033Y0061418D01*
X0035035Y0062417D02*
X0028531Y0062417D01*
X0029298Y0063415D02*
X0034088Y0063415D01*
X0033675Y0064414D02*
X0029748Y0064414D01*
X0029988Y0065412D02*
X0033358Y0065412D01*
X0033358Y0066411D02*
X0030042Y0066411D01*
X0029915Y0067409D02*
X0033453Y0067409D01*
X0033866Y0068408D02*
X0029571Y0068408D01*
X0023088Y0071403D02*
X0015513Y0071403D01*
X0015160Y0070405D02*
X0021170Y0070405D01*
X0020142Y0069406D02*
X0014807Y0069406D01*
X0014511Y0068408D02*
X0020299Y0068408D01*
X0019884Y0067409D02*
X0021298Y0067409D01*
X0020882Y0066411D02*
X0022296Y0066411D01*
X0022547Y0063415D02*
X0021133Y0063415D01*
X0021549Y0062417D02*
X0020135Y0062417D01*
X0020550Y0061418D02*
X0019136Y0061418D01*
X0019552Y0060420D02*
X0018138Y0060420D01*
X0017262Y0060420D02*
X0013175Y0060420D01*
X0013175Y0059421D02*
X0018553Y0059421D01*
X0019604Y0058423D02*
X0013175Y0058423D01*
X0013313Y0061418D02*
X0016746Y0061418D01*
X0016471Y0062417D02*
X0013484Y0062417D01*
X0013655Y0063415D02*
X0016384Y0063415D01*
X0016477Y0064414D02*
X0013826Y0064414D01*
X0013998Y0065412D02*
X0016759Y0065412D01*
X0017291Y0066411D02*
X0014169Y0066411D01*
X0014340Y0067409D02*
X0018145Y0067409D01*
X0015865Y0072402D02*
X0052132Y0072402D01*
X0054475Y0073400D02*
X0016218Y0073400D01*
X0016571Y0074399D02*
X0054475Y0074399D01*
X0054475Y0075397D02*
X0016924Y0075397D01*
X0017277Y0076396D02*
X0054475Y0076396D01*
X0054475Y0077394D02*
X0017818Y0077394D01*
X0018376Y0078393D02*
X0054475Y0078393D01*
X0054475Y0079391D02*
X0018933Y0079391D01*
X0019491Y0080390D02*
X0054475Y0080390D01*
X0058413Y0082387D02*
X0064014Y0082387D01*
X0063035Y0083385D02*
X0059474Y0083385D01*
X0060119Y0084384D02*
X0062442Y0084384D01*
X0062112Y0085382D02*
X0060533Y0085382D01*
X0060600Y0086381D02*
X0066700Y0086381D01*
X0066700Y0087379D02*
X0067700Y0087379D01*
X0067700Y0088378D02*
X0066700Y0088378D01*
X0066700Y0089376D02*
X0067700Y0089376D01*
X0067700Y0090375D02*
X0066700Y0090375D01*
X0063721Y0090375D02*
X0058713Y0090375D01*
X0059712Y0089376D02*
X0062862Y0089376D01*
X0062343Y0088378D02*
X0060218Y0088378D01*
X0060600Y0087379D02*
X0062074Y0087379D01*
X0068167Y0081388D02*
X0090661Y0081388D01*
X0088633Y0082387D02*
X0070386Y0082387D01*
X0071365Y0083385D02*
X0087634Y0083385D01*
X0086918Y0084384D02*
X0071958Y0084384D01*
X0072288Y0085382D02*
X0086504Y0085382D01*
X0088392Y0092372D02*
X0034608Y0092372D01*
X0032921Y0093370D02*
X0090079Y0093370D01*
X0091567Y0094369D02*
X0031382Y0094369D01*
X0032517Y0095368D02*
X0090217Y0095368D01*
X0088867Y0096366D02*
X0034077Y0096366D01*
X0035698Y0097365D02*
X0087517Y0097365D01*
X0085811Y0098363D02*
X0037320Y0098363D01*
X0038942Y0099362D02*
X0083830Y0099362D01*
X0081850Y0100360D02*
X0041042Y0100360D01*
X0043527Y0101359D02*
X0079869Y0101359D01*
X0076793Y0102357D02*
X0046011Y0102357D01*
X0049532Y0103356D02*
X0073533Y0103356D01*
X0068261Y0104354D02*
X0054165Y0104354D01*
X0057275Y0075397D02*
X0081960Y0075397D01*
X0081314Y0074399D02*
X0057275Y0074399D01*
X0057275Y0073400D02*
X0063422Y0073400D01*
X0062771Y0072402D02*
X0059844Y0072402D01*
X0059844Y0071403D02*
X0062756Y0071403D01*
X0062756Y0070405D02*
X0059844Y0070405D01*
X0059844Y0069406D02*
X0066512Y0069406D01*
X0066512Y0068408D02*
X0067512Y0068408D01*
X0067512Y0068500D02*
X0067512Y0064350D01*
X0069965Y0064350D01*
X0070347Y0064453D01*
X0070689Y0064650D01*
X0070968Y0064929D01*
X0071165Y0065271D01*
X0071268Y0065653D01*
X0071268Y0068500D01*
X0067512Y0068500D01*
X0067512Y0069406D02*
X0081300Y0069406D01*
X0081300Y0068408D02*
X0071268Y0068408D01*
X0071268Y0067409D02*
X0081300Y0067409D01*
X0081300Y0066411D02*
X0071268Y0066411D01*
X0071203Y0065412D02*
X0081300Y0065412D01*
X0081300Y0070405D02*
X0071268Y0070405D01*
X0071268Y0071403D02*
X0081300Y0071403D01*
X0081300Y0072402D02*
X0071253Y0072402D01*
X0070602Y0073400D02*
X0081300Y0073400D01*
X0083900Y0073400D02*
X0084100Y0073400D01*
X0084100Y0072402D02*
X0083900Y0072402D01*
X0083900Y0071403D02*
X0084100Y0071403D01*
X0084100Y0070405D02*
X0083900Y0070405D01*
X0083900Y0074399D02*
X0084100Y0074399D01*
X0084100Y0075397D02*
X0083900Y0075397D01*
X0094339Y0081388D02*
X0103006Y0081388D01*
X0102331Y0082387D02*
X0096367Y0082387D01*
X0097366Y0083385D02*
X0101657Y0083385D01*
X0100982Y0084384D02*
X0098082Y0084384D01*
X0098496Y0085382D02*
X0100307Y0085382D01*
X0099632Y0086381D02*
X0098850Y0086381D01*
X0099235Y0086969D02*
X0099235Y0086969D01*
X0101300Y0074399D02*
X0106442Y0074399D01*
X0106894Y0073400D02*
X0101300Y0073400D01*
X0101300Y0072402D02*
X0107296Y0072402D01*
X0107556Y0071403D02*
X0101300Y0071403D01*
X0101300Y0070405D02*
X0107816Y0070405D01*
X0108076Y0069406D02*
X0101300Y0069406D01*
X0101300Y0068408D02*
X0108336Y0068408D01*
X0108596Y0067409D02*
X0101300Y0067409D01*
X0101300Y0066411D02*
X0108856Y0066411D01*
X0109116Y0065412D02*
X0101300Y0065412D01*
X0100719Y0064414D02*
X0109326Y0064414D01*
X0102906Y0031463D02*
X0094698Y0031463D01*
X0096516Y0030464D02*
X0102231Y0030464D01*
X0101556Y0029466D02*
X0097514Y0029466D01*
X0098144Y0028467D02*
X0100881Y0028467D01*
X0100206Y0027469D02*
X0098558Y0027469D01*
X0098850Y0026470D02*
X0099531Y0026470D01*
X0067815Y0060420D02*
X0045327Y0060420D01*
X0045812Y0061418D02*
X0068813Y0061418D01*
X0069812Y0062417D02*
X0046216Y0062417D01*
X0046216Y0063415D02*
X0070810Y0063415D01*
X0070201Y0064414D02*
X0071809Y0064414D01*
X0067512Y0064414D02*
X0066512Y0064414D01*
X0066512Y0065412D02*
X0067512Y0065412D01*
X0067512Y0066411D02*
X0066512Y0066411D01*
X0066512Y0067409D02*
X0067512Y0067409D01*
X0067512Y0070405D02*
X0066512Y0070405D01*
X0066512Y0071403D02*
X0067512Y0071403D01*
X0067512Y0072402D02*
X0066512Y0072402D01*
X0066512Y0073400D02*
X0067512Y0073400D01*
X0062756Y0068408D02*
X0059844Y0068408D01*
X0059844Y0067409D02*
X0062756Y0067409D01*
X0062756Y0066411D02*
X0059844Y0066411D01*
X0059844Y0065412D02*
X0062820Y0065412D01*
X0040023Y0058423D02*
X0024037Y0058423D01*
X0025535Y0059421D02*
X0038030Y0059421D01*
X0037032Y0060420D02*
X0026534Y0060420D01*
X0026589Y0054429D02*
X0024329Y0054429D01*
X0025684Y0053430D02*
X0026005Y0053430D01*
D12*
X0055988Y0069000D03*
X0067012Y0069000D03*
D13*
X0071200Y0032800D03*
X0071200Y0030200D03*
X0071200Y0027800D03*
X0071200Y0025200D03*
X0071200Y0022800D03*
X0071200Y0020200D03*
X0071200Y0017800D03*
X0071200Y0015200D03*
X0051800Y0015200D03*
X0051800Y0017800D03*
X0051800Y0020200D03*
X0051800Y0022800D03*
X0051800Y0025200D03*
X0051800Y0027800D03*
X0051800Y0030200D03*
X0051800Y0032800D03*
D14*
X0084000Y0043300D03*
X0089000Y0043300D03*
X0094000Y0043300D03*
X0099000Y0043300D03*
X0099000Y0069800D03*
X0094000Y0069800D03*
X0089000Y0069800D03*
X0084000Y0069800D03*
D15*
X0065634Y0056500D03*
X0057366Y0056500D03*
D16*
X0055800Y0086500D03*
X0067200Y0086500D03*
D17*
X0041178Y0063396D02*
X0038396Y0066178D01*
X0024604Y0066178D02*
X0021822Y0063396D01*
X0021822Y0049604D02*
X0024604Y0046822D01*
X0038396Y0046822D02*
X0041178Y0049604D01*
D18*
X0039787Y0048213D02*
X0039625Y0048375D01*
X0032750Y0048375D01*
X0028375Y0052750D01*
X0035875Y0055875D02*
X0037125Y0054625D01*
X0043375Y0054625D01*
X0065875Y0032125D01*
X0065875Y0028375D01*
X0070875Y0028375D01*
X0071200Y0027800D01*
X0070875Y0025250D02*
X0071200Y0025200D01*
X0070875Y0025250D02*
X0067125Y0025250D01*
X0057750Y0034625D01*
X0042125Y0034625D01*
X0034000Y0042750D01*
X0044625Y0030875D02*
X0043375Y0029625D01*
X0043375Y0013375D01*
X0060875Y0013375D01*
X0067125Y0019625D01*
X0070875Y0019625D01*
X0071200Y0020200D01*
X0071500Y0020250D01*
X0074625Y0020250D01*
X0085250Y0030875D01*
X0089000Y0034875D01*
X0089000Y0036500D01*
X0086500Y0034625D02*
X0086500Y0055875D01*
X0088375Y0055875D01*
X0099000Y0045250D01*
X0099000Y0043300D01*
X0086500Y0034625D02*
X0075250Y0023375D01*
X0071500Y0023375D01*
X0071200Y0022800D01*
X0070875Y0022750D01*
X0067750Y0022750D01*
X0065875Y0020875D01*
X0052750Y0020875D01*
X0052125Y0020250D01*
X0051800Y0020200D01*
X0051800Y0027800D02*
X0051500Y0028375D01*
X0045875Y0028375D01*
X0044625Y0030875D02*
X0050875Y0030875D01*
X0051500Y0030250D01*
X0051800Y0030200D01*
X0065634Y0056500D02*
X0065875Y0056500D01*
X0073375Y0064000D01*
X0095250Y0064000D01*
X0099000Y0067750D01*
X0099000Y0069800D01*
X0055988Y0069000D02*
X0055875Y0069000D01*
X0055875Y0086500D01*
X0055800Y0086500D01*
X0055875Y0069000D02*
X0052125Y0065250D01*
X0040250Y0065250D01*
X0039787Y0064787D01*
D19*
X0035875Y0055875D03*
X0028375Y0052750D03*
X0034000Y0042750D03*
X0030500Y0038500D03*
X0045875Y0028375D03*
X0059500Y0017500D03*
X0079500Y0020500D03*
X0089000Y0036500D03*
X0088375Y0055875D03*
M02*
