G75*
%MOIN*%
%OFA0B0*%
%FSLAX25Y25*%
%IPPOS*%
%LPD*%
%AMOC8*
5,1,8,0,0,1.08239X$1,22.5*
%
%ADD10C,0.00000*%
%ADD11C,0.01000*%
%ADD12R,0.04331X0.03937*%
%ADD13C,0.07400*%
%ADD14R,0.09843X0.15748*%
%ADD15C,0.00600*%
%ADD16C,0.02700*%
D10*
X0006500Y0001500D02*
X0006500Y0110201D01*
X0116421Y0110201D01*
X0116421Y0001500D01*
X0006500Y0001500D01*
X0026150Y0025500D02*
X0026152Y0025631D01*
X0026158Y0025763D01*
X0026168Y0025894D01*
X0026182Y0026024D01*
X0026200Y0026155D01*
X0026221Y0026284D01*
X0026247Y0026413D01*
X0026276Y0026541D01*
X0026310Y0026668D01*
X0026347Y0026794D01*
X0026388Y0026919D01*
X0026433Y0027043D01*
X0026481Y0027165D01*
X0026533Y0027285D01*
X0026589Y0027404D01*
X0026648Y0027522D01*
X0026711Y0027637D01*
X0026777Y0027750D01*
X0026847Y0027862D01*
X0026920Y0027971D01*
X0026996Y0028078D01*
X0027076Y0028183D01*
X0027158Y0028285D01*
X0027244Y0028385D01*
X0027333Y0028482D01*
X0027424Y0028576D01*
X0027518Y0028667D01*
X0027615Y0028756D01*
X0027715Y0028842D01*
X0027817Y0028924D01*
X0027922Y0029004D01*
X0028029Y0029080D01*
X0028138Y0029153D01*
X0028250Y0029223D01*
X0028363Y0029289D01*
X0028478Y0029352D01*
X0028596Y0029411D01*
X0028715Y0029467D01*
X0028835Y0029519D01*
X0028957Y0029567D01*
X0029081Y0029612D01*
X0029206Y0029653D01*
X0029332Y0029690D01*
X0029459Y0029724D01*
X0029587Y0029753D01*
X0029716Y0029779D01*
X0029845Y0029800D01*
X0029976Y0029818D01*
X0030106Y0029832D01*
X0030237Y0029842D01*
X0030369Y0029848D01*
X0030500Y0029850D01*
X0030631Y0029848D01*
X0030763Y0029842D01*
X0030894Y0029832D01*
X0031024Y0029818D01*
X0031155Y0029800D01*
X0031284Y0029779D01*
X0031413Y0029753D01*
X0031541Y0029724D01*
X0031668Y0029690D01*
X0031794Y0029653D01*
X0031919Y0029612D01*
X0032043Y0029567D01*
X0032165Y0029519D01*
X0032285Y0029467D01*
X0032404Y0029411D01*
X0032522Y0029352D01*
X0032637Y0029289D01*
X0032750Y0029223D01*
X0032862Y0029153D01*
X0032971Y0029080D01*
X0033078Y0029004D01*
X0033183Y0028924D01*
X0033285Y0028842D01*
X0033385Y0028756D01*
X0033482Y0028667D01*
X0033576Y0028576D01*
X0033667Y0028482D01*
X0033756Y0028385D01*
X0033842Y0028285D01*
X0033924Y0028183D01*
X0034004Y0028078D01*
X0034080Y0027971D01*
X0034153Y0027862D01*
X0034223Y0027750D01*
X0034289Y0027637D01*
X0034352Y0027522D01*
X0034411Y0027404D01*
X0034467Y0027285D01*
X0034519Y0027165D01*
X0034567Y0027043D01*
X0034612Y0026919D01*
X0034653Y0026794D01*
X0034690Y0026668D01*
X0034724Y0026541D01*
X0034753Y0026413D01*
X0034779Y0026284D01*
X0034800Y0026155D01*
X0034818Y0026024D01*
X0034832Y0025894D01*
X0034842Y0025763D01*
X0034848Y0025631D01*
X0034850Y0025500D01*
X0034848Y0025369D01*
X0034842Y0025237D01*
X0034832Y0025106D01*
X0034818Y0024976D01*
X0034800Y0024845D01*
X0034779Y0024716D01*
X0034753Y0024587D01*
X0034724Y0024459D01*
X0034690Y0024332D01*
X0034653Y0024206D01*
X0034612Y0024081D01*
X0034567Y0023957D01*
X0034519Y0023835D01*
X0034467Y0023715D01*
X0034411Y0023596D01*
X0034352Y0023478D01*
X0034289Y0023363D01*
X0034223Y0023250D01*
X0034153Y0023138D01*
X0034080Y0023029D01*
X0034004Y0022922D01*
X0033924Y0022817D01*
X0033842Y0022715D01*
X0033756Y0022615D01*
X0033667Y0022518D01*
X0033576Y0022424D01*
X0033482Y0022333D01*
X0033385Y0022244D01*
X0033285Y0022158D01*
X0033183Y0022076D01*
X0033078Y0021996D01*
X0032971Y0021920D01*
X0032862Y0021847D01*
X0032750Y0021777D01*
X0032637Y0021711D01*
X0032522Y0021648D01*
X0032404Y0021589D01*
X0032285Y0021533D01*
X0032165Y0021481D01*
X0032043Y0021433D01*
X0031919Y0021388D01*
X0031794Y0021347D01*
X0031668Y0021310D01*
X0031541Y0021276D01*
X0031413Y0021247D01*
X0031284Y0021221D01*
X0031155Y0021200D01*
X0031024Y0021182D01*
X0030894Y0021168D01*
X0030763Y0021158D01*
X0030631Y0021152D01*
X0030500Y0021150D01*
X0030369Y0021152D01*
X0030237Y0021158D01*
X0030106Y0021168D01*
X0029976Y0021182D01*
X0029845Y0021200D01*
X0029716Y0021221D01*
X0029587Y0021247D01*
X0029459Y0021276D01*
X0029332Y0021310D01*
X0029206Y0021347D01*
X0029081Y0021388D01*
X0028957Y0021433D01*
X0028835Y0021481D01*
X0028715Y0021533D01*
X0028596Y0021589D01*
X0028478Y0021648D01*
X0028363Y0021711D01*
X0028250Y0021777D01*
X0028138Y0021847D01*
X0028029Y0021920D01*
X0027922Y0021996D01*
X0027817Y0022076D01*
X0027715Y0022158D01*
X0027615Y0022244D01*
X0027518Y0022333D01*
X0027424Y0022424D01*
X0027333Y0022518D01*
X0027244Y0022615D01*
X0027158Y0022715D01*
X0027076Y0022817D01*
X0026996Y0022922D01*
X0026920Y0023029D01*
X0026847Y0023138D01*
X0026777Y0023250D01*
X0026711Y0023363D01*
X0026648Y0023478D01*
X0026589Y0023596D01*
X0026533Y0023715D01*
X0026481Y0023835D01*
X0026433Y0023957D01*
X0026388Y0024081D01*
X0026347Y0024206D01*
X0026310Y0024332D01*
X0026276Y0024459D01*
X0026247Y0024587D01*
X0026221Y0024716D01*
X0026200Y0024845D01*
X0026182Y0024976D01*
X0026168Y0025106D01*
X0026158Y0025237D01*
X0026152Y0025369D01*
X0026150Y0025500D01*
X0088150Y0025500D02*
X0088152Y0025631D01*
X0088158Y0025763D01*
X0088168Y0025894D01*
X0088182Y0026024D01*
X0088200Y0026155D01*
X0088221Y0026284D01*
X0088247Y0026413D01*
X0088276Y0026541D01*
X0088310Y0026668D01*
X0088347Y0026794D01*
X0088388Y0026919D01*
X0088433Y0027043D01*
X0088481Y0027165D01*
X0088533Y0027285D01*
X0088589Y0027404D01*
X0088648Y0027522D01*
X0088711Y0027637D01*
X0088777Y0027750D01*
X0088847Y0027862D01*
X0088920Y0027971D01*
X0088996Y0028078D01*
X0089076Y0028183D01*
X0089158Y0028285D01*
X0089244Y0028385D01*
X0089333Y0028482D01*
X0089424Y0028576D01*
X0089518Y0028667D01*
X0089615Y0028756D01*
X0089715Y0028842D01*
X0089817Y0028924D01*
X0089922Y0029004D01*
X0090029Y0029080D01*
X0090138Y0029153D01*
X0090250Y0029223D01*
X0090363Y0029289D01*
X0090478Y0029352D01*
X0090596Y0029411D01*
X0090715Y0029467D01*
X0090835Y0029519D01*
X0090957Y0029567D01*
X0091081Y0029612D01*
X0091206Y0029653D01*
X0091332Y0029690D01*
X0091459Y0029724D01*
X0091587Y0029753D01*
X0091716Y0029779D01*
X0091845Y0029800D01*
X0091976Y0029818D01*
X0092106Y0029832D01*
X0092237Y0029842D01*
X0092369Y0029848D01*
X0092500Y0029850D01*
X0092631Y0029848D01*
X0092763Y0029842D01*
X0092894Y0029832D01*
X0093024Y0029818D01*
X0093155Y0029800D01*
X0093284Y0029779D01*
X0093413Y0029753D01*
X0093541Y0029724D01*
X0093668Y0029690D01*
X0093794Y0029653D01*
X0093919Y0029612D01*
X0094043Y0029567D01*
X0094165Y0029519D01*
X0094285Y0029467D01*
X0094404Y0029411D01*
X0094522Y0029352D01*
X0094637Y0029289D01*
X0094750Y0029223D01*
X0094862Y0029153D01*
X0094971Y0029080D01*
X0095078Y0029004D01*
X0095183Y0028924D01*
X0095285Y0028842D01*
X0095385Y0028756D01*
X0095482Y0028667D01*
X0095576Y0028576D01*
X0095667Y0028482D01*
X0095756Y0028385D01*
X0095842Y0028285D01*
X0095924Y0028183D01*
X0096004Y0028078D01*
X0096080Y0027971D01*
X0096153Y0027862D01*
X0096223Y0027750D01*
X0096289Y0027637D01*
X0096352Y0027522D01*
X0096411Y0027404D01*
X0096467Y0027285D01*
X0096519Y0027165D01*
X0096567Y0027043D01*
X0096612Y0026919D01*
X0096653Y0026794D01*
X0096690Y0026668D01*
X0096724Y0026541D01*
X0096753Y0026413D01*
X0096779Y0026284D01*
X0096800Y0026155D01*
X0096818Y0026024D01*
X0096832Y0025894D01*
X0096842Y0025763D01*
X0096848Y0025631D01*
X0096850Y0025500D01*
X0096848Y0025369D01*
X0096842Y0025237D01*
X0096832Y0025106D01*
X0096818Y0024976D01*
X0096800Y0024845D01*
X0096779Y0024716D01*
X0096753Y0024587D01*
X0096724Y0024459D01*
X0096690Y0024332D01*
X0096653Y0024206D01*
X0096612Y0024081D01*
X0096567Y0023957D01*
X0096519Y0023835D01*
X0096467Y0023715D01*
X0096411Y0023596D01*
X0096352Y0023478D01*
X0096289Y0023363D01*
X0096223Y0023250D01*
X0096153Y0023138D01*
X0096080Y0023029D01*
X0096004Y0022922D01*
X0095924Y0022817D01*
X0095842Y0022715D01*
X0095756Y0022615D01*
X0095667Y0022518D01*
X0095576Y0022424D01*
X0095482Y0022333D01*
X0095385Y0022244D01*
X0095285Y0022158D01*
X0095183Y0022076D01*
X0095078Y0021996D01*
X0094971Y0021920D01*
X0094862Y0021847D01*
X0094750Y0021777D01*
X0094637Y0021711D01*
X0094522Y0021648D01*
X0094404Y0021589D01*
X0094285Y0021533D01*
X0094165Y0021481D01*
X0094043Y0021433D01*
X0093919Y0021388D01*
X0093794Y0021347D01*
X0093668Y0021310D01*
X0093541Y0021276D01*
X0093413Y0021247D01*
X0093284Y0021221D01*
X0093155Y0021200D01*
X0093024Y0021182D01*
X0092894Y0021168D01*
X0092763Y0021158D01*
X0092631Y0021152D01*
X0092500Y0021150D01*
X0092369Y0021152D01*
X0092237Y0021158D01*
X0092106Y0021168D01*
X0091976Y0021182D01*
X0091845Y0021200D01*
X0091716Y0021221D01*
X0091587Y0021247D01*
X0091459Y0021276D01*
X0091332Y0021310D01*
X0091206Y0021347D01*
X0091081Y0021388D01*
X0090957Y0021433D01*
X0090835Y0021481D01*
X0090715Y0021533D01*
X0090596Y0021589D01*
X0090478Y0021648D01*
X0090363Y0021711D01*
X0090250Y0021777D01*
X0090138Y0021847D01*
X0090029Y0021920D01*
X0089922Y0021996D01*
X0089817Y0022076D01*
X0089715Y0022158D01*
X0089615Y0022244D01*
X0089518Y0022333D01*
X0089424Y0022424D01*
X0089333Y0022518D01*
X0089244Y0022615D01*
X0089158Y0022715D01*
X0089076Y0022817D01*
X0088996Y0022922D01*
X0088920Y0023029D01*
X0088847Y0023138D01*
X0088777Y0023250D01*
X0088711Y0023363D01*
X0088648Y0023478D01*
X0088589Y0023596D01*
X0088533Y0023715D01*
X0088481Y0023835D01*
X0088433Y0023957D01*
X0088388Y0024081D01*
X0088347Y0024206D01*
X0088310Y0024332D01*
X0088276Y0024459D01*
X0088247Y0024587D01*
X0088221Y0024716D01*
X0088200Y0024845D01*
X0088182Y0024976D01*
X0088168Y0025106D01*
X0088158Y0025237D01*
X0088152Y0025369D01*
X0088150Y0025500D01*
X0088150Y0087500D02*
X0088152Y0087631D01*
X0088158Y0087763D01*
X0088168Y0087894D01*
X0088182Y0088024D01*
X0088200Y0088155D01*
X0088221Y0088284D01*
X0088247Y0088413D01*
X0088276Y0088541D01*
X0088310Y0088668D01*
X0088347Y0088794D01*
X0088388Y0088919D01*
X0088433Y0089043D01*
X0088481Y0089165D01*
X0088533Y0089285D01*
X0088589Y0089404D01*
X0088648Y0089522D01*
X0088711Y0089637D01*
X0088777Y0089750D01*
X0088847Y0089862D01*
X0088920Y0089971D01*
X0088996Y0090078D01*
X0089076Y0090183D01*
X0089158Y0090285D01*
X0089244Y0090385D01*
X0089333Y0090482D01*
X0089424Y0090576D01*
X0089518Y0090667D01*
X0089615Y0090756D01*
X0089715Y0090842D01*
X0089817Y0090924D01*
X0089922Y0091004D01*
X0090029Y0091080D01*
X0090138Y0091153D01*
X0090250Y0091223D01*
X0090363Y0091289D01*
X0090478Y0091352D01*
X0090596Y0091411D01*
X0090715Y0091467D01*
X0090835Y0091519D01*
X0090957Y0091567D01*
X0091081Y0091612D01*
X0091206Y0091653D01*
X0091332Y0091690D01*
X0091459Y0091724D01*
X0091587Y0091753D01*
X0091716Y0091779D01*
X0091845Y0091800D01*
X0091976Y0091818D01*
X0092106Y0091832D01*
X0092237Y0091842D01*
X0092369Y0091848D01*
X0092500Y0091850D01*
X0092631Y0091848D01*
X0092763Y0091842D01*
X0092894Y0091832D01*
X0093024Y0091818D01*
X0093155Y0091800D01*
X0093284Y0091779D01*
X0093413Y0091753D01*
X0093541Y0091724D01*
X0093668Y0091690D01*
X0093794Y0091653D01*
X0093919Y0091612D01*
X0094043Y0091567D01*
X0094165Y0091519D01*
X0094285Y0091467D01*
X0094404Y0091411D01*
X0094522Y0091352D01*
X0094637Y0091289D01*
X0094750Y0091223D01*
X0094862Y0091153D01*
X0094971Y0091080D01*
X0095078Y0091004D01*
X0095183Y0090924D01*
X0095285Y0090842D01*
X0095385Y0090756D01*
X0095482Y0090667D01*
X0095576Y0090576D01*
X0095667Y0090482D01*
X0095756Y0090385D01*
X0095842Y0090285D01*
X0095924Y0090183D01*
X0096004Y0090078D01*
X0096080Y0089971D01*
X0096153Y0089862D01*
X0096223Y0089750D01*
X0096289Y0089637D01*
X0096352Y0089522D01*
X0096411Y0089404D01*
X0096467Y0089285D01*
X0096519Y0089165D01*
X0096567Y0089043D01*
X0096612Y0088919D01*
X0096653Y0088794D01*
X0096690Y0088668D01*
X0096724Y0088541D01*
X0096753Y0088413D01*
X0096779Y0088284D01*
X0096800Y0088155D01*
X0096818Y0088024D01*
X0096832Y0087894D01*
X0096842Y0087763D01*
X0096848Y0087631D01*
X0096850Y0087500D01*
X0096848Y0087369D01*
X0096842Y0087237D01*
X0096832Y0087106D01*
X0096818Y0086976D01*
X0096800Y0086845D01*
X0096779Y0086716D01*
X0096753Y0086587D01*
X0096724Y0086459D01*
X0096690Y0086332D01*
X0096653Y0086206D01*
X0096612Y0086081D01*
X0096567Y0085957D01*
X0096519Y0085835D01*
X0096467Y0085715D01*
X0096411Y0085596D01*
X0096352Y0085478D01*
X0096289Y0085363D01*
X0096223Y0085250D01*
X0096153Y0085138D01*
X0096080Y0085029D01*
X0096004Y0084922D01*
X0095924Y0084817D01*
X0095842Y0084715D01*
X0095756Y0084615D01*
X0095667Y0084518D01*
X0095576Y0084424D01*
X0095482Y0084333D01*
X0095385Y0084244D01*
X0095285Y0084158D01*
X0095183Y0084076D01*
X0095078Y0083996D01*
X0094971Y0083920D01*
X0094862Y0083847D01*
X0094750Y0083777D01*
X0094637Y0083711D01*
X0094522Y0083648D01*
X0094404Y0083589D01*
X0094285Y0083533D01*
X0094165Y0083481D01*
X0094043Y0083433D01*
X0093919Y0083388D01*
X0093794Y0083347D01*
X0093668Y0083310D01*
X0093541Y0083276D01*
X0093413Y0083247D01*
X0093284Y0083221D01*
X0093155Y0083200D01*
X0093024Y0083182D01*
X0092894Y0083168D01*
X0092763Y0083158D01*
X0092631Y0083152D01*
X0092500Y0083150D01*
X0092369Y0083152D01*
X0092237Y0083158D01*
X0092106Y0083168D01*
X0091976Y0083182D01*
X0091845Y0083200D01*
X0091716Y0083221D01*
X0091587Y0083247D01*
X0091459Y0083276D01*
X0091332Y0083310D01*
X0091206Y0083347D01*
X0091081Y0083388D01*
X0090957Y0083433D01*
X0090835Y0083481D01*
X0090715Y0083533D01*
X0090596Y0083589D01*
X0090478Y0083648D01*
X0090363Y0083711D01*
X0090250Y0083777D01*
X0090138Y0083847D01*
X0090029Y0083920D01*
X0089922Y0083996D01*
X0089817Y0084076D01*
X0089715Y0084158D01*
X0089615Y0084244D01*
X0089518Y0084333D01*
X0089424Y0084424D01*
X0089333Y0084518D01*
X0089244Y0084615D01*
X0089158Y0084715D01*
X0089076Y0084817D01*
X0088996Y0084922D01*
X0088920Y0085029D01*
X0088847Y0085138D01*
X0088777Y0085250D01*
X0088711Y0085363D01*
X0088648Y0085478D01*
X0088589Y0085596D01*
X0088533Y0085715D01*
X0088481Y0085835D01*
X0088433Y0085957D01*
X0088388Y0086081D01*
X0088347Y0086206D01*
X0088310Y0086332D01*
X0088276Y0086459D01*
X0088247Y0086587D01*
X0088221Y0086716D01*
X0088200Y0086845D01*
X0088182Y0086976D01*
X0088168Y0087106D01*
X0088158Y0087237D01*
X0088152Y0087369D01*
X0088150Y0087500D01*
X0026150Y0087500D02*
X0026152Y0087631D01*
X0026158Y0087763D01*
X0026168Y0087894D01*
X0026182Y0088024D01*
X0026200Y0088155D01*
X0026221Y0088284D01*
X0026247Y0088413D01*
X0026276Y0088541D01*
X0026310Y0088668D01*
X0026347Y0088794D01*
X0026388Y0088919D01*
X0026433Y0089043D01*
X0026481Y0089165D01*
X0026533Y0089285D01*
X0026589Y0089404D01*
X0026648Y0089522D01*
X0026711Y0089637D01*
X0026777Y0089750D01*
X0026847Y0089862D01*
X0026920Y0089971D01*
X0026996Y0090078D01*
X0027076Y0090183D01*
X0027158Y0090285D01*
X0027244Y0090385D01*
X0027333Y0090482D01*
X0027424Y0090576D01*
X0027518Y0090667D01*
X0027615Y0090756D01*
X0027715Y0090842D01*
X0027817Y0090924D01*
X0027922Y0091004D01*
X0028029Y0091080D01*
X0028138Y0091153D01*
X0028250Y0091223D01*
X0028363Y0091289D01*
X0028478Y0091352D01*
X0028596Y0091411D01*
X0028715Y0091467D01*
X0028835Y0091519D01*
X0028957Y0091567D01*
X0029081Y0091612D01*
X0029206Y0091653D01*
X0029332Y0091690D01*
X0029459Y0091724D01*
X0029587Y0091753D01*
X0029716Y0091779D01*
X0029845Y0091800D01*
X0029976Y0091818D01*
X0030106Y0091832D01*
X0030237Y0091842D01*
X0030369Y0091848D01*
X0030500Y0091850D01*
X0030631Y0091848D01*
X0030763Y0091842D01*
X0030894Y0091832D01*
X0031024Y0091818D01*
X0031155Y0091800D01*
X0031284Y0091779D01*
X0031413Y0091753D01*
X0031541Y0091724D01*
X0031668Y0091690D01*
X0031794Y0091653D01*
X0031919Y0091612D01*
X0032043Y0091567D01*
X0032165Y0091519D01*
X0032285Y0091467D01*
X0032404Y0091411D01*
X0032522Y0091352D01*
X0032637Y0091289D01*
X0032750Y0091223D01*
X0032862Y0091153D01*
X0032971Y0091080D01*
X0033078Y0091004D01*
X0033183Y0090924D01*
X0033285Y0090842D01*
X0033385Y0090756D01*
X0033482Y0090667D01*
X0033576Y0090576D01*
X0033667Y0090482D01*
X0033756Y0090385D01*
X0033842Y0090285D01*
X0033924Y0090183D01*
X0034004Y0090078D01*
X0034080Y0089971D01*
X0034153Y0089862D01*
X0034223Y0089750D01*
X0034289Y0089637D01*
X0034352Y0089522D01*
X0034411Y0089404D01*
X0034467Y0089285D01*
X0034519Y0089165D01*
X0034567Y0089043D01*
X0034612Y0088919D01*
X0034653Y0088794D01*
X0034690Y0088668D01*
X0034724Y0088541D01*
X0034753Y0088413D01*
X0034779Y0088284D01*
X0034800Y0088155D01*
X0034818Y0088024D01*
X0034832Y0087894D01*
X0034842Y0087763D01*
X0034848Y0087631D01*
X0034850Y0087500D01*
X0034848Y0087369D01*
X0034842Y0087237D01*
X0034832Y0087106D01*
X0034818Y0086976D01*
X0034800Y0086845D01*
X0034779Y0086716D01*
X0034753Y0086587D01*
X0034724Y0086459D01*
X0034690Y0086332D01*
X0034653Y0086206D01*
X0034612Y0086081D01*
X0034567Y0085957D01*
X0034519Y0085835D01*
X0034467Y0085715D01*
X0034411Y0085596D01*
X0034352Y0085478D01*
X0034289Y0085363D01*
X0034223Y0085250D01*
X0034153Y0085138D01*
X0034080Y0085029D01*
X0034004Y0084922D01*
X0033924Y0084817D01*
X0033842Y0084715D01*
X0033756Y0084615D01*
X0033667Y0084518D01*
X0033576Y0084424D01*
X0033482Y0084333D01*
X0033385Y0084244D01*
X0033285Y0084158D01*
X0033183Y0084076D01*
X0033078Y0083996D01*
X0032971Y0083920D01*
X0032862Y0083847D01*
X0032750Y0083777D01*
X0032637Y0083711D01*
X0032522Y0083648D01*
X0032404Y0083589D01*
X0032285Y0083533D01*
X0032165Y0083481D01*
X0032043Y0083433D01*
X0031919Y0083388D01*
X0031794Y0083347D01*
X0031668Y0083310D01*
X0031541Y0083276D01*
X0031413Y0083247D01*
X0031284Y0083221D01*
X0031155Y0083200D01*
X0031024Y0083182D01*
X0030894Y0083168D01*
X0030763Y0083158D01*
X0030631Y0083152D01*
X0030500Y0083150D01*
X0030369Y0083152D01*
X0030237Y0083158D01*
X0030106Y0083168D01*
X0029976Y0083182D01*
X0029845Y0083200D01*
X0029716Y0083221D01*
X0029587Y0083247D01*
X0029459Y0083276D01*
X0029332Y0083310D01*
X0029206Y0083347D01*
X0029081Y0083388D01*
X0028957Y0083433D01*
X0028835Y0083481D01*
X0028715Y0083533D01*
X0028596Y0083589D01*
X0028478Y0083648D01*
X0028363Y0083711D01*
X0028250Y0083777D01*
X0028138Y0083847D01*
X0028029Y0083920D01*
X0027922Y0083996D01*
X0027817Y0084076D01*
X0027715Y0084158D01*
X0027615Y0084244D01*
X0027518Y0084333D01*
X0027424Y0084424D01*
X0027333Y0084518D01*
X0027244Y0084615D01*
X0027158Y0084715D01*
X0027076Y0084817D01*
X0026996Y0084922D01*
X0026920Y0085029D01*
X0026847Y0085138D01*
X0026777Y0085250D01*
X0026711Y0085363D01*
X0026648Y0085478D01*
X0026589Y0085596D01*
X0026533Y0085715D01*
X0026481Y0085835D01*
X0026433Y0085957D01*
X0026388Y0086081D01*
X0026347Y0086206D01*
X0026310Y0086332D01*
X0026276Y0086459D01*
X0026247Y0086587D01*
X0026221Y0086716D01*
X0026200Y0086845D01*
X0026182Y0086976D01*
X0026168Y0087106D01*
X0026158Y0087237D01*
X0026152Y0087369D01*
X0026150Y0087500D01*
D11*
X0024150Y0087167D02*
X0024150Y0086237D01*
X0025117Y0083903D01*
X0026903Y0082117D01*
X0029237Y0081150D01*
X0031763Y0081150D01*
X0034097Y0082117D01*
X0035883Y0083903D01*
X0036850Y0086237D01*
X0036850Y0088763D01*
X0035883Y0091097D01*
X0034097Y0092883D01*
X0031763Y0093850D01*
X0030792Y0093850D01*
X0032660Y0095494D01*
X0039665Y0099807D01*
X0047298Y0102874D01*
X0055340Y0104607D01*
X0063558Y0104956D01*
X0071718Y0103911D01*
X0079584Y0101503D01*
X0086929Y0097799D01*
X0092269Y0093850D01*
X0091237Y0093850D01*
X0088903Y0092883D01*
X0087117Y0091097D01*
X0086150Y0088763D01*
X0086150Y0086237D01*
X0087117Y0083903D01*
X0088903Y0082117D01*
X0091237Y0081150D01*
X0093763Y0081150D01*
X0096097Y0082117D01*
X0097883Y0083903D01*
X0098850Y0086237D01*
X0098850Y0087370D01*
X0099235Y0086969D01*
X0103841Y0080153D01*
X0107230Y0072657D01*
X0109302Y0064697D01*
X0110000Y0056500D01*
X0109302Y0048303D01*
X0107230Y0040343D01*
X0103841Y0032847D01*
X0099235Y0026031D01*
X0098850Y0025630D01*
X0098850Y0026763D01*
X0097883Y0029097D01*
X0096097Y0030883D01*
X0093763Y0031850D01*
X0091237Y0031850D01*
X0088903Y0030883D01*
X0087117Y0029097D01*
X0086150Y0026763D01*
X0086150Y0024237D01*
X0087117Y0021903D01*
X0088903Y0020117D01*
X0091237Y0019150D01*
X0092269Y0019150D01*
X0086929Y0015201D01*
X0079584Y0011497D01*
X0071718Y0009089D01*
X0063558Y0008044D01*
X0055340Y0008393D01*
X0047298Y0010126D01*
X0039665Y0013193D01*
X0032660Y0017506D01*
X0030792Y0019150D01*
X0031763Y0019150D01*
X0034097Y0020117D01*
X0035883Y0021903D01*
X0036850Y0024237D01*
X0036850Y0026763D01*
X0035883Y0029097D01*
X0034097Y0030883D01*
X0031763Y0031850D01*
X0029237Y0031850D01*
X0026903Y0030883D01*
X0025117Y0029097D01*
X0024150Y0026763D01*
X0024150Y0025833D01*
X0021317Y0029341D01*
X0017305Y0036523D01*
X0014565Y0044279D01*
X0013175Y0052387D01*
X0013175Y0060613D01*
X0014565Y0068721D01*
X0017305Y0076477D01*
X0021317Y0083659D01*
X0024150Y0087167D01*
X0024150Y0086381D02*
X0023515Y0086381D01*
X0022709Y0085382D02*
X0024504Y0085382D01*
X0024918Y0084384D02*
X0021903Y0084384D01*
X0021165Y0083385D02*
X0025634Y0083385D01*
X0026633Y0082387D02*
X0020607Y0082387D01*
X0020049Y0081388D02*
X0028661Y0081388D01*
X0032339Y0081388D02*
X0066233Y0081388D01*
X0065982Y0081428D02*
X0065204Y0081681D01*
X0064475Y0082053D01*
X0063812Y0082534D01*
X0063234Y0083112D01*
X0062753Y0083775D01*
X0062381Y0084504D01*
X0062128Y0085282D01*
X0062014Y0086000D01*
X0066700Y0086000D01*
X0066700Y0087000D01*
X0066700Y0091686D01*
X0065982Y0091572D01*
X0065204Y0091319D01*
X0064475Y0090947D01*
X0063812Y0090466D01*
X0063234Y0089888D01*
X0062753Y0089225D01*
X0062381Y0088496D01*
X0062128Y0087718D01*
X0062014Y0087000D01*
X0066700Y0087000D01*
X0067700Y0087000D01*
X0067700Y0091686D01*
X0068418Y0091572D01*
X0069196Y0091319D01*
X0069925Y0090947D01*
X0070588Y0090466D01*
X0071166Y0089888D01*
X0071647Y0089225D01*
X0072019Y0088496D01*
X0072272Y0087718D01*
X0072386Y0087000D01*
X0067700Y0087000D01*
X0067700Y0086000D01*
X0072386Y0086000D01*
X0072272Y0085282D01*
X0072019Y0084504D01*
X0071647Y0083775D01*
X0071166Y0083112D01*
X0070588Y0082534D01*
X0069925Y0082053D01*
X0069196Y0081681D01*
X0068418Y0081428D01*
X0067700Y0081314D01*
X0067700Y0086000D01*
X0066700Y0086000D01*
X0066700Y0081314D01*
X0065982Y0081428D01*
X0066700Y0081388D02*
X0067700Y0081388D01*
X0068167Y0081388D02*
X0090661Y0081388D01*
X0088633Y0082387D02*
X0070386Y0082387D01*
X0071365Y0083385D02*
X0087634Y0083385D01*
X0086918Y0084384D02*
X0071958Y0084384D01*
X0072288Y0085382D02*
X0086504Y0085382D01*
X0086150Y0086381D02*
X0067700Y0086381D01*
X0067700Y0087379D02*
X0066700Y0087379D01*
X0066700Y0086381D02*
X0060600Y0086381D01*
X0060600Y0085545D02*
X0059869Y0083781D01*
X0058519Y0082431D01*
X0056755Y0081700D01*
X0054845Y0081700D01*
X0053081Y0082431D01*
X0051731Y0083781D01*
X0051000Y0085545D01*
X0051000Y0087455D01*
X0051731Y0089219D01*
X0053081Y0090569D01*
X0054845Y0091300D01*
X0056755Y0091300D01*
X0058519Y0090569D01*
X0059869Y0089219D01*
X0060600Y0087455D01*
X0060600Y0085545D01*
X0060533Y0085382D02*
X0062112Y0085382D01*
X0062442Y0084384D02*
X0060119Y0084384D01*
X0059474Y0083385D02*
X0063035Y0083385D01*
X0064014Y0082387D02*
X0058413Y0082387D01*
X0056123Y0080946D02*
X0055479Y0080302D01*
X0055479Y0063643D01*
X0056123Y0062998D01*
X0057269Y0062998D01*
X0051975Y0057705D01*
X0051975Y0036455D01*
X0046345Y0030825D01*
X0045388Y0030825D01*
X0044487Y0030452D01*
X0043798Y0029763D01*
X0043425Y0028862D01*
X0043425Y0027888D01*
X0043798Y0026987D01*
X0044487Y0026298D01*
X0045388Y0025925D01*
X0046362Y0025925D01*
X0047263Y0026298D01*
X0047952Y0026987D01*
X0048325Y0027888D01*
X0048325Y0028845D01*
X0053955Y0034475D01*
X0054775Y0035295D01*
X0054775Y0056545D01*
X0061228Y0062998D01*
X0066877Y0062998D01*
X0067521Y0063643D01*
X0067521Y0080302D01*
X0066877Y0080946D01*
X0056123Y0080946D01*
X0055566Y0080390D02*
X0019491Y0080390D01*
X0018933Y0079391D02*
X0055479Y0079391D01*
X0055479Y0078393D02*
X0018376Y0078393D01*
X0017818Y0077394D02*
X0055479Y0077394D01*
X0055479Y0076396D02*
X0017277Y0076396D01*
X0016924Y0075397D02*
X0055479Y0075397D01*
X0055479Y0074399D02*
X0016571Y0074399D01*
X0016218Y0073400D02*
X0055479Y0073400D01*
X0055479Y0072402D02*
X0015865Y0072402D01*
X0015513Y0071403D02*
X0055479Y0071403D01*
X0055479Y0070405D02*
X0015160Y0070405D01*
X0014807Y0069406D02*
X0055479Y0069406D01*
X0055479Y0068408D02*
X0014511Y0068408D01*
X0014340Y0067409D02*
X0055479Y0067409D01*
X0055479Y0066411D02*
X0014169Y0066411D01*
X0013998Y0065412D02*
X0055479Y0065412D01*
X0055479Y0064414D02*
X0013826Y0064414D01*
X0013655Y0063415D02*
X0055706Y0063415D01*
X0056687Y0062417D02*
X0038112Y0062417D01*
X0038112Y0062424D02*
X0037467Y0063068D01*
X0032225Y0063068D01*
X0031581Y0062424D01*
X0031581Y0057576D01*
X0032225Y0056931D01*
X0033661Y0056931D01*
X0033425Y0056362D01*
X0033425Y0055388D01*
X0033798Y0054487D01*
X0034487Y0053798D01*
X0035388Y0053425D01*
X0036362Y0053425D01*
X0037263Y0053798D01*
X0037952Y0054487D01*
X0038325Y0055388D01*
X0038325Y0056362D01*
X0037952Y0057263D01*
X0037875Y0057339D01*
X0038112Y0057576D01*
X0038112Y0062424D01*
X0038112Y0061418D02*
X0055688Y0061418D01*
X0054690Y0060420D02*
X0038112Y0060420D01*
X0038112Y0059421D02*
X0053691Y0059421D01*
X0052693Y0058423D02*
X0038112Y0058423D01*
X0037960Y0057424D02*
X0051975Y0057424D01*
X0051975Y0056426D02*
X0038299Y0056426D01*
X0038325Y0055427D02*
X0051975Y0055427D01*
X0051975Y0054429D02*
X0037893Y0054429D01*
X0036374Y0053430D02*
X0051975Y0053430D01*
X0051975Y0052432D02*
X0030825Y0052432D01*
X0030825Y0052263D02*
X0030825Y0053237D01*
X0030452Y0054138D01*
X0029775Y0054815D01*
X0029775Y0056931D01*
X0030775Y0056931D01*
X0031419Y0057576D01*
X0031419Y0062424D01*
X0030775Y0063068D01*
X0025533Y0063068D01*
X0024888Y0062424D01*
X0024888Y0057576D01*
X0025533Y0056931D01*
X0026975Y0056931D01*
X0026975Y0054815D01*
X0026298Y0054138D01*
X0025925Y0053237D01*
X0025925Y0052263D01*
X0026298Y0051362D01*
X0026975Y0050685D01*
X0026975Y0050068D01*
X0025533Y0050068D01*
X0024888Y0049424D01*
X0024888Y0044576D01*
X0025533Y0043931D01*
X0030775Y0043931D01*
X0031419Y0044576D01*
X0031419Y0049424D01*
X0030775Y0050068D01*
X0029775Y0050068D01*
X0029775Y0050685D01*
X0030452Y0051362D01*
X0030825Y0052263D01*
X0030481Y0051433D02*
X0051975Y0051433D01*
X0051975Y0050434D02*
X0029775Y0050434D01*
X0031407Y0049436D02*
X0031593Y0049436D01*
X0031581Y0049424D02*
X0031581Y0044576D01*
X0031971Y0044186D01*
X0031923Y0044138D01*
X0031550Y0043237D01*
X0031550Y0042263D01*
X0031923Y0041362D01*
X0032612Y0040673D01*
X0033513Y0040300D01*
X0034487Y0040300D01*
X0035388Y0040673D01*
X0036077Y0041362D01*
X0036450Y0042263D01*
X0036450Y0043237D01*
X0036162Y0043931D01*
X0037467Y0043931D01*
X0038112Y0044576D01*
X0038112Y0049424D01*
X0037467Y0050068D01*
X0032225Y0050068D01*
X0031581Y0049424D01*
X0031581Y0048437D02*
X0031419Y0048437D01*
X0031419Y0047439D02*
X0031581Y0047439D01*
X0031581Y0046440D02*
X0031419Y0046440D01*
X0031419Y0045442D02*
X0031581Y0045442D01*
X0031714Y0044443D02*
X0031286Y0044443D01*
X0031636Y0043445D02*
X0014860Y0043445D01*
X0014537Y0044443D02*
X0025021Y0044443D01*
X0024888Y0045442D02*
X0014366Y0045442D01*
X0014194Y0046440D02*
X0024888Y0046440D01*
X0024888Y0047439D02*
X0014023Y0047439D01*
X0013852Y0048437D02*
X0024888Y0048437D01*
X0024900Y0049436D02*
X0013681Y0049436D01*
X0013509Y0050434D02*
X0026975Y0050434D01*
X0026269Y0051433D02*
X0013338Y0051433D01*
X0013175Y0052432D02*
X0025925Y0052432D01*
X0026005Y0053430D02*
X0013175Y0053430D01*
X0013175Y0054429D02*
X0026589Y0054429D01*
X0026975Y0055427D02*
X0013175Y0055427D01*
X0013175Y0056426D02*
X0026975Y0056426D01*
X0025040Y0057424D02*
X0013175Y0057424D01*
X0013175Y0058423D02*
X0024888Y0058423D01*
X0024888Y0059421D02*
X0013175Y0059421D01*
X0013175Y0060420D02*
X0024888Y0060420D01*
X0024888Y0061418D02*
X0013313Y0061418D01*
X0013484Y0062417D02*
X0024888Y0062417D01*
X0031419Y0062417D02*
X0031581Y0062417D01*
X0031581Y0061418D02*
X0031419Y0061418D01*
X0031419Y0060420D02*
X0031581Y0060420D01*
X0031581Y0059421D02*
X0031419Y0059421D01*
X0031419Y0058423D02*
X0031581Y0058423D01*
X0031733Y0057424D02*
X0031267Y0057424D01*
X0029775Y0056426D02*
X0033451Y0056426D01*
X0033425Y0055427D02*
X0029775Y0055427D01*
X0030161Y0054429D02*
X0033857Y0054429D01*
X0035376Y0053430D02*
X0030745Y0053430D01*
X0038100Y0049436D02*
X0051975Y0049436D01*
X0051975Y0048437D02*
X0038112Y0048437D01*
X0038112Y0047439D02*
X0051975Y0047439D01*
X0051975Y0046440D02*
X0038112Y0046440D01*
X0038112Y0045442D02*
X0051975Y0045442D01*
X0051975Y0044443D02*
X0037979Y0044443D01*
X0036364Y0043445D02*
X0051975Y0043445D01*
X0051975Y0042446D02*
X0036450Y0042446D01*
X0036113Y0041448D02*
X0051975Y0041448D01*
X0051975Y0040449D02*
X0034848Y0040449D01*
X0033152Y0040449D02*
X0015918Y0040449D01*
X0016271Y0039451D02*
X0051975Y0039451D01*
X0051975Y0038452D02*
X0016624Y0038452D01*
X0016976Y0037454D02*
X0051975Y0037454D01*
X0051975Y0036455D02*
X0017343Y0036455D01*
X0017901Y0035457D02*
X0050977Y0035457D01*
X0049978Y0034458D02*
X0018459Y0034458D01*
X0019016Y0033460D02*
X0048980Y0033460D01*
X0047981Y0032461D02*
X0019574Y0032461D01*
X0020132Y0031463D02*
X0028302Y0031463D01*
X0026484Y0030464D02*
X0020690Y0030464D01*
X0021248Y0029466D02*
X0025486Y0029466D01*
X0024856Y0028467D02*
X0022023Y0028467D01*
X0022829Y0027469D02*
X0024442Y0027469D01*
X0024150Y0026470D02*
X0023635Y0026470D01*
X0032698Y0031463D02*
X0046983Y0031463D01*
X0048946Y0029466D02*
X0055472Y0029466D01*
X0055472Y0030464D02*
X0049944Y0030464D01*
X0050943Y0031463D02*
X0061394Y0031463D01*
X0061394Y0031528D02*
X0061394Y0030528D01*
X0055472Y0030528D01*
X0055472Y0022956D01*
X0055575Y0022575D01*
X0055772Y0022233D01*
X0056051Y0021953D01*
X0056393Y0021756D01*
X0056775Y0021654D01*
X0061394Y0021654D01*
X0061394Y0030528D01*
X0062394Y0030528D01*
X0062394Y0031528D01*
X0061394Y0031528D01*
X0061394Y0040402D01*
X0056775Y0040402D01*
X0056393Y0040299D01*
X0056051Y0040102D01*
X0055772Y0039823D01*
X0055575Y0039481D01*
X0055472Y0039099D01*
X0055472Y0031528D01*
X0061394Y0031528D01*
X0061394Y0032461D02*
X0062394Y0032461D01*
X0062394Y0031528D02*
X0062394Y0040402D01*
X0067012Y0040402D01*
X0067394Y0040299D01*
X0067736Y0040102D01*
X0068015Y0039823D01*
X0068213Y0039481D01*
X0068315Y0039099D01*
X0068315Y0031528D01*
X0062394Y0031528D01*
X0062394Y0031463D02*
X0090302Y0031463D01*
X0088484Y0030464D02*
X0068315Y0030464D01*
X0068315Y0030528D02*
X0062394Y0030528D01*
X0062394Y0021654D01*
X0067012Y0021654D01*
X0067394Y0021756D01*
X0067736Y0021953D01*
X0068015Y0022233D01*
X0068213Y0022575D01*
X0068315Y0022956D01*
X0068315Y0030528D01*
X0068315Y0029466D02*
X0087486Y0029466D01*
X0086856Y0028467D02*
X0068315Y0028467D01*
X0068315Y0027469D02*
X0086442Y0027469D01*
X0086150Y0026470D02*
X0068315Y0026470D01*
X0068315Y0025472D02*
X0086150Y0025472D01*
X0086150Y0024473D02*
X0068315Y0024473D01*
X0068315Y0023475D02*
X0086466Y0023475D01*
X0086879Y0022476D02*
X0068156Y0022476D01*
X0062394Y0022476D02*
X0061394Y0022476D01*
X0061394Y0023475D02*
X0062394Y0023475D01*
X0062394Y0024473D02*
X0061394Y0024473D01*
X0061394Y0025472D02*
X0062394Y0025472D01*
X0062394Y0026470D02*
X0061394Y0026470D01*
X0061394Y0027469D02*
X0062394Y0027469D01*
X0062394Y0028467D02*
X0061394Y0028467D01*
X0061394Y0029466D02*
X0062394Y0029466D01*
X0062394Y0030464D02*
X0061394Y0030464D01*
X0061394Y0033460D02*
X0062394Y0033460D01*
X0062394Y0034458D02*
X0061394Y0034458D01*
X0061394Y0035457D02*
X0062394Y0035457D01*
X0062394Y0036455D02*
X0061394Y0036455D01*
X0061394Y0037454D02*
X0062394Y0037454D01*
X0062394Y0038452D02*
X0061394Y0038452D01*
X0061394Y0039451D02*
X0062394Y0039451D01*
X0068221Y0039451D02*
X0087600Y0039451D01*
X0087600Y0038565D02*
X0086923Y0037888D01*
X0086550Y0036987D01*
X0086550Y0036013D01*
X0086923Y0035112D01*
X0087612Y0034423D01*
X0088513Y0034050D01*
X0089487Y0034050D01*
X0090388Y0034423D01*
X0091077Y0035112D01*
X0091450Y0036013D01*
X0091450Y0036987D01*
X0091077Y0037888D01*
X0090400Y0038565D01*
X0090400Y0044931D01*
X0090775Y0044931D01*
X0091288Y0045445D01*
X0091481Y0045110D01*
X0091760Y0044831D01*
X0092102Y0044634D01*
X0092484Y0044531D01*
X0094362Y0044531D01*
X0094362Y0047516D01*
X0095331Y0047516D01*
X0095331Y0048484D01*
X0098512Y0048484D01*
X0098512Y0050166D01*
X0098410Y0050547D01*
X0098212Y0050890D01*
X0097933Y0051169D01*
X0097591Y0051366D01*
X0097209Y0051468D01*
X0095331Y0051468D01*
X0095331Y0048484D01*
X0094362Y0048484D01*
X0094362Y0051468D01*
X0092484Y0051468D01*
X0092102Y0051366D01*
X0091760Y0051169D01*
X0091481Y0050890D01*
X0091288Y0050555D01*
X0090775Y0051068D01*
X0085533Y0051068D01*
X0084888Y0050424D01*
X0084888Y0045576D01*
X0085533Y0044931D01*
X0087600Y0044931D01*
X0087600Y0038565D01*
X0087488Y0038452D02*
X0068315Y0038452D01*
X0068315Y0037454D02*
X0086743Y0037454D01*
X0086550Y0036455D02*
X0068315Y0036455D01*
X0068315Y0035457D02*
X0086780Y0035457D01*
X0087577Y0034458D02*
X0068315Y0034458D01*
X0068315Y0033460D02*
X0104118Y0033460D01*
X0104570Y0034458D02*
X0090423Y0034458D01*
X0091220Y0035457D02*
X0105021Y0035457D01*
X0105472Y0036455D02*
X0091450Y0036455D01*
X0091257Y0037454D02*
X0105924Y0037454D01*
X0106375Y0038452D02*
X0090512Y0038452D01*
X0090400Y0039451D02*
X0106826Y0039451D01*
X0107257Y0040449D02*
X0090400Y0040449D01*
X0090400Y0041448D02*
X0107517Y0041448D01*
X0107777Y0042446D02*
X0090400Y0042446D01*
X0090400Y0043445D02*
X0108037Y0043445D01*
X0108297Y0044443D02*
X0090400Y0044443D01*
X0091285Y0045442D02*
X0091289Y0045442D01*
X0094362Y0045442D02*
X0095331Y0045442D01*
X0095331Y0044531D02*
X0097209Y0044531D01*
X0097591Y0044634D01*
X0097933Y0044831D01*
X0098212Y0045110D01*
X0098410Y0045453D01*
X0098512Y0045834D01*
X0098512Y0047516D01*
X0095331Y0047516D01*
X0095331Y0044531D01*
X0095331Y0046440D02*
X0094362Y0046440D01*
X0094362Y0047439D02*
X0095331Y0047439D01*
X0095331Y0048437D02*
X0109314Y0048437D01*
X0109399Y0049436D02*
X0098512Y0049436D01*
X0098440Y0050434D02*
X0109484Y0050434D01*
X0109569Y0051433D02*
X0097342Y0051433D01*
X0095331Y0051433D02*
X0094362Y0051433D01*
X0094362Y0050434D02*
X0095331Y0050434D01*
X0095331Y0049436D02*
X0094362Y0049436D01*
X0092351Y0051433D02*
X0054775Y0051433D01*
X0054775Y0050434D02*
X0084899Y0050434D01*
X0084888Y0049436D02*
X0054775Y0049436D01*
X0054775Y0048437D02*
X0084888Y0048437D01*
X0084888Y0047439D02*
X0054775Y0047439D01*
X0054775Y0046440D02*
X0084888Y0046440D01*
X0085022Y0045442D02*
X0054775Y0045442D01*
X0054775Y0044443D02*
X0087600Y0044443D01*
X0087600Y0043445D02*
X0054775Y0043445D01*
X0054775Y0042446D02*
X0087600Y0042446D01*
X0087600Y0041448D02*
X0054775Y0041448D01*
X0054775Y0040449D02*
X0087600Y0040449D01*
X0094698Y0031463D02*
X0102906Y0031463D01*
X0103581Y0032461D02*
X0068315Y0032461D01*
X0055472Y0032461D02*
X0051941Y0032461D01*
X0052940Y0033460D02*
X0055472Y0033460D01*
X0055472Y0034458D02*
X0053938Y0034458D01*
X0054775Y0035457D02*
X0055472Y0035457D01*
X0055472Y0036455D02*
X0054775Y0036455D01*
X0054775Y0037454D02*
X0055472Y0037454D01*
X0055472Y0038452D02*
X0054775Y0038452D01*
X0054775Y0039451D02*
X0055567Y0039451D01*
X0055472Y0028467D02*
X0048325Y0028467D01*
X0048151Y0027469D02*
X0055472Y0027469D01*
X0055472Y0026470D02*
X0047435Y0026470D01*
X0044315Y0026470D02*
X0036850Y0026470D01*
X0036850Y0025472D02*
X0055472Y0025472D01*
X0055472Y0024473D02*
X0036850Y0024473D01*
X0036534Y0023475D02*
X0055472Y0023475D01*
X0055631Y0022476D02*
X0036121Y0022476D01*
X0035458Y0021478D02*
X0087542Y0021478D01*
X0088541Y0020479D02*
X0034459Y0020479D01*
X0032561Y0019481D02*
X0090439Y0019481D01*
X0091366Y0018482D02*
X0031551Y0018482D01*
X0032697Y0017484D02*
X0090015Y0017484D01*
X0088665Y0016485D02*
X0034319Y0016485D01*
X0035940Y0015487D02*
X0087315Y0015487D01*
X0085515Y0014488D02*
X0037562Y0014488D01*
X0039184Y0013490D02*
X0083535Y0013490D01*
X0081554Y0012491D02*
X0041412Y0012491D01*
X0043897Y0011493D02*
X0079568Y0011493D01*
X0076307Y0010494D02*
X0046382Y0010494D01*
X0050223Y0009496D02*
X0073047Y0009496D01*
X0067099Y0008497D02*
X0054856Y0008497D01*
X0043599Y0027469D02*
X0036558Y0027469D01*
X0036144Y0028467D02*
X0043425Y0028467D01*
X0043675Y0029466D02*
X0035514Y0029466D01*
X0034516Y0030464D02*
X0044517Y0030464D01*
X0031887Y0041448D02*
X0015565Y0041448D01*
X0015212Y0042446D02*
X0031550Y0042446D01*
X0054775Y0052432D02*
X0109654Y0052432D01*
X0109739Y0053430D02*
X0088874Y0053430D01*
X0088862Y0053425D02*
X0089763Y0053798D01*
X0090452Y0054487D01*
X0090825Y0055388D01*
X0090825Y0056362D01*
X0090589Y0056931D01*
X0090775Y0056931D01*
X0091288Y0057445D01*
X0091481Y0057110D01*
X0091760Y0056831D01*
X0092102Y0056634D01*
X0092484Y0056531D01*
X0094362Y0056531D01*
X0094362Y0059516D01*
X0095331Y0059516D01*
X0095331Y0060484D01*
X0098512Y0060484D01*
X0098512Y0062166D01*
X0098410Y0062547D01*
X0098212Y0062890D01*
X0097933Y0063169D01*
X0097591Y0063366D01*
X0097209Y0063468D01*
X0095331Y0063468D01*
X0095331Y0060484D01*
X0094362Y0060484D01*
X0094362Y0063468D01*
X0092484Y0063468D01*
X0092102Y0063366D01*
X0091760Y0063169D01*
X0091481Y0062890D01*
X0091288Y0062555D01*
X0090775Y0063068D01*
X0085533Y0063068D01*
X0084888Y0062424D01*
X0084888Y0057576D01*
X0085533Y0056931D01*
X0086161Y0056931D01*
X0085925Y0056362D01*
X0085925Y0055388D01*
X0086298Y0054487D01*
X0086987Y0053798D01*
X0087888Y0053425D01*
X0088862Y0053425D01*
X0087876Y0053430D02*
X0054775Y0053430D01*
X0054775Y0054429D02*
X0086357Y0054429D01*
X0085925Y0055427D02*
X0054775Y0055427D01*
X0054775Y0056426D02*
X0085951Y0056426D01*
X0085040Y0057424D02*
X0055654Y0057424D01*
X0056652Y0058423D02*
X0084888Y0058423D01*
X0084888Y0059421D02*
X0057651Y0059421D01*
X0058649Y0060420D02*
X0084888Y0060420D01*
X0084888Y0061418D02*
X0059648Y0061418D01*
X0060647Y0062417D02*
X0084888Y0062417D01*
X0091267Y0057424D02*
X0091300Y0057424D01*
X0090799Y0056426D02*
X0109994Y0056426D01*
X0109921Y0057424D02*
X0098393Y0057424D01*
X0098410Y0057453D02*
X0098212Y0057110D01*
X0097933Y0056831D01*
X0097591Y0056634D01*
X0097209Y0056531D01*
X0095331Y0056531D01*
X0095331Y0059516D01*
X0098512Y0059516D01*
X0098512Y0057834D01*
X0098410Y0057453D01*
X0098512Y0058423D02*
X0109836Y0058423D01*
X0109751Y0059421D02*
X0098512Y0059421D01*
X0098512Y0061418D02*
X0109581Y0061418D01*
X0109666Y0060420D02*
X0095331Y0060420D01*
X0095331Y0061418D02*
X0094362Y0061418D01*
X0094362Y0062417D02*
X0095331Y0062417D01*
X0095331Y0063415D02*
X0094362Y0063415D01*
X0092285Y0063415D02*
X0067294Y0063415D01*
X0067521Y0064414D02*
X0109326Y0064414D01*
X0109411Y0063415D02*
X0097408Y0063415D01*
X0098445Y0062417D02*
X0109496Y0062417D01*
X0109116Y0065412D02*
X0067521Y0065412D01*
X0067521Y0066411D02*
X0108856Y0066411D01*
X0108596Y0067409D02*
X0067521Y0067409D01*
X0067521Y0068408D02*
X0108336Y0068408D01*
X0108076Y0069406D02*
X0067521Y0069406D01*
X0067521Y0070405D02*
X0107816Y0070405D01*
X0107556Y0071403D02*
X0067521Y0071403D01*
X0067521Y0072402D02*
X0107296Y0072402D01*
X0106894Y0073400D02*
X0067521Y0073400D01*
X0067521Y0074399D02*
X0106442Y0074399D01*
X0105991Y0075397D02*
X0067521Y0075397D01*
X0067521Y0076396D02*
X0105540Y0076396D01*
X0105088Y0077394D02*
X0067521Y0077394D01*
X0067521Y0078393D02*
X0104637Y0078393D01*
X0104186Y0079391D02*
X0067521Y0079391D01*
X0067434Y0080390D02*
X0103681Y0080390D01*
X0103006Y0081388D02*
X0094339Y0081388D01*
X0096367Y0082387D02*
X0102331Y0082387D01*
X0101657Y0083385D02*
X0097366Y0083385D01*
X0098082Y0084384D02*
X0100982Y0084384D01*
X0100307Y0085382D02*
X0098496Y0085382D01*
X0098850Y0086381D02*
X0099632Y0086381D01*
X0099235Y0086969D02*
X0099235Y0086969D01*
X0091567Y0094369D02*
X0031382Y0094369D01*
X0032517Y0095368D02*
X0090217Y0095368D01*
X0088867Y0096366D02*
X0034077Y0096366D01*
X0035698Y0097365D02*
X0087517Y0097365D01*
X0085811Y0098363D02*
X0037320Y0098363D01*
X0038942Y0099362D02*
X0083830Y0099362D01*
X0081850Y0100360D02*
X0041042Y0100360D01*
X0043527Y0101359D02*
X0079869Y0101359D01*
X0076793Y0102357D02*
X0046011Y0102357D01*
X0049532Y0103356D02*
X0073533Y0103356D01*
X0068261Y0104354D02*
X0054165Y0104354D01*
X0065371Y0091373D02*
X0035607Y0091373D01*
X0036182Y0090375D02*
X0052887Y0090375D01*
X0051888Y0089376D02*
X0036596Y0089376D01*
X0036850Y0088378D02*
X0051382Y0088378D01*
X0051000Y0087379D02*
X0036850Y0087379D01*
X0036850Y0086381D02*
X0051000Y0086381D01*
X0051067Y0085382D02*
X0036496Y0085382D01*
X0036082Y0084384D02*
X0051481Y0084384D01*
X0052126Y0083385D02*
X0035366Y0083385D01*
X0034367Y0082387D02*
X0053187Y0082387D01*
X0060600Y0087379D02*
X0062074Y0087379D01*
X0062343Y0088378D02*
X0060218Y0088378D01*
X0059712Y0089376D02*
X0062862Y0089376D01*
X0063721Y0090375D02*
X0058713Y0090375D01*
X0066700Y0090375D02*
X0067700Y0090375D01*
X0067700Y0091373D02*
X0066700Y0091373D01*
X0066700Y0089376D02*
X0067700Y0089376D01*
X0067700Y0088378D02*
X0066700Y0088378D01*
X0069029Y0091373D02*
X0087393Y0091373D01*
X0086818Y0090375D02*
X0070679Y0090375D01*
X0071538Y0089376D02*
X0086404Y0089376D01*
X0086150Y0088378D02*
X0072057Y0088378D01*
X0072326Y0087379D02*
X0086150Y0087379D01*
X0088392Y0092372D02*
X0034608Y0092372D01*
X0032921Y0093370D02*
X0090079Y0093370D01*
X0067700Y0085382D02*
X0066700Y0085382D01*
X0066700Y0084384D02*
X0067700Y0084384D01*
X0067700Y0083385D02*
X0066700Y0083385D01*
X0066700Y0082387D02*
X0067700Y0082387D01*
X0094362Y0059421D02*
X0095331Y0059421D01*
X0095331Y0058423D02*
X0094362Y0058423D01*
X0094362Y0057424D02*
X0095331Y0057424D01*
X0090825Y0055427D02*
X0109909Y0055427D01*
X0109824Y0054429D02*
X0090393Y0054429D01*
X0098512Y0047439D02*
X0109077Y0047439D01*
X0108817Y0046440D02*
X0098512Y0046440D01*
X0098403Y0045442D02*
X0108557Y0045442D01*
X0102231Y0030464D02*
X0096516Y0030464D01*
X0097514Y0029466D02*
X0101556Y0029466D01*
X0100881Y0028467D02*
X0098144Y0028467D01*
X0098558Y0027469D02*
X0100206Y0027469D01*
X0099531Y0026470D02*
X0098850Y0026470D01*
X0010500Y0056500D02*
X0010515Y0057752D01*
X0010561Y0059002D01*
X0010638Y0060252D01*
X0010746Y0061499D01*
X0010884Y0062743D01*
X0011052Y0063983D01*
X0011251Y0065219D01*
X0011480Y0066450D01*
X0011739Y0067674D01*
X0012028Y0068892D01*
X0012347Y0070102D01*
X0012696Y0071305D01*
X0013074Y0072498D01*
X0013481Y0073681D01*
X0013917Y0074855D01*
X0014382Y0076017D01*
X0014875Y0077167D01*
X0015397Y0078305D01*
X0015946Y0079430D01*
X0016522Y0080541D01*
X0017126Y0081638D01*
X0017756Y0082719D01*
X0018412Y0083785D01*
X0019095Y0084834D01*
X0019803Y0085866D01*
X0020536Y0086881D01*
X0021294Y0087877D01*
X0022076Y0088854D01*
X0022882Y0089812D01*
X0023711Y0090750D01*
X0024563Y0091667D01*
X0025438Y0092562D01*
X0026333Y0093437D01*
X0027250Y0094289D01*
X0028188Y0095118D01*
X0029146Y0095924D01*
X0030123Y0096706D01*
X0031119Y0097464D01*
X0032134Y0098197D01*
X0033166Y0098905D01*
X0034215Y0099588D01*
X0035281Y0100244D01*
X0036362Y0100874D01*
X0037459Y0101478D01*
X0038570Y0102054D01*
X0039695Y0102603D01*
X0040833Y0103125D01*
X0041983Y0103618D01*
X0043145Y0104083D01*
X0044319Y0104519D01*
X0045502Y0104926D01*
X0046695Y0105304D01*
X0047898Y0105653D01*
X0049108Y0105972D01*
X0050326Y0106261D01*
X0051550Y0106520D01*
X0052781Y0106749D01*
X0054017Y0106948D01*
X0055257Y0107116D01*
X0056501Y0107254D01*
X0057748Y0107362D01*
X0058998Y0107439D01*
X0060248Y0107485D01*
X0061500Y0107500D01*
X0062752Y0107485D01*
X0064002Y0107439D01*
X0065252Y0107362D01*
X0066499Y0107254D01*
X0067743Y0107116D01*
X0068983Y0106948D01*
X0070219Y0106749D01*
X0071450Y0106520D01*
X0072674Y0106261D01*
X0073892Y0105972D01*
X0075102Y0105653D01*
X0076305Y0105304D01*
X0077498Y0104926D01*
X0078681Y0104519D01*
X0079855Y0104083D01*
X0081017Y0103618D01*
X0082167Y0103125D01*
X0083305Y0102603D01*
X0084430Y0102054D01*
X0085541Y0101478D01*
X0086638Y0100874D01*
X0087719Y0100244D01*
X0088785Y0099588D01*
X0089834Y0098905D01*
X0090866Y0098197D01*
X0091881Y0097464D01*
X0092877Y0096706D01*
X0093854Y0095924D01*
X0094812Y0095118D01*
X0095750Y0094289D01*
X0096667Y0093437D01*
X0097562Y0092562D01*
X0098437Y0091667D01*
X0099289Y0090750D01*
X0100118Y0089812D01*
X0100924Y0088854D01*
X0101706Y0087877D01*
X0102464Y0086881D01*
X0103197Y0085866D01*
X0103905Y0084834D01*
X0104588Y0083785D01*
X0105244Y0082719D01*
X0105874Y0081638D01*
X0106478Y0080541D01*
X0107054Y0079430D01*
X0107603Y0078305D01*
X0108125Y0077167D01*
X0108618Y0076017D01*
X0109083Y0074855D01*
X0109519Y0073681D01*
X0109926Y0072498D01*
X0110304Y0071305D01*
X0110653Y0070102D01*
X0110972Y0068892D01*
X0111261Y0067674D01*
X0111520Y0066450D01*
X0111749Y0065219D01*
X0111948Y0063983D01*
X0112116Y0062743D01*
X0112254Y0061499D01*
X0112362Y0060252D01*
X0112439Y0059002D01*
X0112485Y0057752D01*
X0112500Y0056500D01*
X0112485Y0055248D01*
X0112439Y0053998D01*
X0112362Y0052748D01*
X0112254Y0051501D01*
X0112116Y0050257D01*
X0111948Y0049017D01*
X0111749Y0047781D01*
X0111520Y0046550D01*
X0111261Y0045326D01*
X0110972Y0044108D01*
X0110653Y0042898D01*
X0110304Y0041695D01*
X0109926Y0040502D01*
X0109519Y0039319D01*
X0109083Y0038145D01*
X0108618Y0036983D01*
X0108125Y0035833D01*
X0107603Y0034695D01*
X0107054Y0033570D01*
X0106478Y0032459D01*
X0105874Y0031362D01*
X0105244Y0030281D01*
X0104588Y0029215D01*
X0103905Y0028166D01*
X0103197Y0027134D01*
X0102464Y0026119D01*
X0101706Y0025123D01*
X0100924Y0024146D01*
X0100118Y0023188D01*
X0099289Y0022250D01*
X0098437Y0021333D01*
X0097562Y0020438D01*
X0096667Y0019563D01*
X0095750Y0018711D01*
X0094812Y0017882D01*
X0093854Y0017076D01*
X0092877Y0016294D01*
X0091881Y0015536D01*
X0090866Y0014803D01*
X0089834Y0014095D01*
X0088785Y0013412D01*
X0087719Y0012756D01*
X0086638Y0012126D01*
X0085541Y0011522D01*
X0084430Y0010946D01*
X0083305Y0010397D01*
X0082167Y0009875D01*
X0081017Y0009382D01*
X0079855Y0008917D01*
X0078681Y0008481D01*
X0077498Y0008074D01*
X0076305Y0007696D01*
X0075102Y0007347D01*
X0073892Y0007028D01*
X0072674Y0006739D01*
X0071450Y0006480D01*
X0070219Y0006251D01*
X0068983Y0006052D01*
X0067743Y0005884D01*
X0066499Y0005746D01*
X0065252Y0005638D01*
X0064002Y0005561D01*
X0062752Y0005515D01*
X0061500Y0005500D01*
X0060248Y0005515D01*
X0058998Y0005561D01*
X0057748Y0005638D01*
X0056501Y0005746D01*
X0055257Y0005884D01*
X0054017Y0006052D01*
X0052781Y0006251D01*
X0051550Y0006480D01*
X0050326Y0006739D01*
X0049108Y0007028D01*
X0047898Y0007347D01*
X0046695Y0007696D01*
X0045502Y0008074D01*
X0044319Y0008481D01*
X0043145Y0008917D01*
X0041983Y0009382D01*
X0040833Y0009875D01*
X0039695Y0010397D01*
X0038570Y0010946D01*
X0037459Y0011522D01*
X0036362Y0012126D01*
X0035281Y0012756D01*
X0034215Y0013412D01*
X0033166Y0014095D01*
X0032134Y0014803D01*
X0031119Y0015536D01*
X0030123Y0016294D01*
X0029146Y0017076D01*
X0028188Y0017882D01*
X0027250Y0018711D01*
X0026333Y0019563D01*
X0025438Y0020438D01*
X0024563Y0021333D01*
X0023711Y0022250D01*
X0022882Y0023188D01*
X0022076Y0024146D01*
X0021294Y0025123D01*
X0020536Y0026119D01*
X0019803Y0027134D01*
X0019095Y0028166D01*
X0018412Y0029215D01*
X0017756Y0030281D01*
X0017126Y0031362D01*
X0016522Y0032459D01*
X0015946Y0033570D01*
X0015397Y0034695D01*
X0014875Y0035833D01*
X0014382Y0036983D01*
X0013917Y0038145D01*
X0013481Y0039319D01*
X0013074Y0040502D01*
X0012696Y0041695D01*
X0012347Y0042898D01*
X0012028Y0044108D01*
X0011739Y0045326D01*
X0011480Y0046550D01*
X0011251Y0047781D01*
X0011052Y0049017D01*
X0010884Y0050257D01*
X0010746Y0051501D01*
X0010638Y0052748D01*
X0010561Y0053998D01*
X0010515Y0055248D01*
X0010500Y0056500D01*
D12*
X0028154Y0060000D03*
X0034846Y0060000D03*
X0034846Y0047000D03*
X0028154Y0047000D03*
X0088154Y0048000D03*
X0094846Y0048000D03*
X0094846Y0060000D03*
X0088154Y0060000D03*
D13*
X0067200Y0086500D03*
X0055800Y0086500D03*
D14*
X0061500Y0071972D03*
X0061894Y0031028D03*
D15*
X0053375Y0035875D02*
X0053375Y0057125D01*
X0061500Y0065250D01*
X0035875Y0059000D02*
X0035875Y0055875D01*
X0035875Y0059000D02*
X0035250Y0059625D01*
X0034846Y0060000D01*
X0028375Y0059625D02*
X0028154Y0060000D01*
X0028375Y0059625D02*
X0028375Y0052750D01*
X0028375Y0047125D01*
X0028154Y0047000D01*
X0034000Y0045875D02*
X0034000Y0042750D01*
X0034000Y0045875D02*
X0034625Y0046500D01*
X0034846Y0047000D01*
X0053375Y0035875D02*
X0045875Y0028375D01*
X0088154Y0048000D02*
X0088375Y0047750D01*
X0089000Y0047125D01*
X0089000Y0036500D01*
X0088375Y0055875D02*
X0088375Y0059625D01*
X0088154Y0060000D01*
D16*
X0088375Y0055875D03*
X0089000Y0036500D03*
X0079500Y0020500D03*
X0059500Y0017500D03*
X0045875Y0028375D03*
X0034000Y0042750D03*
X0030500Y0038500D03*
X0028375Y0052750D03*
X0035875Y0055875D03*
M02*
