G75*
%MOIN*%
%OFA0B0*%
%FSLAX25Y25*%
%IPPOS*%
%LPD*%
%AMOC8*
5,1,8,0,0,1.08239X$1,22.5*
%
%ADD10C,0.00000*%
%ADD11C,0.01000*%
%ADD12C,0.01600*%
%ADD13C,0.00800*%
%ADD14C,0.00500*%
%ADD15C,0.00600*%
%ADD16C,0.00300*%
%ADD17R,0.00787X0.00787*%
D10*
X0006500Y0001500D02*
X0006500Y0110201D01*
X0116421Y0110201D01*
X0116421Y0001500D01*
X0006500Y0001500D01*
X0026150Y0025500D02*
X0026152Y0025631D01*
X0026158Y0025763D01*
X0026168Y0025894D01*
X0026182Y0026024D01*
X0026200Y0026155D01*
X0026221Y0026284D01*
X0026247Y0026413D01*
X0026276Y0026541D01*
X0026310Y0026668D01*
X0026347Y0026794D01*
X0026388Y0026919D01*
X0026433Y0027043D01*
X0026481Y0027165D01*
X0026533Y0027285D01*
X0026589Y0027404D01*
X0026648Y0027522D01*
X0026711Y0027637D01*
X0026777Y0027750D01*
X0026847Y0027862D01*
X0026920Y0027971D01*
X0026996Y0028078D01*
X0027076Y0028183D01*
X0027158Y0028285D01*
X0027244Y0028385D01*
X0027333Y0028482D01*
X0027424Y0028576D01*
X0027518Y0028667D01*
X0027615Y0028756D01*
X0027715Y0028842D01*
X0027817Y0028924D01*
X0027922Y0029004D01*
X0028029Y0029080D01*
X0028138Y0029153D01*
X0028250Y0029223D01*
X0028363Y0029289D01*
X0028478Y0029352D01*
X0028596Y0029411D01*
X0028715Y0029467D01*
X0028835Y0029519D01*
X0028957Y0029567D01*
X0029081Y0029612D01*
X0029206Y0029653D01*
X0029332Y0029690D01*
X0029459Y0029724D01*
X0029587Y0029753D01*
X0029716Y0029779D01*
X0029845Y0029800D01*
X0029976Y0029818D01*
X0030106Y0029832D01*
X0030237Y0029842D01*
X0030369Y0029848D01*
X0030500Y0029850D01*
X0030631Y0029848D01*
X0030763Y0029842D01*
X0030894Y0029832D01*
X0031024Y0029818D01*
X0031155Y0029800D01*
X0031284Y0029779D01*
X0031413Y0029753D01*
X0031541Y0029724D01*
X0031668Y0029690D01*
X0031794Y0029653D01*
X0031919Y0029612D01*
X0032043Y0029567D01*
X0032165Y0029519D01*
X0032285Y0029467D01*
X0032404Y0029411D01*
X0032522Y0029352D01*
X0032637Y0029289D01*
X0032750Y0029223D01*
X0032862Y0029153D01*
X0032971Y0029080D01*
X0033078Y0029004D01*
X0033183Y0028924D01*
X0033285Y0028842D01*
X0033385Y0028756D01*
X0033482Y0028667D01*
X0033576Y0028576D01*
X0033667Y0028482D01*
X0033756Y0028385D01*
X0033842Y0028285D01*
X0033924Y0028183D01*
X0034004Y0028078D01*
X0034080Y0027971D01*
X0034153Y0027862D01*
X0034223Y0027750D01*
X0034289Y0027637D01*
X0034352Y0027522D01*
X0034411Y0027404D01*
X0034467Y0027285D01*
X0034519Y0027165D01*
X0034567Y0027043D01*
X0034612Y0026919D01*
X0034653Y0026794D01*
X0034690Y0026668D01*
X0034724Y0026541D01*
X0034753Y0026413D01*
X0034779Y0026284D01*
X0034800Y0026155D01*
X0034818Y0026024D01*
X0034832Y0025894D01*
X0034842Y0025763D01*
X0034848Y0025631D01*
X0034850Y0025500D01*
X0034848Y0025369D01*
X0034842Y0025237D01*
X0034832Y0025106D01*
X0034818Y0024976D01*
X0034800Y0024845D01*
X0034779Y0024716D01*
X0034753Y0024587D01*
X0034724Y0024459D01*
X0034690Y0024332D01*
X0034653Y0024206D01*
X0034612Y0024081D01*
X0034567Y0023957D01*
X0034519Y0023835D01*
X0034467Y0023715D01*
X0034411Y0023596D01*
X0034352Y0023478D01*
X0034289Y0023363D01*
X0034223Y0023250D01*
X0034153Y0023138D01*
X0034080Y0023029D01*
X0034004Y0022922D01*
X0033924Y0022817D01*
X0033842Y0022715D01*
X0033756Y0022615D01*
X0033667Y0022518D01*
X0033576Y0022424D01*
X0033482Y0022333D01*
X0033385Y0022244D01*
X0033285Y0022158D01*
X0033183Y0022076D01*
X0033078Y0021996D01*
X0032971Y0021920D01*
X0032862Y0021847D01*
X0032750Y0021777D01*
X0032637Y0021711D01*
X0032522Y0021648D01*
X0032404Y0021589D01*
X0032285Y0021533D01*
X0032165Y0021481D01*
X0032043Y0021433D01*
X0031919Y0021388D01*
X0031794Y0021347D01*
X0031668Y0021310D01*
X0031541Y0021276D01*
X0031413Y0021247D01*
X0031284Y0021221D01*
X0031155Y0021200D01*
X0031024Y0021182D01*
X0030894Y0021168D01*
X0030763Y0021158D01*
X0030631Y0021152D01*
X0030500Y0021150D01*
X0030369Y0021152D01*
X0030237Y0021158D01*
X0030106Y0021168D01*
X0029976Y0021182D01*
X0029845Y0021200D01*
X0029716Y0021221D01*
X0029587Y0021247D01*
X0029459Y0021276D01*
X0029332Y0021310D01*
X0029206Y0021347D01*
X0029081Y0021388D01*
X0028957Y0021433D01*
X0028835Y0021481D01*
X0028715Y0021533D01*
X0028596Y0021589D01*
X0028478Y0021648D01*
X0028363Y0021711D01*
X0028250Y0021777D01*
X0028138Y0021847D01*
X0028029Y0021920D01*
X0027922Y0021996D01*
X0027817Y0022076D01*
X0027715Y0022158D01*
X0027615Y0022244D01*
X0027518Y0022333D01*
X0027424Y0022424D01*
X0027333Y0022518D01*
X0027244Y0022615D01*
X0027158Y0022715D01*
X0027076Y0022817D01*
X0026996Y0022922D01*
X0026920Y0023029D01*
X0026847Y0023138D01*
X0026777Y0023250D01*
X0026711Y0023363D01*
X0026648Y0023478D01*
X0026589Y0023596D01*
X0026533Y0023715D01*
X0026481Y0023835D01*
X0026433Y0023957D01*
X0026388Y0024081D01*
X0026347Y0024206D01*
X0026310Y0024332D01*
X0026276Y0024459D01*
X0026247Y0024587D01*
X0026221Y0024716D01*
X0026200Y0024845D01*
X0026182Y0024976D01*
X0026168Y0025106D01*
X0026158Y0025237D01*
X0026152Y0025369D01*
X0026150Y0025500D01*
X0088150Y0025500D02*
X0088152Y0025631D01*
X0088158Y0025763D01*
X0088168Y0025894D01*
X0088182Y0026024D01*
X0088200Y0026155D01*
X0088221Y0026284D01*
X0088247Y0026413D01*
X0088276Y0026541D01*
X0088310Y0026668D01*
X0088347Y0026794D01*
X0088388Y0026919D01*
X0088433Y0027043D01*
X0088481Y0027165D01*
X0088533Y0027285D01*
X0088589Y0027404D01*
X0088648Y0027522D01*
X0088711Y0027637D01*
X0088777Y0027750D01*
X0088847Y0027862D01*
X0088920Y0027971D01*
X0088996Y0028078D01*
X0089076Y0028183D01*
X0089158Y0028285D01*
X0089244Y0028385D01*
X0089333Y0028482D01*
X0089424Y0028576D01*
X0089518Y0028667D01*
X0089615Y0028756D01*
X0089715Y0028842D01*
X0089817Y0028924D01*
X0089922Y0029004D01*
X0090029Y0029080D01*
X0090138Y0029153D01*
X0090250Y0029223D01*
X0090363Y0029289D01*
X0090478Y0029352D01*
X0090596Y0029411D01*
X0090715Y0029467D01*
X0090835Y0029519D01*
X0090957Y0029567D01*
X0091081Y0029612D01*
X0091206Y0029653D01*
X0091332Y0029690D01*
X0091459Y0029724D01*
X0091587Y0029753D01*
X0091716Y0029779D01*
X0091845Y0029800D01*
X0091976Y0029818D01*
X0092106Y0029832D01*
X0092237Y0029842D01*
X0092369Y0029848D01*
X0092500Y0029850D01*
X0092631Y0029848D01*
X0092763Y0029842D01*
X0092894Y0029832D01*
X0093024Y0029818D01*
X0093155Y0029800D01*
X0093284Y0029779D01*
X0093413Y0029753D01*
X0093541Y0029724D01*
X0093668Y0029690D01*
X0093794Y0029653D01*
X0093919Y0029612D01*
X0094043Y0029567D01*
X0094165Y0029519D01*
X0094285Y0029467D01*
X0094404Y0029411D01*
X0094522Y0029352D01*
X0094637Y0029289D01*
X0094750Y0029223D01*
X0094862Y0029153D01*
X0094971Y0029080D01*
X0095078Y0029004D01*
X0095183Y0028924D01*
X0095285Y0028842D01*
X0095385Y0028756D01*
X0095482Y0028667D01*
X0095576Y0028576D01*
X0095667Y0028482D01*
X0095756Y0028385D01*
X0095842Y0028285D01*
X0095924Y0028183D01*
X0096004Y0028078D01*
X0096080Y0027971D01*
X0096153Y0027862D01*
X0096223Y0027750D01*
X0096289Y0027637D01*
X0096352Y0027522D01*
X0096411Y0027404D01*
X0096467Y0027285D01*
X0096519Y0027165D01*
X0096567Y0027043D01*
X0096612Y0026919D01*
X0096653Y0026794D01*
X0096690Y0026668D01*
X0096724Y0026541D01*
X0096753Y0026413D01*
X0096779Y0026284D01*
X0096800Y0026155D01*
X0096818Y0026024D01*
X0096832Y0025894D01*
X0096842Y0025763D01*
X0096848Y0025631D01*
X0096850Y0025500D01*
X0096848Y0025369D01*
X0096842Y0025237D01*
X0096832Y0025106D01*
X0096818Y0024976D01*
X0096800Y0024845D01*
X0096779Y0024716D01*
X0096753Y0024587D01*
X0096724Y0024459D01*
X0096690Y0024332D01*
X0096653Y0024206D01*
X0096612Y0024081D01*
X0096567Y0023957D01*
X0096519Y0023835D01*
X0096467Y0023715D01*
X0096411Y0023596D01*
X0096352Y0023478D01*
X0096289Y0023363D01*
X0096223Y0023250D01*
X0096153Y0023138D01*
X0096080Y0023029D01*
X0096004Y0022922D01*
X0095924Y0022817D01*
X0095842Y0022715D01*
X0095756Y0022615D01*
X0095667Y0022518D01*
X0095576Y0022424D01*
X0095482Y0022333D01*
X0095385Y0022244D01*
X0095285Y0022158D01*
X0095183Y0022076D01*
X0095078Y0021996D01*
X0094971Y0021920D01*
X0094862Y0021847D01*
X0094750Y0021777D01*
X0094637Y0021711D01*
X0094522Y0021648D01*
X0094404Y0021589D01*
X0094285Y0021533D01*
X0094165Y0021481D01*
X0094043Y0021433D01*
X0093919Y0021388D01*
X0093794Y0021347D01*
X0093668Y0021310D01*
X0093541Y0021276D01*
X0093413Y0021247D01*
X0093284Y0021221D01*
X0093155Y0021200D01*
X0093024Y0021182D01*
X0092894Y0021168D01*
X0092763Y0021158D01*
X0092631Y0021152D01*
X0092500Y0021150D01*
X0092369Y0021152D01*
X0092237Y0021158D01*
X0092106Y0021168D01*
X0091976Y0021182D01*
X0091845Y0021200D01*
X0091716Y0021221D01*
X0091587Y0021247D01*
X0091459Y0021276D01*
X0091332Y0021310D01*
X0091206Y0021347D01*
X0091081Y0021388D01*
X0090957Y0021433D01*
X0090835Y0021481D01*
X0090715Y0021533D01*
X0090596Y0021589D01*
X0090478Y0021648D01*
X0090363Y0021711D01*
X0090250Y0021777D01*
X0090138Y0021847D01*
X0090029Y0021920D01*
X0089922Y0021996D01*
X0089817Y0022076D01*
X0089715Y0022158D01*
X0089615Y0022244D01*
X0089518Y0022333D01*
X0089424Y0022424D01*
X0089333Y0022518D01*
X0089244Y0022615D01*
X0089158Y0022715D01*
X0089076Y0022817D01*
X0088996Y0022922D01*
X0088920Y0023029D01*
X0088847Y0023138D01*
X0088777Y0023250D01*
X0088711Y0023363D01*
X0088648Y0023478D01*
X0088589Y0023596D01*
X0088533Y0023715D01*
X0088481Y0023835D01*
X0088433Y0023957D01*
X0088388Y0024081D01*
X0088347Y0024206D01*
X0088310Y0024332D01*
X0088276Y0024459D01*
X0088247Y0024587D01*
X0088221Y0024716D01*
X0088200Y0024845D01*
X0088182Y0024976D01*
X0088168Y0025106D01*
X0088158Y0025237D01*
X0088152Y0025369D01*
X0088150Y0025500D01*
X0088150Y0087500D02*
X0088152Y0087631D01*
X0088158Y0087763D01*
X0088168Y0087894D01*
X0088182Y0088024D01*
X0088200Y0088155D01*
X0088221Y0088284D01*
X0088247Y0088413D01*
X0088276Y0088541D01*
X0088310Y0088668D01*
X0088347Y0088794D01*
X0088388Y0088919D01*
X0088433Y0089043D01*
X0088481Y0089165D01*
X0088533Y0089285D01*
X0088589Y0089404D01*
X0088648Y0089522D01*
X0088711Y0089637D01*
X0088777Y0089750D01*
X0088847Y0089862D01*
X0088920Y0089971D01*
X0088996Y0090078D01*
X0089076Y0090183D01*
X0089158Y0090285D01*
X0089244Y0090385D01*
X0089333Y0090482D01*
X0089424Y0090576D01*
X0089518Y0090667D01*
X0089615Y0090756D01*
X0089715Y0090842D01*
X0089817Y0090924D01*
X0089922Y0091004D01*
X0090029Y0091080D01*
X0090138Y0091153D01*
X0090250Y0091223D01*
X0090363Y0091289D01*
X0090478Y0091352D01*
X0090596Y0091411D01*
X0090715Y0091467D01*
X0090835Y0091519D01*
X0090957Y0091567D01*
X0091081Y0091612D01*
X0091206Y0091653D01*
X0091332Y0091690D01*
X0091459Y0091724D01*
X0091587Y0091753D01*
X0091716Y0091779D01*
X0091845Y0091800D01*
X0091976Y0091818D01*
X0092106Y0091832D01*
X0092237Y0091842D01*
X0092369Y0091848D01*
X0092500Y0091850D01*
X0092631Y0091848D01*
X0092763Y0091842D01*
X0092894Y0091832D01*
X0093024Y0091818D01*
X0093155Y0091800D01*
X0093284Y0091779D01*
X0093413Y0091753D01*
X0093541Y0091724D01*
X0093668Y0091690D01*
X0093794Y0091653D01*
X0093919Y0091612D01*
X0094043Y0091567D01*
X0094165Y0091519D01*
X0094285Y0091467D01*
X0094404Y0091411D01*
X0094522Y0091352D01*
X0094637Y0091289D01*
X0094750Y0091223D01*
X0094862Y0091153D01*
X0094971Y0091080D01*
X0095078Y0091004D01*
X0095183Y0090924D01*
X0095285Y0090842D01*
X0095385Y0090756D01*
X0095482Y0090667D01*
X0095576Y0090576D01*
X0095667Y0090482D01*
X0095756Y0090385D01*
X0095842Y0090285D01*
X0095924Y0090183D01*
X0096004Y0090078D01*
X0096080Y0089971D01*
X0096153Y0089862D01*
X0096223Y0089750D01*
X0096289Y0089637D01*
X0096352Y0089522D01*
X0096411Y0089404D01*
X0096467Y0089285D01*
X0096519Y0089165D01*
X0096567Y0089043D01*
X0096612Y0088919D01*
X0096653Y0088794D01*
X0096690Y0088668D01*
X0096724Y0088541D01*
X0096753Y0088413D01*
X0096779Y0088284D01*
X0096800Y0088155D01*
X0096818Y0088024D01*
X0096832Y0087894D01*
X0096842Y0087763D01*
X0096848Y0087631D01*
X0096850Y0087500D01*
X0096848Y0087369D01*
X0096842Y0087237D01*
X0096832Y0087106D01*
X0096818Y0086976D01*
X0096800Y0086845D01*
X0096779Y0086716D01*
X0096753Y0086587D01*
X0096724Y0086459D01*
X0096690Y0086332D01*
X0096653Y0086206D01*
X0096612Y0086081D01*
X0096567Y0085957D01*
X0096519Y0085835D01*
X0096467Y0085715D01*
X0096411Y0085596D01*
X0096352Y0085478D01*
X0096289Y0085363D01*
X0096223Y0085250D01*
X0096153Y0085138D01*
X0096080Y0085029D01*
X0096004Y0084922D01*
X0095924Y0084817D01*
X0095842Y0084715D01*
X0095756Y0084615D01*
X0095667Y0084518D01*
X0095576Y0084424D01*
X0095482Y0084333D01*
X0095385Y0084244D01*
X0095285Y0084158D01*
X0095183Y0084076D01*
X0095078Y0083996D01*
X0094971Y0083920D01*
X0094862Y0083847D01*
X0094750Y0083777D01*
X0094637Y0083711D01*
X0094522Y0083648D01*
X0094404Y0083589D01*
X0094285Y0083533D01*
X0094165Y0083481D01*
X0094043Y0083433D01*
X0093919Y0083388D01*
X0093794Y0083347D01*
X0093668Y0083310D01*
X0093541Y0083276D01*
X0093413Y0083247D01*
X0093284Y0083221D01*
X0093155Y0083200D01*
X0093024Y0083182D01*
X0092894Y0083168D01*
X0092763Y0083158D01*
X0092631Y0083152D01*
X0092500Y0083150D01*
X0092369Y0083152D01*
X0092237Y0083158D01*
X0092106Y0083168D01*
X0091976Y0083182D01*
X0091845Y0083200D01*
X0091716Y0083221D01*
X0091587Y0083247D01*
X0091459Y0083276D01*
X0091332Y0083310D01*
X0091206Y0083347D01*
X0091081Y0083388D01*
X0090957Y0083433D01*
X0090835Y0083481D01*
X0090715Y0083533D01*
X0090596Y0083589D01*
X0090478Y0083648D01*
X0090363Y0083711D01*
X0090250Y0083777D01*
X0090138Y0083847D01*
X0090029Y0083920D01*
X0089922Y0083996D01*
X0089817Y0084076D01*
X0089715Y0084158D01*
X0089615Y0084244D01*
X0089518Y0084333D01*
X0089424Y0084424D01*
X0089333Y0084518D01*
X0089244Y0084615D01*
X0089158Y0084715D01*
X0089076Y0084817D01*
X0088996Y0084922D01*
X0088920Y0085029D01*
X0088847Y0085138D01*
X0088777Y0085250D01*
X0088711Y0085363D01*
X0088648Y0085478D01*
X0088589Y0085596D01*
X0088533Y0085715D01*
X0088481Y0085835D01*
X0088433Y0085957D01*
X0088388Y0086081D01*
X0088347Y0086206D01*
X0088310Y0086332D01*
X0088276Y0086459D01*
X0088247Y0086587D01*
X0088221Y0086716D01*
X0088200Y0086845D01*
X0088182Y0086976D01*
X0088168Y0087106D01*
X0088158Y0087237D01*
X0088152Y0087369D01*
X0088150Y0087500D01*
X0026150Y0087500D02*
X0026152Y0087631D01*
X0026158Y0087763D01*
X0026168Y0087894D01*
X0026182Y0088024D01*
X0026200Y0088155D01*
X0026221Y0088284D01*
X0026247Y0088413D01*
X0026276Y0088541D01*
X0026310Y0088668D01*
X0026347Y0088794D01*
X0026388Y0088919D01*
X0026433Y0089043D01*
X0026481Y0089165D01*
X0026533Y0089285D01*
X0026589Y0089404D01*
X0026648Y0089522D01*
X0026711Y0089637D01*
X0026777Y0089750D01*
X0026847Y0089862D01*
X0026920Y0089971D01*
X0026996Y0090078D01*
X0027076Y0090183D01*
X0027158Y0090285D01*
X0027244Y0090385D01*
X0027333Y0090482D01*
X0027424Y0090576D01*
X0027518Y0090667D01*
X0027615Y0090756D01*
X0027715Y0090842D01*
X0027817Y0090924D01*
X0027922Y0091004D01*
X0028029Y0091080D01*
X0028138Y0091153D01*
X0028250Y0091223D01*
X0028363Y0091289D01*
X0028478Y0091352D01*
X0028596Y0091411D01*
X0028715Y0091467D01*
X0028835Y0091519D01*
X0028957Y0091567D01*
X0029081Y0091612D01*
X0029206Y0091653D01*
X0029332Y0091690D01*
X0029459Y0091724D01*
X0029587Y0091753D01*
X0029716Y0091779D01*
X0029845Y0091800D01*
X0029976Y0091818D01*
X0030106Y0091832D01*
X0030237Y0091842D01*
X0030369Y0091848D01*
X0030500Y0091850D01*
X0030631Y0091848D01*
X0030763Y0091842D01*
X0030894Y0091832D01*
X0031024Y0091818D01*
X0031155Y0091800D01*
X0031284Y0091779D01*
X0031413Y0091753D01*
X0031541Y0091724D01*
X0031668Y0091690D01*
X0031794Y0091653D01*
X0031919Y0091612D01*
X0032043Y0091567D01*
X0032165Y0091519D01*
X0032285Y0091467D01*
X0032404Y0091411D01*
X0032522Y0091352D01*
X0032637Y0091289D01*
X0032750Y0091223D01*
X0032862Y0091153D01*
X0032971Y0091080D01*
X0033078Y0091004D01*
X0033183Y0090924D01*
X0033285Y0090842D01*
X0033385Y0090756D01*
X0033482Y0090667D01*
X0033576Y0090576D01*
X0033667Y0090482D01*
X0033756Y0090385D01*
X0033842Y0090285D01*
X0033924Y0090183D01*
X0034004Y0090078D01*
X0034080Y0089971D01*
X0034153Y0089862D01*
X0034223Y0089750D01*
X0034289Y0089637D01*
X0034352Y0089522D01*
X0034411Y0089404D01*
X0034467Y0089285D01*
X0034519Y0089165D01*
X0034567Y0089043D01*
X0034612Y0088919D01*
X0034653Y0088794D01*
X0034690Y0088668D01*
X0034724Y0088541D01*
X0034753Y0088413D01*
X0034779Y0088284D01*
X0034800Y0088155D01*
X0034818Y0088024D01*
X0034832Y0087894D01*
X0034842Y0087763D01*
X0034848Y0087631D01*
X0034850Y0087500D01*
X0034848Y0087369D01*
X0034842Y0087237D01*
X0034832Y0087106D01*
X0034818Y0086976D01*
X0034800Y0086845D01*
X0034779Y0086716D01*
X0034753Y0086587D01*
X0034724Y0086459D01*
X0034690Y0086332D01*
X0034653Y0086206D01*
X0034612Y0086081D01*
X0034567Y0085957D01*
X0034519Y0085835D01*
X0034467Y0085715D01*
X0034411Y0085596D01*
X0034352Y0085478D01*
X0034289Y0085363D01*
X0034223Y0085250D01*
X0034153Y0085138D01*
X0034080Y0085029D01*
X0034004Y0084922D01*
X0033924Y0084817D01*
X0033842Y0084715D01*
X0033756Y0084615D01*
X0033667Y0084518D01*
X0033576Y0084424D01*
X0033482Y0084333D01*
X0033385Y0084244D01*
X0033285Y0084158D01*
X0033183Y0084076D01*
X0033078Y0083996D01*
X0032971Y0083920D01*
X0032862Y0083847D01*
X0032750Y0083777D01*
X0032637Y0083711D01*
X0032522Y0083648D01*
X0032404Y0083589D01*
X0032285Y0083533D01*
X0032165Y0083481D01*
X0032043Y0083433D01*
X0031919Y0083388D01*
X0031794Y0083347D01*
X0031668Y0083310D01*
X0031541Y0083276D01*
X0031413Y0083247D01*
X0031284Y0083221D01*
X0031155Y0083200D01*
X0031024Y0083182D01*
X0030894Y0083168D01*
X0030763Y0083158D01*
X0030631Y0083152D01*
X0030500Y0083150D01*
X0030369Y0083152D01*
X0030237Y0083158D01*
X0030106Y0083168D01*
X0029976Y0083182D01*
X0029845Y0083200D01*
X0029716Y0083221D01*
X0029587Y0083247D01*
X0029459Y0083276D01*
X0029332Y0083310D01*
X0029206Y0083347D01*
X0029081Y0083388D01*
X0028957Y0083433D01*
X0028835Y0083481D01*
X0028715Y0083533D01*
X0028596Y0083589D01*
X0028478Y0083648D01*
X0028363Y0083711D01*
X0028250Y0083777D01*
X0028138Y0083847D01*
X0028029Y0083920D01*
X0027922Y0083996D01*
X0027817Y0084076D01*
X0027715Y0084158D01*
X0027615Y0084244D01*
X0027518Y0084333D01*
X0027424Y0084424D01*
X0027333Y0084518D01*
X0027244Y0084615D01*
X0027158Y0084715D01*
X0027076Y0084817D01*
X0026996Y0084922D01*
X0026920Y0085029D01*
X0026847Y0085138D01*
X0026777Y0085250D01*
X0026711Y0085363D01*
X0026648Y0085478D01*
X0026589Y0085596D01*
X0026533Y0085715D01*
X0026481Y0085835D01*
X0026433Y0085957D01*
X0026388Y0086081D01*
X0026347Y0086206D01*
X0026310Y0086332D01*
X0026276Y0086459D01*
X0026247Y0086587D01*
X0026221Y0086716D01*
X0026200Y0086845D01*
X0026182Y0086976D01*
X0026168Y0087106D01*
X0026158Y0087237D01*
X0026152Y0087369D01*
X0026150Y0087500D01*
D11*
X0010500Y0056500D02*
X0010515Y0057752D01*
X0010561Y0059002D01*
X0010638Y0060252D01*
X0010746Y0061499D01*
X0010884Y0062743D01*
X0011052Y0063983D01*
X0011251Y0065219D01*
X0011480Y0066450D01*
X0011739Y0067674D01*
X0012028Y0068892D01*
X0012347Y0070102D01*
X0012696Y0071305D01*
X0013074Y0072498D01*
X0013481Y0073681D01*
X0013917Y0074855D01*
X0014382Y0076017D01*
X0014875Y0077167D01*
X0015397Y0078305D01*
X0015946Y0079430D01*
X0016522Y0080541D01*
X0017126Y0081638D01*
X0017756Y0082719D01*
X0018412Y0083785D01*
X0019095Y0084834D01*
X0019803Y0085866D01*
X0020536Y0086881D01*
X0021294Y0087877D01*
X0022076Y0088854D01*
X0022882Y0089812D01*
X0023711Y0090750D01*
X0024563Y0091667D01*
X0025438Y0092562D01*
X0026333Y0093437D01*
X0027250Y0094289D01*
X0028188Y0095118D01*
X0029146Y0095924D01*
X0030123Y0096706D01*
X0031119Y0097464D01*
X0032134Y0098197D01*
X0033166Y0098905D01*
X0034215Y0099588D01*
X0035281Y0100244D01*
X0036362Y0100874D01*
X0037459Y0101478D01*
X0038570Y0102054D01*
X0039695Y0102603D01*
X0040833Y0103125D01*
X0041983Y0103618D01*
X0043145Y0104083D01*
X0044319Y0104519D01*
X0045502Y0104926D01*
X0046695Y0105304D01*
X0047898Y0105653D01*
X0049108Y0105972D01*
X0050326Y0106261D01*
X0051550Y0106520D01*
X0052781Y0106749D01*
X0054017Y0106948D01*
X0055257Y0107116D01*
X0056501Y0107254D01*
X0057748Y0107362D01*
X0058998Y0107439D01*
X0060248Y0107485D01*
X0061500Y0107500D01*
X0062752Y0107485D01*
X0064002Y0107439D01*
X0065252Y0107362D01*
X0066499Y0107254D01*
X0067743Y0107116D01*
X0068983Y0106948D01*
X0070219Y0106749D01*
X0071450Y0106520D01*
X0072674Y0106261D01*
X0073892Y0105972D01*
X0075102Y0105653D01*
X0076305Y0105304D01*
X0077498Y0104926D01*
X0078681Y0104519D01*
X0079855Y0104083D01*
X0081017Y0103618D01*
X0082167Y0103125D01*
X0083305Y0102603D01*
X0084430Y0102054D01*
X0085541Y0101478D01*
X0086638Y0100874D01*
X0087719Y0100244D01*
X0088785Y0099588D01*
X0089834Y0098905D01*
X0090866Y0098197D01*
X0091881Y0097464D01*
X0092877Y0096706D01*
X0093854Y0095924D01*
X0094812Y0095118D01*
X0095750Y0094289D01*
X0096667Y0093437D01*
X0097562Y0092562D01*
X0098437Y0091667D01*
X0099289Y0090750D01*
X0100118Y0089812D01*
X0100924Y0088854D01*
X0101706Y0087877D01*
X0102464Y0086881D01*
X0103197Y0085866D01*
X0103905Y0084834D01*
X0104588Y0083785D01*
X0105244Y0082719D01*
X0105874Y0081638D01*
X0106478Y0080541D01*
X0107054Y0079430D01*
X0107603Y0078305D01*
X0108125Y0077167D01*
X0108618Y0076017D01*
X0109083Y0074855D01*
X0109519Y0073681D01*
X0109926Y0072498D01*
X0110304Y0071305D01*
X0110653Y0070102D01*
X0110972Y0068892D01*
X0111261Y0067674D01*
X0111520Y0066450D01*
X0111749Y0065219D01*
X0111948Y0063983D01*
X0112116Y0062743D01*
X0112254Y0061499D01*
X0112362Y0060252D01*
X0112439Y0059002D01*
X0112485Y0057752D01*
X0112500Y0056500D01*
X0112485Y0055248D01*
X0112439Y0053998D01*
X0112362Y0052748D01*
X0112254Y0051501D01*
X0112116Y0050257D01*
X0111948Y0049017D01*
X0111749Y0047781D01*
X0111520Y0046550D01*
X0111261Y0045326D01*
X0110972Y0044108D01*
X0110653Y0042898D01*
X0110304Y0041695D01*
X0109926Y0040502D01*
X0109519Y0039319D01*
X0109083Y0038145D01*
X0108618Y0036983D01*
X0108125Y0035833D01*
X0107603Y0034695D01*
X0107054Y0033570D01*
X0106478Y0032459D01*
X0105874Y0031362D01*
X0105244Y0030281D01*
X0104588Y0029215D01*
X0103905Y0028166D01*
X0103197Y0027134D01*
X0102464Y0026119D01*
X0101706Y0025123D01*
X0100924Y0024146D01*
X0100118Y0023188D01*
X0099289Y0022250D01*
X0098437Y0021333D01*
X0097562Y0020438D01*
X0096667Y0019563D01*
X0095750Y0018711D01*
X0094812Y0017882D01*
X0093854Y0017076D01*
X0092877Y0016294D01*
X0091881Y0015536D01*
X0090866Y0014803D01*
X0089834Y0014095D01*
X0088785Y0013412D01*
X0087719Y0012756D01*
X0086638Y0012126D01*
X0085541Y0011522D01*
X0084430Y0010946D01*
X0083305Y0010397D01*
X0082167Y0009875D01*
X0081017Y0009382D01*
X0079855Y0008917D01*
X0078681Y0008481D01*
X0077498Y0008074D01*
X0076305Y0007696D01*
X0075102Y0007347D01*
X0073892Y0007028D01*
X0072674Y0006739D01*
X0071450Y0006480D01*
X0070219Y0006251D01*
X0068983Y0006052D01*
X0067743Y0005884D01*
X0066499Y0005746D01*
X0065252Y0005638D01*
X0064002Y0005561D01*
X0062752Y0005515D01*
X0061500Y0005500D01*
X0060248Y0005515D01*
X0058998Y0005561D01*
X0057748Y0005638D01*
X0056501Y0005746D01*
X0055257Y0005884D01*
X0054017Y0006052D01*
X0052781Y0006251D01*
X0051550Y0006480D01*
X0050326Y0006739D01*
X0049108Y0007028D01*
X0047898Y0007347D01*
X0046695Y0007696D01*
X0045502Y0008074D01*
X0044319Y0008481D01*
X0043145Y0008917D01*
X0041983Y0009382D01*
X0040833Y0009875D01*
X0039695Y0010397D01*
X0038570Y0010946D01*
X0037459Y0011522D01*
X0036362Y0012126D01*
X0035281Y0012756D01*
X0034215Y0013412D01*
X0033166Y0014095D01*
X0032134Y0014803D01*
X0031119Y0015536D01*
X0030123Y0016294D01*
X0029146Y0017076D01*
X0028188Y0017882D01*
X0027250Y0018711D01*
X0026333Y0019563D01*
X0025438Y0020438D01*
X0024563Y0021333D01*
X0023711Y0022250D01*
X0022882Y0023188D01*
X0022076Y0024146D01*
X0021294Y0025123D01*
X0020536Y0026119D01*
X0019803Y0027134D01*
X0019095Y0028166D01*
X0018412Y0029215D01*
X0017756Y0030281D01*
X0017126Y0031362D01*
X0016522Y0032459D01*
X0015946Y0033570D01*
X0015397Y0034695D01*
X0014875Y0035833D01*
X0014382Y0036983D01*
X0013917Y0038145D01*
X0013481Y0039319D01*
X0013074Y0040502D01*
X0012696Y0041695D01*
X0012347Y0042898D01*
X0012028Y0044108D01*
X0011739Y0045326D01*
X0011480Y0046550D01*
X0011251Y0047781D01*
X0011052Y0049017D01*
X0010884Y0050257D01*
X0010746Y0051501D01*
X0010638Y0052748D01*
X0010561Y0053998D01*
X0010515Y0055248D01*
X0010500Y0056500D01*
D12*
X0042593Y0068300D02*
X0042595Y0068353D01*
X0042601Y0068405D01*
X0042611Y0068457D01*
X0042624Y0068508D01*
X0042642Y0068558D01*
X0042663Y0068607D01*
X0042688Y0068654D01*
X0042716Y0068698D01*
X0042747Y0068741D01*
X0042782Y0068781D01*
X0042819Y0068818D01*
X0042859Y0068853D01*
X0042902Y0068884D01*
X0042947Y0068912D01*
X0042993Y0068937D01*
X0043042Y0068958D01*
X0043092Y0068976D01*
X0043143Y0068989D01*
X0043195Y0068999D01*
X0043247Y0069005D01*
X0043300Y0069007D01*
X0043353Y0069005D01*
X0043405Y0068999D01*
X0043457Y0068989D01*
X0043508Y0068976D01*
X0043558Y0068958D01*
X0043607Y0068937D01*
X0043654Y0068912D01*
X0043698Y0068884D01*
X0043741Y0068853D01*
X0043781Y0068818D01*
X0043818Y0068781D01*
X0043853Y0068741D01*
X0043884Y0068698D01*
X0043912Y0068653D01*
X0043937Y0068607D01*
X0043958Y0068558D01*
X0043976Y0068508D01*
X0043989Y0068457D01*
X0043999Y0068405D01*
X0044005Y0068353D01*
X0044007Y0068300D01*
X0044005Y0068247D01*
X0043999Y0068195D01*
X0043989Y0068143D01*
X0043976Y0068092D01*
X0043958Y0068042D01*
X0043937Y0067993D01*
X0043912Y0067946D01*
X0043884Y0067902D01*
X0043853Y0067859D01*
X0043818Y0067819D01*
X0043781Y0067782D01*
X0043741Y0067747D01*
X0043698Y0067716D01*
X0043653Y0067688D01*
X0043607Y0067663D01*
X0043558Y0067642D01*
X0043508Y0067624D01*
X0043457Y0067611D01*
X0043405Y0067601D01*
X0043353Y0067595D01*
X0043300Y0067593D01*
X0043247Y0067595D01*
X0043195Y0067601D01*
X0043143Y0067611D01*
X0043092Y0067624D01*
X0043042Y0067642D01*
X0042993Y0067663D01*
X0042946Y0067688D01*
X0042902Y0067716D01*
X0042859Y0067747D01*
X0042819Y0067782D01*
X0042782Y0067819D01*
X0042747Y0067859D01*
X0042716Y0067902D01*
X0042688Y0067947D01*
X0042663Y0067993D01*
X0042642Y0068042D01*
X0042624Y0068092D01*
X0042611Y0068143D01*
X0042601Y0068195D01*
X0042595Y0068247D01*
X0042593Y0068300D01*
X0049093Y0037200D02*
X0049095Y0037253D01*
X0049101Y0037305D01*
X0049111Y0037357D01*
X0049124Y0037408D01*
X0049142Y0037458D01*
X0049163Y0037507D01*
X0049188Y0037554D01*
X0049216Y0037598D01*
X0049247Y0037641D01*
X0049282Y0037681D01*
X0049319Y0037718D01*
X0049359Y0037753D01*
X0049402Y0037784D01*
X0049447Y0037812D01*
X0049493Y0037837D01*
X0049542Y0037858D01*
X0049592Y0037876D01*
X0049643Y0037889D01*
X0049695Y0037899D01*
X0049747Y0037905D01*
X0049800Y0037907D01*
X0049853Y0037905D01*
X0049905Y0037899D01*
X0049957Y0037889D01*
X0050008Y0037876D01*
X0050058Y0037858D01*
X0050107Y0037837D01*
X0050154Y0037812D01*
X0050198Y0037784D01*
X0050241Y0037753D01*
X0050281Y0037718D01*
X0050318Y0037681D01*
X0050353Y0037641D01*
X0050384Y0037598D01*
X0050412Y0037553D01*
X0050437Y0037507D01*
X0050458Y0037458D01*
X0050476Y0037408D01*
X0050489Y0037357D01*
X0050499Y0037305D01*
X0050505Y0037253D01*
X0050507Y0037200D01*
X0050505Y0037147D01*
X0050499Y0037095D01*
X0050489Y0037043D01*
X0050476Y0036992D01*
X0050458Y0036942D01*
X0050437Y0036893D01*
X0050412Y0036846D01*
X0050384Y0036802D01*
X0050353Y0036759D01*
X0050318Y0036719D01*
X0050281Y0036682D01*
X0050241Y0036647D01*
X0050198Y0036616D01*
X0050153Y0036588D01*
X0050107Y0036563D01*
X0050058Y0036542D01*
X0050008Y0036524D01*
X0049957Y0036511D01*
X0049905Y0036501D01*
X0049853Y0036495D01*
X0049800Y0036493D01*
X0049747Y0036495D01*
X0049695Y0036501D01*
X0049643Y0036511D01*
X0049592Y0036524D01*
X0049542Y0036542D01*
X0049493Y0036563D01*
X0049446Y0036588D01*
X0049402Y0036616D01*
X0049359Y0036647D01*
X0049319Y0036682D01*
X0049282Y0036719D01*
X0049247Y0036759D01*
X0049216Y0036802D01*
X0049188Y0036847D01*
X0049163Y0036893D01*
X0049142Y0036942D01*
X0049124Y0036992D01*
X0049111Y0037043D01*
X0049101Y0037095D01*
X0049095Y0037147D01*
X0049093Y0037200D01*
D13*
X0053232Y0064276D02*
X0057563Y0064276D01*
X0053232Y0064276D02*
X0051657Y0065850D01*
X0051657Y0072150D01*
X0053232Y0073724D01*
X0057563Y0073724D01*
X0065437Y0073724D02*
X0071343Y0073724D01*
X0071343Y0064276D01*
X0065437Y0064276D01*
X0064000Y0081500D02*
X0061500Y0084000D01*
X0059000Y0081500D01*
X0054000Y0081500D01*
X0051500Y0084000D01*
X0051500Y0089000D01*
X0054000Y0091500D01*
X0059000Y0091500D01*
X0061500Y0089000D01*
X0064000Y0091500D01*
X0069000Y0091500D01*
X0071500Y0089000D01*
X0071500Y0084000D01*
X0069000Y0081500D01*
X0064000Y0081500D01*
X0098035Y0063400D02*
X0098037Y0063447D01*
X0098043Y0063494D01*
X0098053Y0063541D01*
X0098066Y0063586D01*
X0098084Y0063630D01*
X0098105Y0063672D01*
X0098129Y0063713D01*
X0098157Y0063751D01*
X0098188Y0063787D01*
X0098222Y0063820D01*
X0098258Y0063850D01*
X0098297Y0063877D01*
X0098338Y0063901D01*
X0098381Y0063921D01*
X0098425Y0063937D01*
X0098471Y0063950D01*
X0098517Y0063959D01*
X0098565Y0063964D01*
X0098612Y0063965D01*
X0098659Y0063962D01*
X0098706Y0063955D01*
X0098752Y0063944D01*
X0098797Y0063930D01*
X0098841Y0063911D01*
X0098882Y0063889D01*
X0098922Y0063864D01*
X0098960Y0063835D01*
X0098995Y0063804D01*
X0099028Y0063769D01*
X0099057Y0063732D01*
X0099083Y0063693D01*
X0099106Y0063651D01*
X0099125Y0063608D01*
X0099141Y0063563D01*
X0099153Y0063517D01*
X0099161Y0063471D01*
X0099165Y0063424D01*
X0099165Y0063376D01*
X0099161Y0063329D01*
X0099153Y0063283D01*
X0099141Y0063237D01*
X0099125Y0063192D01*
X0099106Y0063149D01*
X0099083Y0063107D01*
X0099057Y0063068D01*
X0099028Y0063031D01*
X0098995Y0062996D01*
X0098960Y0062965D01*
X0098922Y0062936D01*
X0098883Y0062911D01*
X0098841Y0062889D01*
X0098797Y0062870D01*
X0098752Y0062856D01*
X0098706Y0062845D01*
X0098659Y0062838D01*
X0098612Y0062835D01*
X0098565Y0062836D01*
X0098517Y0062841D01*
X0098471Y0062850D01*
X0098425Y0062863D01*
X0098381Y0062879D01*
X0098338Y0062899D01*
X0098297Y0062923D01*
X0098258Y0062950D01*
X0098222Y0062980D01*
X0098188Y0063013D01*
X0098157Y0063049D01*
X0098129Y0063087D01*
X0098105Y0063128D01*
X0098084Y0063170D01*
X0098066Y0063214D01*
X0098053Y0063259D01*
X0098043Y0063306D01*
X0098037Y0063353D01*
X0098035Y0063400D01*
D14*
X0060000Y0065000D02*
X0060000Y0073000D01*
X0042066Y0068311D02*
X0042068Y0068381D01*
X0042074Y0068452D01*
X0042084Y0068521D01*
X0042098Y0068590D01*
X0042116Y0068659D01*
X0042137Y0068726D01*
X0042162Y0068792D01*
X0042191Y0068856D01*
X0042224Y0068918D01*
X0042260Y0068979D01*
X0042300Y0069037D01*
X0042342Y0069093D01*
X0042388Y0069147D01*
X0042437Y0069198D01*
X0042488Y0069246D01*
X0042543Y0069291D01*
X0042599Y0069333D01*
X0042658Y0069371D01*
X0042719Y0069406D01*
X0042782Y0069438D01*
X0042847Y0069466D01*
X0042913Y0069491D01*
X0042980Y0069511D01*
X0043049Y0069528D01*
X0043118Y0069541D01*
X0043188Y0069550D01*
X0043258Y0069555D01*
X0043329Y0069556D01*
X0043399Y0069553D01*
X0043469Y0069546D01*
X0043539Y0069535D01*
X0043608Y0069520D01*
X0043676Y0069501D01*
X0043742Y0069479D01*
X0043808Y0069453D01*
X0043872Y0069423D01*
X0043934Y0069389D01*
X0043994Y0069352D01*
X0044051Y0069312D01*
X0044107Y0069268D01*
X0044160Y0069222D01*
X0044210Y0069172D01*
X0044257Y0069120D01*
X0044301Y0069065D01*
X0044342Y0069008D01*
X0044380Y0068949D01*
X0044415Y0068887D01*
X0044445Y0068824D01*
X0044473Y0068759D01*
X0044496Y0068692D01*
X0044516Y0068625D01*
X0044532Y0068556D01*
X0044544Y0068487D01*
X0044552Y0068417D01*
X0044556Y0068346D01*
X0044556Y0068276D01*
X0044552Y0068205D01*
X0044544Y0068135D01*
X0044532Y0068066D01*
X0044516Y0067997D01*
X0044496Y0067930D01*
X0044473Y0067863D01*
X0044445Y0067798D01*
X0044415Y0067735D01*
X0044380Y0067673D01*
X0044342Y0067614D01*
X0044301Y0067557D01*
X0044257Y0067502D01*
X0044210Y0067450D01*
X0044160Y0067400D01*
X0044107Y0067354D01*
X0044051Y0067310D01*
X0043994Y0067270D01*
X0043933Y0067233D01*
X0043872Y0067199D01*
X0043808Y0067169D01*
X0043742Y0067143D01*
X0043676Y0067121D01*
X0043608Y0067102D01*
X0043539Y0067087D01*
X0043469Y0067076D01*
X0043399Y0067069D01*
X0043329Y0067066D01*
X0043258Y0067067D01*
X0043188Y0067072D01*
X0043118Y0067081D01*
X0043049Y0067094D01*
X0042980Y0067111D01*
X0042913Y0067131D01*
X0042847Y0067156D01*
X0042782Y0067184D01*
X0042719Y0067216D01*
X0042658Y0067251D01*
X0042599Y0067289D01*
X0042543Y0067331D01*
X0042488Y0067376D01*
X0042437Y0067424D01*
X0042388Y0067475D01*
X0042342Y0067529D01*
X0042300Y0067585D01*
X0042260Y0067643D01*
X0042224Y0067704D01*
X0042191Y0067766D01*
X0042162Y0067830D01*
X0042137Y0067896D01*
X0042116Y0067963D01*
X0042098Y0068032D01*
X0042084Y0068101D01*
X0042074Y0068170D01*
X0042068Y0068241D01*
X0042066Y0068311D01*
X0037406Y0068311D02*
X0043311Y0062406D01*
X0043311Y0050594D01*
X0037406Y0044689D01*
X0025594Y0044689D01*
X0019689Y0050988D01*
X0019689Y0062012D01*
X0025594Y0068311D01*
X0037406Y0068311D01*
D15*
X0057000Y0033800D02*
X0060300Y0033800D01*
X0062700Y0033800D01*
X0066000Y0033800D01*
X0062700Y0033800D02*
X0062698Y0033731D01*
X0062692Y0033663D01*
X0062682Y0033595D01*
X0062669Y0033528D01*
X0062651Y0033462D01*
X0062630Y0033397D01*
X0062605Y0033333D01*
X0062577Y0033271D01*
X0062545Y0033210D01*
X0062510Y0033151D01*
X0062471Y0033095D01*
X0062429Y0033040D01*
X0062384Y0032989D01*
X0062336Y0032939D01*
X0062286Y0032893D01*
X0062233Y0032850D01*
X0062177Y0032809D01*
X0062120Y0032772D01*
X0062060Y0032739D01*
X0061998Y0032708D01*
X0061935Y0032682D01*
X0061871Y0032659D01*
X0061805Y0032639D01*
X0061738Y0032624D01*
X0061671Y0032612D01*
X0061603Y0032604D01*
X0061534Y0032600D01*
X0061466Y0032600D01*
X0061397Y0032604D01*
X0061329Y0032612D01*
X0061262Y0032624D01*
X0061195Y0032639D01*
X0061129Y0032659D01*
X0061065Y0032682D01*
X0061002Y0032708D01*
X0060940Y0032739D01*
X0060880Y0032772D01*
X0060823Y0032809D01*
X0060767Y0032850D01*
X0060714Y0032893D01*
X0060664Y0032939D01*
X0060616Y0032989D01*
X0060571Y0033040D01*
X0060529Y0033095D01*
X0060490Y0033151D01*
X0060455Y0033210D01*
X0060423Y0033271D01*
X0060395Y0033333D01*
X0060370Y0033397D01*
X0060349Y0033462D01*
X0060331Y0033528D01*
X0060318Y0033595D01*
X0060308Y0033663D01*
X0060302Y0033731D01*
X0060300Y0033800D01*
X0076500Y0017700D02*
X0080600Y0017800D01*
X0066000Y0014200D02*
X0057000Y0014200D01*
X0082201Y0046502D02*
X0082201Y0066598D01*
X0100799Y0066598D02*
X0100799Y0046502D01*
D16*
X0051786Y0037770D02*
X0048650Y0034634D01*
X0050218Y0034634D02*
X0050218Y0037770D01*
X0048650Y0037770D02*
X0051786Y0034634D01*
X0051786Y0036202D02*
X0048650Y0036202D01*
D17*
X0061106Y0056500D03*
M02*
